<?xml version="1.0" encoding="utf-8"?>
<svg version="1.1" id="Capa_1" xmlns="http://www.w3.org/2000/svg" xmlns:xlink="http://www.w3.org/1999/xlink" x="0px" y="0px"
	 width="200px" height="150px" viewBox="0 0 200 150" style="enable-background:new 0 0 200 150;" xml:space="preserve">
<style type="text/css">
	.st0{fill:#F5F5F5;}
</style>
<g>
	<path class="st0" d="M44.2,142.5l0.1-0.2C44.1,142.4,44.1,142.4,44.2,142.5z"/>
	<path class="st0" d="M41.6,141.8c0.1,0.1,0.2,0.3,0.3,0.3C42,142,41.9,141.9,41.6,141.8z"/>
	<path class="st0" d="M53.7,142.6c0.1,0,0.3,0.1,0.4,0.1C54,142.6,53.8,142.6,53.7,142.6z"/>
	<path class="st0" d="M88.8,143.7c-0.1-0.1-0.2-0.1-0.4-0.2C88.5,143.6,88.5,143.8,88.8,143.7z"/>
	<path class="st0" d="M12.9,146.2c0-0.1-0.1-0.1-0.1-0.1C12.8,146.2,12.8,146.2,12.9,146.2z"/>
	<path class="st0" d="M89.5,142.9c-1.5,0.1-1.6-0.7-2.8-0.2l0.2,0.1c-0.6,0.3-1.3,0.1-1.9,0c0-0.1-0.1-0.2-0.2-0.3l0,0h0.3
		c0,0-0.1-0.1,0-0.1h0.5c-0.3-0.1-1-0.2-0.7-0.6l0.7-0.1c-0.2-0.3,0.1-0.4,0.1-0.6l-2.1-0.7c0.1,0.2,0.4,0.3,0.2,0.5
		c-0.6,0.1-0.4-0.3-1-0.1L83,141c0-0.1-0.1-0.1,0-0.1c0.2-0.1,0.3,0,0.3,0.2c-0.2,0.3-0.7,0.1-0.9-0.2c-0.7,0-0.2,0.5-0.3,0.6
		c-0.3-0.5-1.1-0.1-1.6-0.3l0.3,0.3c-0.5,0.3-1,0-1.3-0.1l0.1,0.3c-0.7-0.1-1.1,0.8-1.6-0.1l0.1,0.2c-0.3,0.1-0.8,0.2-1,0
		c0,0.1-0.1,0.2-0.2,0.3c-0.2-0.3-0.5-0.1-0.9,0c0.3,0.1,0.2,0.5,0.5,0.7c-0.2,0.1-0.4,0.1-0.5,0.1c0,0,0,0,0-0.1l0,0
		c-0.2-0.2-0.3-0.5-0.6-0.5c-0.3,0.2,0.3,0.2,0.4,0.4c-0.4-0.1-0.8,0.1-1.2,0.3c-0.4,0-0.7,0-1.1,0l-0.1-0.1l0.4-0.3
		c-0.3-0.2-0.5-0.2-0.5-0.1c0.1,0,0.1,0.1,0.2,0.1c-1,0.5-1.6-0.7-2.7-0.5c0.1,0.2,0.2,0.2,0.2,0.4c-0.5,0.2-0.5-0.9-1.3-0.5
		l0.2,0.2c-0.3,0.1-0.5-0.2-0.4-0.2c0,0.8-1.7,0-2.2,1c-0.4-0.4-1.5-0.7-1.8-0.5c-0.3,0.3-0.1,0.4,0.1,0.5c-0.3,0-0.6,0-0.9,0
		c0.2-0.4,0.9-0.7,0-0.9l-0.1,0.2c0.1,0,0.3-0.1,0.4-0.1c0.3,0.2-0.2,0.3-0.2,0.4l-1.1-0.1c-0.1-0.4,0.6-0.4,0.7-0.5
		c-0.9,0.1-2,0.8-2.8,0.5v0.1c-0.5-0.1-1.1,0-1.6,0c0,0.1-0.1,0.2,0,0.3l0,0l-0.6-0.3l0.1,0.2c-0.3,0-0.6,0-0.9,0c0,0,0-0.1,0-0.2
		c0,0.1-0.1,0.1-0.1,0.1c-0.8-0.2-1.6-0.5-2.2-0.2c0.4,0.1,0.5,0.2,0.5,0.4c-0.3-0.1-0.6-0.1-0.9-0.1v0.1c-0.5,0-1.1-0.1-1.7-0.2
		c0.1,0,0.1,0.1,0.1,0.1c-0.3,0.1-0.6-0.1-0.8-0.2v0.3c-0.1,0-0.2-0.1-0.3-0.1c0-0.3-0.5-0.6,0.1-0.8c0.2,0.5,0.5,0.1,0.8,0.2
		c-0.6-1-2.3,0.6-2.5-0.3l-0.1,0.4c-0.2,0-0.6-0.3-0.3-0.4l-1.1,0.3c0.2,0.1,0.5,0.3,0.7,0.4c-0.4-0.1-0.8-0.2-1.1-0.1
		c-0.2-0.1,0.4,0.3,0,0.4c-0.1,0-0.1-0.1-0.2-0.1c0-0.1-0.1-0.1-0.1-0.2c0.1,0,0.1-0.1,0.1-0.1c-0.1,0-0.1,0.1-0.1,0.1
		c-0.3-0.2-0.8,0.1-0.9-0.5l-0.6,0.3l-0.1-0.4c-0.5,0.7-0.8-0.3-1.6-0.1c0,0.1,0.1,0.1,0.1,0.2c-0.3-0.1-0.9-0.1-0.4-0.3
		c-0.4,0-1.9-0.2-1.2,0.2c0-0.2,0.5,0,0.8,0c0,0.3-0.4,0.2-0.7,0.4c0,0,0,0-0.1,0l0,0l-0.1,0.1c0,0-0.1-0.1-0.2-0.1l-0.1,0.2l0,0
		l-0.1-0.1l0.1,0.1c-0.8-0.3-1.5-0.1-2.1-0.5c0,0.1-0.2,0.2-0.4,0.2v-0.4h-0.9l0.4,0.6c-0.9,0.1-1.6-0.6-2.4-0.7
		c-0.2,0.7-1.5-0.3-2.2,0.4l0.6,0.2c-1.3-0.1-1.5,0.3-2.7,0.1c1-0.2,1-0.1,2.5-0.7c-1.5,0.3-2.6-0.4-3.9,0c0.1,0.2,0.4,0.3,0.1,0.4
		c-0.3-0.4-1.3,0-1.1-0.4c-0.4,0.1-0.5,0.5-0.8,0.6l-1.4-0.5v0.1c-2.4,1-4.5-0.6-6.9-0.2v0.2l-0.6-0.3c0.5,0.2-0.2,0.3-0.2,0.5
		l-1.5-0.5c0,0.2,0.1,0.6,0.4,0.6c-0.6,0.2-1.2-0.2-1.7-0.3l0.2,0.2L19,142v0.3c-0.9-0.1-1.9,0.2-2.2-0.3l0.1,0.4L16,142l0.5,0.3
		c-1,0.1-2.6-0.2-2.8-0.2l0.1,0.2c-0.2,0.1-0.3,0-0.5-0.1l0.1,0.2c-1.5-0.1-1.9,0.5-3.7,0.2c-0.5,0.1,0.3,0.1,0.3,0.2
		c-0.3,0.2-0.9,0-1-0.1c0.1,0.4,0.9,0.3,0.3,0.6c-0.4-0.2,0.3,0.4-0.4,0.3l-0.3-0.5c-0.4,0.1-0.1,0.4-0.7,0.3
		c-0.7-0.2,0.8-0.6-0.3-0.6c-0.6,0-1.2,1.2-2.2,0.9c-0.9,0.3,0.5,0.8-0.8,0.7l0.8,0.3c-0.2,0.1-0.1,0.4-0.6,0.3
		c-0.2-0.2-0.5-0.4-0.8-0.5c1.2,0.4-1.1,0.6,0.1,1.1H3.7c0.1,0,0.1,0.1,0,0.1H3.1c0.3,0.1,1.2,0.2,0.8,0.5l-0.8,0.1
		c0.2,0.3-0.1,0.4,0,0.6l2.4,0.5c-0.1-0.2-0.4-0.3-0.3-0.4c0.6-0.1,0.5,0.3,1.1,0.1L6.1,147c0,0.1,0.1,0.1,0,0.1
		c-0.2,0.1-0.3,0-0.3-0.2c0.2-0.3,0.8-0.1,1,0.1c0.8,0,0.2-0.5,0.3-0.6c0.4,0.5,1.3,0,1.8,0.2l-0.3-0.3c0.6-0.4,1.1-0.1,1.4,0
		L9.9,146c0.8,0,1.2-0.8,1.8,0.1l-0.1-0.2c0.3-0.1,0.8-0.3,1.2,0c0-0.1,0.1-0.2,0.2-0.3l0,0c0.1,0.1,0.1,0.1,0.2,0.1
		c-0.1,0.1-0.1,0.2,0,0.2c1.4-0.3,2.7,0,4.3-0.2l0.5,0.5v-0.3c0.8-0.1,0.2,0.5,0.6,0.5c-0.2,0-0.2-0.1-0.2-0.1
		c0.9,0.4,0.5-0.3,1-0.2c-0.2-0.4-0.9-0.1-0.7-0.6c0.9,0.4,2.2,0.2,2.4,1c1.6-0.3,3.7,0.2,5,0.2c0.2-0.1-0.1-0.1,0-0.2
		c0.6,0.5,1.8-0.4,1.8,0c0.3-0.1,0.4-0.4,0.4-0.5c0.4,0.2,0.8,0.3,1.2,0.3l-0.3-0.1v-0.1l0.5,0.2l0,0c1.1,0.1,2.4-0.1,3.4,0.4
		c-0.5-0.2,0-0.5-0.1-0.6c0.6,0.6,1.7,0.6,2.7,0.5c0-0.1,0.1-0.3-0.1-0.4l0.6,0.3l-0.1-0.2c1-0.2,2.2,0.5,2.8,0.2
		c-0.4-0.1-0.4-0.2-0.5-0.4c0.2,0,0.5,0,0.7,0c0.3,0.3,0.9,0.2,1.4,0.1h0.1l0,0c0.1,0,0.2-0.1,0.3-0.1s0.3,0.1,0.4,0.1V146
		c0.2,0,0.4,0.1,0.5,0.3l0.2-0.4c0.2,0.1,0.6,0.3,0.3,0.4l1.2-0.2c-0.1-0.1-0.2-0.1-0.4-0.2c0.4,0,1.1,0.3,1.6,0.2
		c0.2,0.1-0.3-0.2-0.1-0.3c0.1,0,0.2,0,0.2,0.1c0.1,0.3,0.3,0.3,0.5,0.3h0.1l0,0c0.2,0,0.3,0,0.4,0.4l0.5-0.3l0.1,0.4
		c0.4-0.8,0.7,0.3,1.4,0c0-0.1-0.1-0.1-0.1-0.2c0.2,0.1,0.8,0.1,0.4,0.3c0.4,0,1.7,0.1,1.1-0.3c0.1,0.2-0.5,0.1-0.7,0
		c0-0.3,0.4-0.3,0.6-0.5c0,0.1,0.1,0.2,0.4,0.3l-0.1-0.1c0.1,0,0-0.1,0-0.1v0.1l-0.1-0.1h0.1l0,0l0,0c0.3,0,0.5,0,0.7,0.2l-0.2-0.3
		c0.6,0.1,1.1,0,1.5,0.3c0-0.1,0.1-0.2,0.4-0.2v0.4h0.8l-0.4-0.6c0.6-0.1,1.1,0.2,1.6,0.4l0,0l0,0c0.2,0.1,0.3,0.1,0.5,0.1
		c0-0.1,0.1-0.2,0.1-0.2l0.2,0.1c-0.1,0-0.1-0.1,0-0.2c0.4,0,1.2,0.3,1.6-0.2l-0.5-0.2c1.1,0.1,1.3-0.4,2.4-0.2
		c-0.9,0.3-0.9,0.1-2.2,0.8c1.3-0.4,2.3,0.3,3.5-0.2c-0.1-0.1-0.3-0.2-0.2-0.3l0.2,0.1l0,0c0.3,0.1,0.9-0.1,0.8,0.3
		c0.2-0.1,0.3-0.3,0.4-0.4c0,0,0.1,0.1,0.2,0.1c0,0,0.2-0.1,0.3-0.2l1,0.4V146c0.1-0.1,0.3-0.1,0.4-0.2c0.2,0.1,0.5,0.2,0.6,0.3
		c0.2-0.1-0.1-0.2-0.2-0.2v0.1c-0.1,0-0.2-0.1-0.2-0.2c1.9-0.5,3.6,0.7,5.5,0.3v-0.2l0.3,0.2c-0.1,0-0.3,0.1-0.1,0.1h0.3h0.1
		c0,0,0,0-0.1,0H69c0-0.1-0.2-0.1-0.3-0.2h-0.1c0.1-0.1,0.2-0.1,0.3-0.2c0.1,0,0.2,0,0.3,0l1.1,0.4c0-0.1,0-0.3-0.1-0.4
		c0.1,0,0.3,0,0.4-0.1c0.3,0.1,0.6,0.2,0.8,0.3l-0.2-0.2l0.5,0.2v-0.3c0.7,0.1,1.7-0.2,1.9,0.3l-0.1-0.4h0.1l0.7,0.3l-0.5-0.3
		c0.2,0,0.3,0,0.5,0c0.1,0,0.2,0,0.3,0c0.7,0.1,1.5,0.3,1.6,0.3l-0.1-0.2c0.1-0.1,0.3,0,0.4,0.1l-0.1-0.3c1.3,0.1,1.7-0.4,3.2-0.1
		c0.4,0-0.2-0.1-0.2-0.2c0.2-0.2,0.7,0,0.9,0.1c-0.1-0.4-0.7-0.3-0.2-0.6c0.2,0.1,0.1-0.1,0.1-0.2c0.1,0,0.1,0,0.2,0
		c0-0.1,0-0.1,0-0.1h0.1l0.2,0.5c0.3-0.1,0.1-0.4,0.6-0.3c0.6,0.3-0.8,0.5,0.2,0.7c0.3,0,0.6-0.4,1.1-0.7c0.2,0.2,0.3,0.3,0.8,0.3
		c-0.1-0.1-0.8-0.2-0.8-0.4c0.3-0.1,0.6-0.2,0.9-0.1c0.3-0.1,0.3-0.2,0.3-0.3c0.3,0,0.6,0.1,1,0.1c-0.1-0.2-0.1-0.3,0-0.4
		c-0.3,0-0.6,0-1,0c0,0,0.2,0,0.5,0l-0.4-0.2c0,0,0,0,0.1,0c-0.1,0-0.2-0.1-0.3-0.1h-0.1c0.2-0.1,0.1-0.4,0.6-0.3l0,0
		c0,0.1,0.1,0.1,0.2,0.2h-0.1h0.1c0.1,0.1,0.3,0.2,0.4,0.2c-0.1-0.1-0.2-0.1-0.3-0.2c0.9,0.3,0.6,0.8,1.7,0.6c0.4-0.4,0-0.3-0.1-0.7
		c0.3,0.1,1.2-0.4,1.6,0l-0.8,0.1c0.5,0.1,1.1,0,1.4,0.1c0-0.1-0.1-0.2-0.2-0.2c0.4,0.1,1,0,1.2,0.2l0.1-0.5c-0.2,0.2-1,0.4-1.1,0.1
		C88.4,142.8,89.2,143,89.5,142.9z M81.3,143.5c-0.1-0.1-0.1-0.2-0.1-0.2l0.3,0.3L81.3,143.5z M69.9,145.6L69.9,145.6
		C69.8,145.6,69.8,145.6,69.9,145.6C69.8,145.6,69.9,145.6,69.9,145.6L69.9,145.6z M78.8,142.3c0-0.1,0-0.1-0.2-0.1l0.4-0.1
		c0.3,0.3,0.2,0.4-0.1,0.5c0,0-0.1,0-0.2,0c0.1,0,0.2,0,0.2,0h-0.1c-0.1,0-0.1,0-0.2,0c0-0.2-0.4-0.4-0.5-0.6
		C78.3,142.2,78.5,142.5,78.8,142.3z M78.2,142.8C78.2,142.9,78.2,142.9,78.2,142.8c-0.1,0.1-0.1,0.1-0.2,0.2v-0.1
		C78.1,142.8,78.2,142.8,78.2,142.8z M72.9,142.8L72.9,142.8c-0.3,0-0.6,0-0.9-0.1C72.2,142.4,72.6,142.8,72.9,142.8z M68.1,143
		c-0.1,0.1-0.1,0.2-0.1,0.2c-0.1-0.1-0.3-0.1-0.4-0.2l0.1-0.3C67.7,143,67.9,143,68.1,143z M66.8,142.8c-0.3,0-0.5,0.1-0.7,0.1
		c-0.1,0-0.1,0-0.2,0C66.1,142.7,66.6,142.5,66.8,142.8z M63.1,145c-0.1,0-0.1,0-0.2,0l-0.2-0.1c0.1,0,0.1-0.1,0.2-0.1
		C63,144.9,63.1,145,63.1,145z M57.8,143.4c0.1,0,0.2,0.1,0.3,0.1C58,143.5,57.9,143.4,57.8,143.4z M62.1,145.2c-0.1,0-0.2,0-0.3,0
		C62,145.1,62,145.1,62.1,145.2z M57.8,143c0.1,0,0.2-0.1,0.3-0.1L57.8,143c-0.1,0.1-0.2,0.1-0.2,0.2c-0.1,0-0.2-0.1-0.2-0.1
		L57.8,143z M55.8,142.9L55.8,142.9C55.9,142.9,55.8,142.9,55.8,142.9L55.8,142.9z M34.1,144.6l-0.3-0.1l0,0
		C34,144.5,34,144.6,34.1,144.6L34.1,144.6z M36.3,145.2L36.3,145.2L36.3,145.2L36.3,145.2C36.4,145.2,36.4,145.2,36.3,145.2z
		 M35.5,143.7c0,0,0,0.1-0.1,0.2l0,0c-0.3-0.1-0.5-0.3-0.7-0.4l0,0C34.9,143.5,35.3,143.7,35.5,143.7z M36.4,145.1
		c0,0-0.1,0-0.1-0.1v-0.1C36.4,145,36.5,145,36.4,145.1C36.5,145,36.5,145,36.4,145.1z M42.5,144L42.5,144L42.5,144L42.5,144
		L42.5,144L42.5,144L42.5,144z M51.3,142.7c0.1,0.1,0.1,0.1,0.1,0.1c-0.1,0-0.2,0-0.3,0C51.2,142.8,51.3,142.8,51.3,142.7z
		 M41.8,142.4c0.1,0,0.1,0,0.2,0H41.8c-0.2,0.1-0.3,0.2-0.4,0H41.8z M39.8,142.4c0.2,0.2,0.7,0.2,0.8,0.5l-0.7-0.2
		c0.1,0,0.1,0.1,0,0.1C39.8,142.7,39.6,142.4,39.8,142.4z M39.9,142.9c-0.1,0.1-0.1,0.1-0.2,0.1c0,0-0.1-0.1-0.1-0.2
		C39.7,142.9,39.8,142.9,39.9,142.9z M35.7,143.5L35.7,143.5c-0.1-0.1-0.1-0.1-0.1-0.2L35.7,143.5z M26.4,145.4c-0.1,0-0.2,0-0.4,0
		v-0.1c0.1,0,0.2-0.1,0.3-0.1c0-0.1,0.1-0.1,0.2-0.1c0,0-0.1,0.1-0.2,0.1C26.4,145.2,26.4,145.3,26.4,145.4
		C26.4,145.4,26.5,145.4,26.4,145.4C26.5,145.5,26.5,145.5,26.4,145.4C26.5,145.5,26.4,145.4,26.4,145.4z M22.6,144.8
		c-0.1-0.4,0.1-0.3,0.4-0.4c0,0,0,0.1,0.1,0.1c0.1,0.1,0.2,0.2,0.4,0.2c0.1,0,0.1,0.1,0.2,0.1l-0.2,0.3
		C23.4,144.8,22.7,144.8,22.6,144.8z M30.5,142.9c-0.4-0.2-0.6,0.3-0.9-0.2C30,142.2,30.3,142.7,30.5,142.9z M29.3,143.1
		c-0.6,0.1,0.3,0.4-0.1,0.6h0.3c-0.5,0.3-0.4-0.3-0.8-0.2l0.3-0.1c0.2-0.3-0.4-0.2-0.4-0.4C28.9,142.8,29.6,143,29.3,143.1z
		 M23,144.3L23,144.3C23,144.4,23,144.4,23,144.3L23,144.3z M17.8,144.8l0.7,0.2c-0.2,0-0.5-0.1-0.1,0.2c-0.2,0.1-0.4-0.1-0.7-0.1
		c0-0.1-0.1-0.1-0.2-0.2C17.7,144.9,17.8,144.9,17.8,144.8z M16.8,144.9c0,0-0.1,0-0.2,0C16.7,144.9,16.7,144.9,16.8,144.9
		c0.1,0.1,0.1,0.1,0.2,0.2l-0.2,0.1c-0.3,0-0.5-0.1-0.8-0.1c-0.1,0-0.3-0.1-0.4-0.1C16,144.8,16.4,144.6,16.8,144.9z M15.7,143
		c-0.4,0.2-0.4,0.1-0.7,0.1C15.1,143,15.5,143,15.7,143z M15.1,142.9c-0.6,0.3-0.5-0.3-0.9-0.4C14.7,142.2,14.6,142.8,15.1,142.9z
		 M11.8,145c-0.1,0.1-0.2,0.1-0.3,0.1s-0.2,0.1-0.4,0.1l0,0l0,0l0,0c0-0.1,0.1-0.1,0.1-0.2c0.1,0,0.2,0,0.2,0.1
		C11.6,145,11.7,145,11.8,145L11.8,145z M8,144.5L8,144.5L8,144.5C8,144.5,8,144.6,8,144.5c0.1,0.2,0.1,0.2,0.1,0.3l0,0H8l0,0
		c-0.2,0-0.4-0.1-0.3-0.2C7.7,144.5,7.8,144.5,8,144.5c-0.1,0-0.2,0-0.3-0.1l0,0L8,144.5z M10.6,145.8c-0.1-0.1-0.2-0.2-0.2-0.2
		c0.2,0.1,0.4,0.2,0.7,0.2H10.6z M11.4,145.7l-0.1-0.1l0,0c0.1,0.1,0.3,0.2,0.4,0.3C11.6,145.8,11.5,145.7,11.4,145.7z M14.2,145.8
		C14.3,145.8,14.3,145.8,14.2,145.8C14.3,145.8,14.2,145.8,14.2,145.8c-0.2-0.1-0.4-0.2-0.5-0.2c0,0,0-0.1-0.1-0.2l0.1-0.1
		c-0.1,0-0.1,0-0.2-0.1c0-0.1-0.1-0.1-0.2-0.1c0.4-0.2,0.6-0.1,0.7,0.1c0,0,0,0-0.1,0l0.1,0.1c0.1,0.1,0.2,0.2,0.4,0.3v0.1
		C14.5,145.8,14.4,145.8,14.2,145.8z M14.8,145.6c0.2-0.2-0.4-0.2-0.5-0.4c0.1,0,0.3,0,0.4,0c0.1,0.1,0.3,0.2,0.4,0.3
		C15,145.6,14.9,145.6,14.8,145.6z M16.4,145.8l-0.2-0.4h0.5L16.4,145.8z M17.1,145.3c0.1,0,0.3,0,0.4,0s0.1,0,0.2,0s0.1,0,0.2,0
		C17.7,145.3,17.4,145.3,17.1,145.3z M23.5,145.4c0.1-0.1,0.2-0.2,0.3-0.3c0.1,0.1,0.2,0.2,0.4,0.2C24,145.4,23.8,145.4,23.5,145.4z
		 M24.5,145.5c0.1,0,0.1,0,0.2,0c0.2,0,0.3,0.1,0.5,0.1c-0.1,0-0.1,0.2,0,0.5C24.9,146,24.3,145.7,24.5,145.5z M25.4,145.6
		c0.2,0,0.4,0,0.5,0c0.1,0.1,0.3,0.1,0.4,0.2C26.1,146,25.6,145.7,25.4,145.6z M31.9,146.4l-0.2-0.1C32.2,146.1,32,146.2,31.9,146.4
		l0.3,0.2C31.9,146.5,31.9,146.5,31.9,146.4z M33.1,145.8c-0.1,0.3-0.8,0.2-1,0.1C32.4,145.9,33.2,145.8,33.1,145.8z M33.5,145.2
		c-0.2-0.1-0.2-0.1-0.2-0.2c0,0,0.1,0,0.1-0.1C33.5,145,33.6,145.1,33.5,145.2z M36.8,145.4C36.8,145.4,36.9,145.4,36.8,145.4
		c0-0.1,0-0.1,0-0.2c0-0.1,0-0.1,0-0.2l0,0l0,0c0.2,0.2,0.4,0.3,0.7,0.6C37.1,145.9,36.9,145.7,36.8,145.4z M37.3,146.1
		c-0.1,0-0.1,0.1-0.2,0.1L37.3,146.1c0.3-0.2,0.3-0.8,0.8-0.2L37.3,146.1z M39.9,146.2L39.9,146.2L39.9,146.2L39.9,146.2z
		 M51.5,146.1c-0.1,0-0.1,0-0.2,0H51.5c0.2-0.1,0.3-0.2,0.3,0H51.5z M53.3,146c-0.2-0.2-0.7-0.2-0.7-0.5c0.2,0.1,0.5,0.2,0.8,0.3
		C53.3,145.9,53.3,145.9,53.3,146z M59.2,145.9L59.2,145.9L59.2,145.9L59.2,145.9z M74.5,144.8c0.3-0.2,0.4-0.1,0.6-0.1
		C75,144.8,74.7,144.9,74.5,144.8z M75,145c0.6-0.3,0.5,0.3,0.8,0.4C75.3,145.6,75.4,145.1,75,145z"/>
	<path class="st0" d="M88,144.2c0.2,0,0.8,0.2,0.5-0.1C88.2,144,88.2,144.2,88,144.2z"/>
	<path class="st0" d="M87.2,143.9c-0.2,0-0.4-0.1-0.5-0.2C86.9,143.9,87.1,143.9,87.2,143.9z"/>
	<path class="st0" d="M87.2,143.9c0.2,0,0.5,0,0.8-0.1C87.6,143.7,87.5,143.8,87.2,143.9z"/>
	<path class="st0" d="M64.1,146.3l-0.4-0.5C63.6,145.8,63.7,146.2,64.1,146.3z"/>
	<polygon class="st0" points="61.1,146.2 62.1,146.3 61.8,146.2 	"/>
	<path class="st0" d="M51.7,146.7c-0.1-0.1-0.2-0.2-0.3-0.3C51.4,146.4,51.5,146.6,51.7,146.7z"/>
	<path class="st0" d="M41,146.3c-0.1,0-0.2,0-0.3-0.1C40.7,146.4,40.8,146.4,41,146.3z"/>
	<path class="st0" d="M77,141.7c0,0.1,0.1,0.1,0.1,0.1C77.1,141.7,77.1,141.6,77,141.7z"/>
	<path class="st0" d="M75.7,142c0.1,0,0.2,0,0.3,0C76,142,75.9,142,75.7,142z"/>
	<path class="st0" d="M29.6,146.5L29.6,146.5h-0.1H29.6z"/>
	<path class="st0" d="M74.1,142.1l0.9,0.1C74.3,142.1,74.7,141.9,74.1,142.1z"/>
</g>
<g>
	<path class="st0" d="M47,71.3l0.3-0.1C47.2,71.1,47.1,71.2,47,71.3z"/>
	<path class="st0" d="M46,74.3c0-0.1,0-0.3,0.1-0.5C46,74,46,74.1,46,74.3z"/>
	<path class="st0" d="M46.9,69.5v-0.4C46.9,69.2,46.9,69.4,46.9,69.5z"/>
	<path class="st0" d="M46.7,66.9l-0.1,0.4l0,0C46.7,67.3,46.7,67.1,46.7,66.9z"/>
	<path class="st0" d="M45.3,20.1c-0.1,0.1-0.2,0.3-0.2,0.5C45.2,20.6,45.3,20.5,45.3,20.1z"/>
	<path class="st0" d="M44.7,130.9c-0.1,0-0.1,0.1-0.1,0.2C44.6,131.1,44.7,131,44.7,130.9z"/>
	<path class="st0" d="M46.9,69.5L46.9,69.5c-0.1-0.4-0.8,0.6-0.6-0.7l0.2-0.7c0,0.1-0.1,0-0.2-0.1l0.2-0.7c-0.7-1.1,0.4-2.1,0.1-3.3
		c0.1,0.4,0,0.9-0.2,0.7c-0.1-0.2,0-0.6,0.1-0.8L46.4,64l0.5-2.4c-0.2,0.2-0.3,1-0.4,1.1c0-0.5,0-1,0-1.5c0.1,0.2,0.3,0.6,0.4-0.1
		c-0.1-0.1-0.2-0.5-0.3-0.6c0-0.4,0.1-0.8,0.1-1.2c0.1-0.5,0.2-1.1,0.4-1.5c-0.1-0.2-0.2,0.1-0.2,0.3L47,58
		c-0.1,0.2-0.2,0.3-0.3,0.3c0-0.3,0-0.7-0.1-1c-0.1,0.1-0.2,0.2-0.2,0.3c0-0.3,0-0.6,0-0.9V57c0.1-0.5,0-1.3,0.3-1.1
		c-0.1-0.6-0.5-0.7-0.6-1.1l0.3-1.1h0.3c0.1-0.3-0.1-0.2-0.2-0.3l0.2-0.6l-0.1,0.1c-0.2-0.6-0.3-1.2-0.3-1.9c0,0.3,0.1,0.5,0.4,0.4
		c0.2-1.4,0.1-1.2,0.2-2.7v0.1c-0.2-0.7,0.2-1.6-0.2-2.1c0.2-1.2,0.3-2.4,0.1-3.6l-0.2,0.1l0.3-0.7c-0.2,0.4-0.3-0.4-0.4-0.5
		l0.5-2.2c-0.2,0-0.6,0.1-0.6,0.6c-0.2-0.8,0.2-1.7,0.2-2.4l-0.2,0.2l0.2-0.7h-0.3c0.1-1.2-0.2-2.7,0.2-3.1L46,34.6l0.3-1.3L46,34
		c-0.1-1.4,0.2-3.6,0.2-3.9L46,30.2c-0.1-0.2,0-0.4,0.1-0.7l-0.2,0.2c0-0.3,0-0.6,0-0.9c0.1-0.2,0.1-0.4,0.2-0.8
		c-0.1,0.1-0.1,0.4-0.2,0.6c-0.1-1.4-0.5-2.1-0.3-4.1c-0.1-0.6-0.1,0.2-0.2,0.3c0.1-0.2,0.1-0.6,0-1.2v-0.1v-0.1c0,0-0.1,0-0.1,0.1
		c-0.3-0.4-0.2,0.1-0.6,0.2c0-0.1,0-0.3,0-0.5L45,23c-0.1-0.5-0.4-0.1-0.4-0.9c0-0.2,0.1-0.3,0.2-0.3v0.8c0-0.2,0-0.4,0.1-0.7
		c0.2,0.2,0.3,0.6,0.3,0c0,0.1,0,0.2,0,0.3c0-0.3,0-0.8-0.1-1.2c0,0.1,0,0.3,0,0.4C45,21.3,45,21.1,44.9,21c0-0.2,0-0.3,0.1-0.4
		c-0.1,0.1-0.2,0.1-0.2,0.2l0,0c0.1-0.6,0.1-1.4,0.3-1.7L44.8,19c0.2,0.4,0.3,1.5,0,1.7l0,0c-0.1-0.1-0.2-0.3-0.2-0.4
		c0-0.4,0-1,0-1.3c0,0.4,0,0.8-0.1,1.1c-0.1-0.4-0.2-0.8-0.1-1.3c-0.3-1.3-0.8,0.7-0.7-1.1l-0.3,1.2c-0.2-0.3-0.4-0.1-0.3-0.9
		c0.2-0.3,0.4-0.7,0.4-1.2c-0.3,1.7-0.6-1.5-1.1,0.1v-0.6c0,0.1-0.1,0.1-0.1,0.1l-0.1-0.8c-0.1,0.5-0.1,1.6-0.5,1.1l-0.1-1.1
		c-0.3,0.3-0.4-0.1-0.6,0l-0.4,3.3c0.2-0.1,0.3-0.6,0.4-0.4c0.2,0.9-0.3,0.7,0,1.6l0.2-0.4c-0.1,0.1-0.1,0.2-0.1,0
		c-0.2-0.3,0-0.4,0.2-0.4c0.3,0.3,0.1,1.1-0.1,1.4c0.1,1.1,0.5,0.2,0.6,0.4c-0.5,0.6,0.1,1.8-0.1,2.5l0.3-0.4c0.4,0.8,0.1,1.5,0,2
		l0.2-0.2c0,1.1,0.8,1.7,0,2.6l0.2-0.1c0.1,0.5,0.3,1.2,0,1.6c0.1,0,0.2,0.1,0.3,0.3c-0.3,0.3-0.1,0.7,0,1.4
		c0.1-0.5,0.5-0.3,0.6-0.8c0.5,1.1-0.5,1-0.5,1.9c0.2,0.5,0.2-0.5,0.4-0.6c-0.2,1.4,1.1,2.8,0.2,3.7l-0.3-0.6
		C42.9,34.7,42.9,35,43,35c0-0.2,0.1-0.2,0.1-0.3c0.5,1.7-0.6,2.6-0.4,4.3c0.2-0.1,0.2-0.4,0.4-0.4c0.2,0.8-0.9,0.8-0.5,2l0.2-0.2
		c0.1,0.4-0.2,0.7-0.2,0.7c0.8,0,0,2.6,1,3.5c-0.4,0.6-0.7,2.4-0.5,2.9c0.4,0.7,0.5-0.4,0.8-0.4c-0.1,0.2-0.1,0.5-0.1,0.9
		c-0.1,0.3-0.1,0.5-0.1,1c-0.4,0-0.8-1.8-1.1-0.1l0.2,0.2c0-0.2-0.1-0.4-0.1-0.7c0.3-0.5,0.3,0.3,0.4,0.4L43,50.5
		c-0.4,0.1-0.3-0.9-0.4-1.1c0.1,1.4,0.7,3.1,0.4,4.5l0.2-0.1c-0.4,1.7,0.8,1,0.1,2.3c0.1,0.7,0.5-0.3,0.5,0.8c0,0.3-0.2,0.1-0.2,0.1
		c-0.1,0.7,0,0.8,0.1,1c0,0.1,0,0.2-0.1,0.3c0-0.1,0.1-0.2,0.1-0.2c0,0.1,0,0.3-0.1,0.8l0.4-0.2c-0.1,0.3-0.2,0.6-0.2,0.9
		c-0.4,1.1-0.9,2.3-0.7,3.2c0.4-0.1,0.3-0.8,0.6-1.1l0,0c-0.6,1.7-0.2,4-0.5,5.6c-0.3-0.5-0.7,0.7-1-0.3c0.5-0.2,0.2-0.7,0.2-1.3
		c-1.1,0.8,0.4,3.6-0.5,3.9l0.4,0.2c-0.1,0.2-0.4,0.8-0.5,0.4l0.2,1.7c0.3-0.6,1-1.9,0.6-2.3c0.4-0.5,0.2,0.7,0.7,0.3
		c-0.6,1.1,0.2,0.7,0.1,1.9c-0.5-0.6-0.8,1.2-1,1.1c0.1,0.4-0.2,1.3-0.4,1.6c-0.1,0.7,0.3,2.3,0.1,3.4c0.2-0.4,0.4-1.1,0.8-1
		c-0.2,0.5-0.2,1.1,0.2,1.3c0.8-1.9-0.9-0.7-0.4-2.4c0.5-0.4,0.6-0.9,0.8-1.8c0.1,0.2,0.2,0.2,0.2,0.3l0,0l0.2,0.2v-0.1l0,0
		c0.1,0.1,0.1,0.1,0.1,0.3c-0.8,1.1-0.1,2.8-0.6,4.1c-0.3,0.6-0.9,0.1-1,1.5L41.8,79c0.2,1.3-0.3,0.3-0.4,1.4l0.3-0.4
		c0,0.7,0,0.9-0.3,1.3l0.5-0.5c0,0.4,0.1,1-0.2,1c0.1,0.1,0.2,0.1,0.3,0.1c-0.1,0.1-0.1,0.2-0.1,0.6c0.1-0.2,0-0.4,0.2-0.4
		c-0.1,1.3,0.3,0.8,0.4,1c0,0.2,0,0.5,0,0.9c0,0,0,0,0,0.1l0,0v0.1c-0.5,0.5-0.6,1.8-1,2.2l0,0L41,87.6c0.1-0.3,0.3,0,0.3,0.4v-0.1
		c0.1,0.4,0.8-0.5,0.6,0.8l-0.3,0.7c0-0.1,0.1,0,0.2,0.1l-0.2,0.7c0.6,1.1-0.5,2-0.2,3.2c0-0.4,0-0.9,0.3-0.7c0.1,0.2,0,0.6-0.1,0.8
		l0.1-0.1L41,95.8c0.3-0.2,0.4-1.5,0.6-0.9c0.3,0.4-0.1,1-0.1,1.4c-0.2-0.1-0.3-0.9-0.5-0.1c0.1,0.1,0.2,0.9,0.4,0.5
		c-0.3,0.8-0.4,1.9-0.8,2.6c0.1,0.2,0.2-0.1,0.2-0.2L40.7,99c0.1-0.5,0.5,0,0.4-1c0.6,0,0.1,1.4,0.1,2.2l0.5-1.3
		c0,0.1,0.1,0.3,0.1,0.4c-0.1,0.6-0.1,1.3,0,2l0.1-0.1c-0.1,1.8-0.7,3.6-0.8,5.2c-0.2-0.7,0.1-1.2-0.4-1.2c-0.3,1.4-0.2,1.2-0.4,2.5
		v-0.1c0.2,0.7-0.4,1.7,0.1,2.2c0.3-0.3-0.2-1,0.4-1l-0.2,1.7c0.4-0.5,0.2-1.7,0.3-2.4c0-0.5-0.1,1-0.5,0.7c0.1-1.6,0.5-2,1.1-2.7
		c0.4-0.5,0.3,0.7,0.3,1c-0.7,1-1,2.5-0.9,4.1l0.4,0.9c-0.5,0.8-1.2,0.4-1.2,1.8l0.3-0.4c0.1,0.3,0.1,0.5,0.1,0.7
		c0.3-0.6,0.6-1.2,0.9-1.8c0,0,0,0.1,0.1,0.1c-0.1,0.6-0.2,1.2-0.2,1.8c-0.2,0.5-0.5,1.1-0.6,1.6c0.1-0.1,0.1-0.5,0.3-0.6
		c0,1.8-0.9,3.6-1.2,5c0.2,0.6,0.3-1.1,0.7-0.8c-0.2,0.7,0.1,1.6-0.3,1.7c0.6-0.3-0.1,1.7,0.5,0.3c0,1.3-0.2,2.7-0.5,4
		c-0.3,1.4-0.6,2.7-0.9,4c0.2-0.1,0.3-0.1,0.4,0c0.1-0.9,0.4-2.2,0.8-2.6c0.2,0.6-0.5,1.4-0.4,1.5c0.2-0.3,0.2-0.9,0.5-0.9
		c0.2,0.8-0.3,1.2-0.4,1.7l-0.1-0.3c-0.6,1.6-1.1,0.8-1.1,2.6c0.3,0.7,0.3,0,0.7,0.1c-0.2,0.4,0.1,1.8-0.4,2.2l0.1-1.1
		c-0.2,0.7-0.3,1.5-0.5,2c0.1,0,0.2-0.1,0.2-0.2c-0.2,0.6-0.3,1.4-0.6,1.6l0.4,0.2c-0.2-0.4-0.1-1.5,0.2-1.6c0.4,0.1,0,1.2,0,1.7
		c0.4-2.1,1.1-2,1-3.8l-0.2,0.3c-0.2-1.1,0.5-2.2,0.5-3.2c0.1,0.3,0.2,0.4,0.3,0.2c0-0.1,0-0.2,0-0.3l0.2-0.1
		c-0.2,2.2,0.3,2.9-0.1,5.3c0,0.7,0.1-0.4,0.2-0.4c0.2,0.4-0.1,1.2-0.2,1.4c0.4-0.2,0.4-1.2,0.6-0.4c-0.2,0.6,0.4-0.4,0.2,0.6
		l-0.5,0.4c0,0.6,0.4,0.1,0.3,1c-0.3,1-0.5-1.3-0.7,0.3c0,0.8,1,1.8,0.7,3.3c0.2,1.4,0.8-0.7,0.6,1.2l0.4-1.2
		c0.1,0.3,0.4,0.1,0.2,0.9c-0.2,0.2-0.5,0.7-0.6,1.2c0.5-1.7,0.5,1.6,1.1,0l-0.1,0.6c0-0.1,0.1-0.1,0.1,0v0.8
		c0.1-0.5,0.3-1.7,0.6-1.1v1.2c0.3-0.3,0.4,0.1,0.6,0.1l0.8-3.4c-0.2,0.1-0.3,0.6-0.5,0.4c-0.1-0.9,0.4-0.7,0.2-1.6l-0.2,0.4
		c0.1-0.1,0.1-0.2,0.1,0c0.1,0.3-0.1,0.4-0.2,0.4c-0.3-0.3,0-1.2,0.2-1.4c0-1.1-0.5-0.3-0.6-0.5c0.5-0.5,0.1-1.9,0.4-2.5l-0.3,0.4
		c-0.3-0.9,0-1.6,0.2-2.1l-0.3,0.2c0.1-1.2-0.7-1.8,0.3-2.7l-0.2,0.1c0-0.5-0.2-1.2,0.1-1.7c-0.1,0-0.2-0.1-0.2-0.3
		c0.4-0.2,0.1-0.8,0.1-1.5c-0.1,0.5-0.6,0.3-0.7,0.8c-0.4-1.1,0.6-1,0.6-1.9c-0.2-0.6-0.3,0.5-0.5,0.6c0.3-1.4-0.9-3,0.1-3.9
		l0.2,0.6c0.2-0.6,0.2-0.9,0.2-0.8c0,0.2-0.1,0.2-0.2,0.3c-0.4-1.7,0.8-2.7,0.7-4.4c-0.2,0.1-0.2,0.4-0.4,0.4
		c-0.1-0.8,0.9-0.7,0.6-2l-0.2,0.2c-0.1-0.4,0.2-0.7,0.3-0.7c-0.8-0.1,0.2-2.7-0.8-3.7c0.4-0.6,0.9-2.4,0.7-3
		c-0.4-0.8-0.5,0.7-0.9,0.4c0-0.6,0.5-0.9,0.4-1.9c0.4,0,0.8,1.9,1.1,0.1l-0.2-0.3c0,0.2,0.1,0.4,0,0.7c-0.3,0.5-0.3-0.3-0.4-0.4
		l0.2-1.9c0.5-0.1,0.3,1,0.4,1.1c0-1.5-0.6-3.3-0.2-4.7l-0.2,0.1c0.5-1.7-0.8-1.1,0-2.4c-0.1-0.7-0.5,0.2-0.5-0.9
		c0-0.3,0.2-0.1,0.2-0.1c0.2-1.4-0.4-0.6,0.1-1.9l-0.5,0.3c0.4-1.5,1.3-3,1.1-4.4c-0.4,0.1-0.4,0.9-0.7,1.2c0.7-1.7,0.2-4.2,0.6-5.8
		c0.3,0.5,0.7-0.8,1,0.3c-0.5,0.3-0.2,0.8-0.3,1.3c1.1-0.9-0.4-3.8,0.5-4L46.1,88c0.1-0.2,0.4-0.9,0.5-0.4l-0.2-1.8
		c-0.3,0.6-1,1.9-0.6,2.4c-0.4,0.5-0.2-0.7-0.7-0.3c0.6-1.2-0.2-0.7-0.1-2c0.5,0.6,0.7-1.2,1-1.2c-0.1-0.4,0.2-1.3,0.4-1.7
		c0.1-0.7-0.3-2.4-0.1-3.5c-0.2,0.4-0.4,1.1-0.7,1.1c0.2-0.6,0.2-1.2-0.2-1.3c-0.8,2,0.9,0.7,0.4,2.5c-0.5,0.4-0.6,0.9-0.7,1.9
		c-0.2-0.4-0.4-0.2-0.7-0.4c0-0.1,0.1-0.1,0.1-0.2h0.1l0.4,0.4c0.7-1.1,0-2.9,0.5-4.2c0.3-0.6,0.9-0.1,1-1.6l0.3,1.2
		c-0.2-1.4,0.3-0.3,0.4-1.4l-0.3,0.4c0-0.7,0-0.9,0.2-1.3l-0.5,0.6c-0.1-0.4-0.1-1.1,0.2-1.1C46.6,76,46.5,76,46.5,76
		c0.1-0.1,0.1-0.2,0.1-0.7c-0.1,0.3,0,0.4-0.2,0.4c0.1-0.9-0.1-0.9-0.2-0.9c0-0.5,0.1-1.2,0-1.5c0.3-0.6,0.5-1.7,0.7-2l0,0l0.3-1.4
		C47.2,70.2,47,69.9,46.9,69.5z M42.8,68.9l0.2-0.4v0.7L42.8,68.9z M45.5,96L45.5,96l-0.1,0.8l-0.1-0.1L45.5,96z M45.8,89.5
		l-0.2,0.4v-0.7L45.8,89.5z M44.7,90.1L44.7,90.1L44.7,90.1L44.7,90.1z M41.2,124.9L41.2,124.9v0.4C41.2,125.1,41.2,125,41.2,124.9z
		 M41.2,121l-0.2,0.6c0,0,0,0-0.1,0C41.1,121.4,41.1,121.3,41.2,121L41.2,121z M42.6,98c-0.1,0.2-0.1,0.3-0.2,0.3c0-0.1,0-0.2,0-0.3
		C42.5,98,42.6,98,42.6,98z M43.2,107.3C43.2,107.3,43.3,107.3,43.2,107.3C43.3,107.3,43.2,107.3,43.2,107.3z M46,60.6l-0.1,0.5
		c0-0.1,0-0.2,0-0.3L46,60.6L46,60.6C45.9,60.6,45.9,60.6,46,60.6L46,60.6L46,60.6L46,60.6z M45.9,60.1c0-0.2,0-0.5,0.1-0.7
		c0,0.2,0,0.3,0.1,0.4C46,59.9,45.9,60,45.9,60.1z M45.8,53.5c0-0.3,0.1-0.6,0.1-0.9C46.1,53,46,53.3,45.8,53.5z M45.4,32
		c0.1,0.1,0.1,0.2,0.1,0.4C45.4,32.5,45.4,32.3,45.4,32z M43.9,68.2L43.9,68.2c-0.4,0.4-0.2,1.6-0.3,1.9
		C43.5,69.5,43.4,68,43.9,68.2z M42.2,96.5L42.2,96.5L42.2,96.5L42.2,96.5z M43.3,107.2c0-0.1-0.1-0.2-0.1-0.3
		c0.1-0.1,0.2-0.2,0.2,0.1v-0.5C43.6,107,43.5,107.1,43.3,107.2z M46.4,62.4c-0.2-0.2-0.2-0.5-0.1-0.8c0.1,0.2,0.1,0.5,0.2,0.9
		C46.5,62.6,46.4,62.5,46.4,62.4z M46.2,57.4L46.2,57.4C46.2,57.5,46.2,57.5,46.2,57.4L46.2,57.4z M46.2,49.8
		c0.1-0.7,0.2-1.4,0.3-2.1h0.1C46.6,48.8,46.5,49.4,46.2,49.8z M46.5,47.7c0-0.1,0-0.2,0-0.3C46.6,47.5,46.5,47.6,46.5,47.7z
		 M45.9,30.9c0.3,0.7-0.3,0.6-0.3,1.3C45.3,31.2,45.9,31.4,45.9,30.9z M42.6,27.4c0.1-0.4,0.3-0.7,0.2-1.1c-0.1,0.1-0.1,0-0.1,0.3
		l-0.1-0.7c0.4-0.8,0.5,0,0.7,0.6c0.1,0,0.1,0.1,0.2,0.2c0,0.1,0,0.2-0.1,0.3c0,0.1,0.1,0.3,0.1,0.3l-0.1,0.1
		c-0.1-0.1-0.1-0.3-0.1-0.4c0-0.2-0.1-0.3-0.1-0.5C42.9,26.4,42.7,27.2,42.6,27.4z M43.4,22.3c0-0.4,0.2-1,0.4-0.5l-0.1,0.4
		C43.6,22.3,43.5,22.2,43.4,22.3z M43.4,35.5c0.2-0.2,0.1,0.2,0.3,0.4L43.5,37C43,36.9,43.5,36.1,43.4,35.5z M43.5,43.9
		c0.3,0,0.2-1.1,0.3-1.2h0.1c0,0.5-0.1,1-0.1,1.5L43.5,43.9z M43.5,45.2c0.1,0.6,0,1.2,0.2,1.5c0,0,0,0,0,0.1
		C43.4,46.6,43.1,45.5,43.5,45.2z M43.1,62.6L43.1,62.6l0.1-0.8l0.1,0.1L43.1,62.6z M42.7,83.7c0,0.1,0,0.2,0.1,0.3h-0.1
		C42.7,83.9,42.7,83.8,42.7,83.7z M42.1,95.8L42.1,95.8l0.1-0.7L42.1,95.8z M42,95.8L42,95.8v0.8l0.1-0.1c0,0,0,0,0,0.1L42,96.7
		v-0.1h-0.1L42,95.8z M41.6,98.9c-0.2-0.8,0.2-1.6,0.5-1.8c0,0.1,0,0.2,0,0.3l-0.2,0.5l0.1-0.2c0,0.1,0,0.1,0,0.2L41.6,98.9z
		 M41.6,109.3c-0.1,0-0.1-0.1-0.1-0.3C41.5,109.1,41.6,109.2,41.6,109.3c0.1,0,0.2,0,0.2,0c0-0.1,0.1-0.2,0.2-0.3
		c0,0.1-0.1,0.2-0.2,0.3c-0.1,0.3-0.1,0.8,0,1l0,0c0,0.2-0.1,0.4-0.1,0.6C41.7,110.3,41.7,109.7,41.6,109.3z M41.1,117.3l-0.1,0.4
		l-0.1-0.6L41.1,117.3z M40.4,125.5l0.1-0.7l0.3,0.4L40.4,125.5z M40.9,129.7c0-0.1,0-0.3,0-0.4l0,0
		C40.9,129.5,40.9,129.6,40.9,129.7z M40.9,128.5c0.1-0.9,0.2-1.9,0.3-2.9l0.1-0.2C41.2,126.4,41,127.6,40.9,128.5z M41.1,128.8
		c-0.2-0.7,0.3-0.6,0.4-1.3C41.8,128.4,41.2,128.2,41.1,128.8z M41.8,127.6c-0.1-0.1-0.1-0.6,0-1C42,127.2,41.9,127.2,41.8,127.6z
		 M42.4,138.3l0.1-0.4c0.1-0.2,0.2-0.1,0.3-0.1C42.8,138.3,42.5,138.8,42.4,138.3z M44.2,132.6c-0.1,0.4-0.4,0.7-0.3,1.2
		c0.1-0.1,0.1,0,0.2-0.3v0.7c-0.4,0.7-0.5,0-0.6-0.7c-0.1,0-0.1-0.1-0.2-0.2c0-0.1,0-0.2,0.1-0.3c0-0.2-0.1-0.3-0.1-0.3l0.1-0.1
		c0.1,0.2,0.1,0.3,0,0.4c0,0.2,0.1,0.4,0.1,0.6C43.8,133.6,44,132.8,44.2,132.6z M44,124.1c-0.3,0.2-0.1-0.2-0.2-0.4l0.3-1.2
		C44.5,122.8,43.9,123.6,44,124.1z M44.5,114.1c0-0.7,0-1.4-0.1-1.6C44.6,112.4,45,113.8,44.5,114.1z M44.4,115.5
		c-0.3,0-0.3,1.1-0.3,1.2c-0.4,0.2-0.2-0.2-0.4-0.7c0.1,0.3,0.4-0.3,0.4-0.9L44.4,115.5z M44.8,90.2L44.8,90.2
		c0.4-0.4,0.2-1.7,0.3-2C45.2,88.9,45.3,90.4,44.8,90.2z M44.6,87.5c0-0.1,0-0.2,0.1-0.3h0.1c0.1-0.2,0-0.5,0.1-0.7
		C45.1,87.2,44.8,87.2,44.6,87.5z M46,74.3L46,74.3L46,74.3L46,74.3c-0.1,0.2-0.3-0.1-0.3-0.5c0.2,0,0.3-0.1,0.4-0.2
		C46.1,73.7,46,74,46,74.3z"/>
	<path class="st0" d="M44.4,128.8c0,0.2,0,0.3,0,0.5C44.4,129.2,44.5,129,44.4,128.8z"/>
	<path class="st0" d="M46.6,85.4c0-0.1-0.1-0.2-0.1-0.2C46.5,85.3,46.5,85.4,46.6,85.4z"/>
	<path class="st0" d="M46.9,83.5L46.9,83.5C46.9,83.6,46.9,83.6,46.9,83.5L46.9,83.5z"/>
	<path class="st0" d="M45.7,20.7c-0.2,0.3,0.1,0.4,0.1,0.7C45.8,21,46,20.3,45.7,20.7z"/>
	<path class="st0" d="M45.4,22.4c0,0.2-0.1,0.4-0.1,0.6C45.3,22.7,45.4,22.5,45.4,22.4z"/>
	<path class="st0" d="M45.2,23c0,0.1,0,0.1-0.1,0.2C45.2,23.1,45.2,23,45.2,23z"/>
	<path class="st0" d="M47.2,50.1v-0.9c-0.1,0-0.1,0.3-0.2,0.4C47,49.8,47.1,50.5,47.2,50.1z"/>
	<path class="st0" d="M47.4,56.2l-0.5,0.5C46.8,56.8,47.2,56.8,47.4,56.2z"/>
	<polygon class="st0" points="47.2,60.5 47.3,59.1 47.2,59.5 	"/>
	<polygon class="st0" points="46.9,64 47,63.1 46.9,63 	"/>
	<path class="st0" d="M45.6,100.3c-0.5-0.6,0.2-1.5-0.3-1.8C45.4,98.9,45.2,100.4,45.6,100.3z"/>
	<path class="st0" d="M44.5,126.1l-0.2,1.4C44.5,126.4,44.6,127.2,44.5,126.1z"/>
	<path class="st0" d="M38.6,138.5c0-0.1,0-0.2,0.1-0.2C38.6,138.1,38.6,138.2,38.6,138.5z"/>
	<path class="st0" d="M38.6,138.5c-0.3,0.8-0.4,2.1-0.5,2.9C38.7,141.2,38.6,139.2,38.6,138.5z"/>
	<path class="st0" d="M39.3,139.2l0.3-1C39.5,138.7,39.2,138.6,39.3,139.2z"/>
	<polygon class="st0" points="39,138.5 39.1,137.9 38.8,138.4 	"/>
	<path class="st0" d="M41.4,86.3l-0.3,0.1C41.2,86.5,41.3,86.4,41.4,86.3z"/>
	<path class="st0" d="M41.3,88.1v0.4C41.4,88.3,41.4,88.2,41.3,88.1z"/>
	<path class="st0" d="M39.8,115.7c0.1-0.3,0.3-0.6,0.4-1C40.1,114.9,39.8,114.9,39.8,115.7z"/>
	<path class="st0" d="M41.5,90.5l0.1-0.3l0,0C41.5,90.2,41.5,90.3,41.5,90.5z"/>
	<path class="st0" d="M40.4,114.4c0,0.1-0.1,0.2-0.1,0.3C40.4,114.6,40.4,114.5,40.4,114.4z"/>
	<path class="st0" d="M38.7,135.5c0.1-0.1,0.2-0.3,0.3-0.4C38.8,135.1,38.7,135.1,38.7,135.5z"/>
	<path class="st0" d="M42.2,29.1c0.1,0,0.1-0.1,0.1-0.2C42.2,28.9,42.2,29,42.2,29.1z"/>
	<path class="st0" d="M46.8,42.5L46.8,42.5L46.8,42.5z"/>
	<path class="st0" d="M42.6,31.1c0-0.2,0-0.3,0-0.5C42.6,30.7,42.6,30.9,42.6,31.1z"/>
	<path class="st0" d="M42,72.8c0,0.1,0.1,0.2,0.1,0.2C42.1,72.9,42.1,72.8,42,72.8z"/>
	<path class="st0" d="M41.8,74.6L41.8,74.6C41.8,74.5,41.8,74.5,41.8,74.6L41.8,74.6z"/>
	<path class="st0" d="M38.3,134.9c0.2-0.2,0-0.4,0-0.7C38.3,134.5,37.9,135.2,38.3,134.9z"/>
	<path class="st0" d="M38.9,133.3c0-0.2,0.1-0.4,0.2-0.6C39,133,38.9,133.2,38.9,133.3z"/>
	<path class="st0" d="M39.1,132.8l0.1-0.1C39.2,132.7,39.1,132.7,39.1,132.8z"/>
	<path class="st0" d="M38.9,133.3c-0.1,0.3-0.1,0.7-0.1,1.2C39,133.9,38.9,133.6,38.9,133.3z"/>
	<path class="st0" d="M38.9,127.7c0.2-0.1,0.6-1.9,0.6-0.4c0,0,0-0.7,0.2-1.1C39.4,126.8,39.1,126.8,38.9,127.7z"/>
	<path class="st0" d="M40.1,124.7c0-0.1,0-0.3,0-0.4C40,124.4,40,124.5,40.1,124.7z"/>
	<path class="st0" d="M40.5,122.7c-0.2,0.2-0.5,0.4-0.6,0.9c0.3-0.2,0.2,0.2,0.2,0.6C40.2,123.8,40.6,123.4,40.5,122.7z"/>
	<path class="st0" d="M40.1,107.1c0-0.2,0-0.8-0.1-0.5l-0.1,0.9C40.1,107.5,40.1,107.2,40.1,107.1z"/>
	<path class="st0" d="M41.3,103.2l-0.5-0.1c-0.1,0.4,0.3,0,0.2,0.7L41.3,103.2z"/>
	<path class="st0" d="M40.2,100.8l0.6-0.5C40.8,100.2,40.4,100.2,40.2,100.8z"/>
	<polygon class="st0" points="40.7,96.7 40.4,98 40.6,97.6 	"/>
	<polygon class="st0" points="41,94.2 41.1,94.3 41.2,93.3 	"/>
	<path class="st0" d="M43.2,60.2c-0.1-0.4,0.1-1.9-0.4-1.7C43.4,59.1,42.7,59.9,43.2,60.2z"/>
	<path class="st0" d="M42.8,33.7l0.1-1.4C42.8,33.4,42.6,32.6,42.8,33.7z"/>
</g>
</svg>
