<?xml version="1.0" encoding="utf-8"?>
<!-- Generator: Adobe Illustrator 22.0.0, SVG Export Plug-In . SVG Version: 6.00 Build 0)  -->
<svg version="1.1" id="Capa_1" xmlns="http://www.w3.org/2000/svg" xmlns:xlink="http://www.w3.org/1999/xlink" x="0px" y="0px"
	 width="200px" height="150px" viewBox="0 0 200 150" style="enable-background:new 0 0 200 150;" xml:space="preserve">
<style type="text/css">
	.st0{fill:#3F3F3F;}
</style>
<g>
	<path class="st0" d="M44.2,142.5l0.1-0.2C44.1,142.4,44.1,142.4,44.2,142.5z"/>
	<path class="st0" d="M41.6,141.8c0.1,0.1,0.2,0.3,0.3,0.3C42,142,41.9,141.9,41.6,141.8z"/>
	<path class="st0" d="M53.7,142.6c0.1,0,0.3,0.1,0.4,0.1C54,142.6,53.8,142.6,53.7,142.6z"/>
	<path class="st0" d="M88.8,143.7c-0.1-0.1-0.2-0.1-0.4-0.2C88.5,143.6,88.5,143.8,88.8,143.7z"/>
	<path class="st0" d="M12.9,146.2c0-0.1-0.1-0.1-0.1-0.1C12.8,146.2,12.8,146.2,12.9,146.2z"/>
	<path class="st0" d="M89.5,142.9c-1.5,0.1-1.6-0.7-2.8-0.2l0.2,0.1c-0.6,0.3-1.3,0.1-1.9,0c0-0.1-0.1-0.2-0.2-0.3c0,0,0,0,0,0
		l0.3,0c0,0-0.1-0.1,0-0.1l0.5,0c-0.3-0.1-1-0.2-0.7-0.6l0.7-0.1c-0.2-0.3,0.1-0.4,0.1-0.6l-2.1-0.7c0.1,0.2,0.4,0.3,0.2,0.5
		c-0.6,0.1-0.4-0.3-1-0.1l0.2,0.2c0-0.1-0.1-0.1,0-0.1c0.2-0.1,0.3,0,0.3,0.2c-0.2,0.3-0.7,0.1-0.9-0.2c-0.7,0-0.2,0.5-0.3,0.6
		c-0.3-0.5-1.1-0.1-1.6-0.3l0.3,0.3c-0.5,0.3-1,0-1.3-0.1l0.1,0.3c-0.7-0.1-1.1,0.8-1.6-0.1l0.1,0.2c-0.3,0.1-0.8,0.2-1,0
		c0,0.1-0.1,0.2-0.2,0.3c-0.2-0.3-0.5-0.1-0.9,0c0.3,0.1,0.2,0.5,0.5,0.7c-0.2,0.1-0.4,0.1-0.5,0.1c0,0,0,0,0-0.1c0,0,0,0,0,0
		c-0.2-0.2-0.3-0.5-0.6-0.5c-0.3,0.2,0.3,0.2,0.4,0.4c-0.4-0.1-0.8,0.1-1.2,0.3c-0.4,0-0.7,0-1.1,0c0,0-0.1-0.1-0.1-0.1l0.4-0.3
		c-0.3-0.2-0.5-0.2-0.5-0.1c0.1,0,0.1,0.1,0.2,0.1c-1,0.5-1.6-0.7-2.7-0.5c0.1,0.2,0.2,0.2,0.2,0.4c-0.5,0.2-0.5-0.9-1.3-0.5
		l0.2,0.2c-0.3,0.1-0.5-0.2-0.4-0.2c0,0.8-1.7,0-2.2,1c-0.4-0.4-1.5-0.7-1.8-0.5c-0.3,0.3-0.1,0.4,0.1,0.5c-0.3,0-0.6,0-0.9,0
		c0.2-0.4,0.9-0.7,0-0.9l-0.1,0.2c0.1,0,0.3-0.1,0.4-0.1c0.3,0.2-0.2,0.3-0.2,0.4l-1.1-0.1c-0.1-0.4,0.6-0.4,0.7-0.5
		c-0.9,0.1-2,0.8-2.8,0.5l0,0.1c-0.5-0.1-1.1,0-1.6,0c0,0.1-0.1,0.2,0,0.3c0,0,0,0,0,0l-0.6-0.3l0.1,0.2c-0.3,0-0.6,0-0.9,0
		c0,0,0-0.1,0-0.2c0,0.1-0.1,0.1-0.1,0.1c-0.8-0.2-1.6-0.5-2.2-0.2c0.4,0.1,0.5,0.2,0.5,0.4c-0.3-0.1-0.6-0.1-0.9-0.1
		c0,0,0,0.1,0,0.1c-0.5,0-1.1-0.1-1.7-0.2c0.1,0,0.1,0.1,0.1,0.1c-0.3,0.1-0.6-0.1-0.8-0.2l0,0.3c-0.1,0-0.2-0.1-0.3-0.1
		c0-0.3-0.5-0.6,0.1-0.8c0.2,0.5,0.5,0.1,0.8,0.2c-0.6-1-2.3,0.6-2.5-0.3l-0.1,0.4c-0.2,0-0.6-0.3-0.3-0.4l-1.1,0.3
		c0.2,0.1,0.5,0.3,0.7,0.4c-0.4-0.1-0.8-0.2-1.1-0.1c-0.2-0.1,0.4,0.3,0,0.4c-0.1,0-0.1-0.1-0.2-0.1c0-0.1-0.1-0.1-0.1-0.2
		c0.1,0,0.1-0.1,0.1-0.1c-0.1,0-0.1,0.1-0.1,0.1c-0.3-0.2-0.8,0.1-0.9-0.5l-0.6,0.3l-0.1-0.4c-0.5,0.7-0.8-0.3-1.6-0.1
		c0,0.1,0.1,0.1,0.1,0.2c-0.3-0.1-0.9-0.1-0.4-0.3c-0.4,0-1.9-0.2-1.2,0.2c0-0.2,0.5,0,0.8,0c0,0.3-0.4,0.2-0.7,0.4c0,0,0,0-0.1,0
		l0,0c0,0-0.1,0.1-0.1,0.1c0,0-0.1-0.1-0.2-0.1l-0.1,0.2c0,0,0,0,0,0c0,0-0.1-0.1-0.1-0.1l0.1,0.1c-0.8-0.3-1.5-0.1-2.1-0.5
		c0,0.1-0.2,0.2-0.4,0.2l0-0.4l-0.9,0l0.4,0.6c-0.9,0.1-1.6-0.6-2.4-0.7c-0.2,0.7-1.5-0.3-2.2,0.4l0.6,0.2c-1.3-0.1-1.5,0.3-2.7,0.1
		c1-0.2,1-0.1,2.5-0.7c-1.5,0.3-2.6-0.4-3.9,0c0.1,0.2,0.4,0.3,0.1,0.4c-0.3-0.4-1.3,0-1.1-0.4c-0.4,0.1-0.5,0.5-0.8,0.6l-1.4-0.5
		l0,0.1c-2.4,1-4.5-0.6-6.9-0.2l0,0.2l-0.6-0.3c0.5,0.2-0.2,0.3-0.2,0.5l-1.5-0.5c0,0.2,0.1,0.6,0.4,0.6c-0.6,0.2-1.2-0.2-1.7-0.3
		l0.2,0.2L19,142l0,0.3c-0.9-0.1-1.9,0.2-2.2-0.3l0.1,0.4l-0.9-0.4l0.5,0.3c-1,0.1-2.6-0.2-2.8-0.2l0.1,0.2c-0.2,0.1-0.3,0-0.5-0.1
		l0.1,0.2c-1.5-0.1-1.9,0.5-3.7,0.2c-0.5,0.1,0.3,0.1,0.3,0.2c-0.3,0.2-0.9,0-1-0.1c0.1,0.4,0.9,0.3,0.3,0.6
		c-0.4-0.2,0.3,0.4-0.4,0.3l-0.3-0.5c-0.4,0.1-0.1,0.4-0.7,0.3c-0.7-0.2,0.8-0.6-0.3-0.6c-0.6,0-1.2,1.2-2.2,0.9
		c-0.9,0.3,0.5,0.8-0.8,0.7l0.8,0.3c-0.2,0.1-0.1,0.4-0.6,0.3c-0.2-0.2-0.5-0.4-0.8-0.5c1.2,0.4-1.1,0.6,0.1,1.1l-0.4,0
		c0.1,0,0.1,0.1,0,0.1l-0.6,0c0.3,0.1,1.2,0.2,0.8,0.5l-0.8,0.1c0.2,0.3-0.1,0.4,0,0.6l2.4,0.5c-0.1-0.2-0.4-0.3-0.3-0.4
		c0.6-0.1,0.5,0.3,1.1,0.1L6.1,147c0,0.1,0.1,0.1,0,0.1c-0.2,0.1-0.3,0-0.3-0.2c0.2-0.3,0.8-0.1,1,0.1c0.8,0,0.2-0.5,0.3-0.6
		c0.4,0.5,1.3,0,1.8,0.2l-0.3-0.3c0.6-0.4,1.1-0.1,1.4,0l-0.1-0.3c0.8,0,1.2-0.8,1.8,0.1l-0.1-0.2c0.3-0.1,0.8-0.3,1.2,0
		c0-0.1,0.1-0.2,0.2-0.3c0,0,0,0,0,0c0.1,0.1,0.1,0.1,0.2,0.1c-0.1,0.1-0.1,0.2,0,0.2c1.4-0.3,2.7,0,4.3-0.2l0.5,0.5l0-0.3
		c0.8-0.1,0.2,0.5,0.6,0.5c-0.2,0-0.2-0.1-0.2-0.1c0.9,0.4,0.5-0.3,1-0.2c-0.2-0.4-0.9-0.1-0.7-0.6c0.9,0.4,2.2,0.2,2.4,1
		c1.6-0.3,3.7,0.2,5,0.2c0.2-0.1-0.1-0.1,0-0.2c0.6,0.5,1.8-0.4,1.8,0c0.3-0.1,0.4-0.4,0.4-0.5c0.4,0.2,0.8,0.3,1.2,0.3l-0.3-0.1
		l0-0.1l0.5,0.2l0,0c1.1,0.1,2.4-0.1,3.4,0.4c-0.5-0.2,0-0.5-0.1-0.6c0.6,0.6,1.7,0.6,2.7,0.5c0-0.1,0.1-0.3-0.1-0.4l0.6,0.3
		l-0.1-0.2c1-0.2,2.2,0.5,2.8,0.2c-0.4-0.1-0.4-0.2-0.5-0.4c0.2,0,0.5,0,0.7,0c0.3,0.3,0.9,0.2,1.4,0.1c0,0,0.1,0,0.1,0c0,0,0,0,0,0
		c0.1,0,0.2-0.1,0.3-0.1c0.1,0,0.3,0.1,0.4,0.1l0-0.2c0.2,0,0.4,0.1,0.5,0.3l0.2-0.4c0.2,0.1,0.6,0.3,0.3,0.4l1.2-0.2
		c-0.1-0.1-0.2-0.1-0.4-0.2c0.4,0,1.1,0.3,1.6,0.2c0.2,0.1-0.3-0.2-0.1-0.3c0.1,0,0.2,0,0.2,0.1c0.1,0.3,0.3,0.3,0.5,0.3l0.1,0
		c0,0,0,0,0,0c0.2,0,0.3,0,0.4,0.4l0.5-0.3l0.1,0.4c0.4-0.8,0.7,0.3,1.4,0c0-0.1-0.1-0.1-0.1-0.2c0.2,0.1,0.8,0.1,0.4,0.3
		c0.4,0,1.7,0.1,1.1-0.3c0.1,0.2-0.5,0.1-0.7,0c0-0.3,0.4-0.3,0.6-0.5c0,0.1,0.1,0.2,0.4,0.3l-0.1-0.1c0.1,0,0-0.1,0-0.1l0,0.1
		l-0.1-0.1c0,0,0.1,0,0.1,0c0,0,0,0,0,0l0,0c0.3,0,0.5,0,0.7,0.2l-0.2-0.3c0.6,0.1,1.1,0,1.5,0.3c0-0.1,0.1-0.2,0.4-0.2l0,0.4l0.8,0
		l-0.4-0.6c0.6-0.1,1.1,0.2,1.6,0.4l0,0c0,0,0,0,0,0c0.2,0.1,0.3,0.1,0.5,0.1c0-0.1,0.1-0.2,0.1-0.2l0.2,0.1c-0.1,0-0.1-0.1,0-0.2
		c0.4,0,1.2,0.3,1.6-0.2l-0.5-0.2c1.1,0.1,1.3-0.4,2.4-0.2c-0.9,0.3-0.9,0.1-2.2,0.8c1.3-0.4,2.3,0.3,3.5-0.2
		c-0.1-0.1-0.3-0.2-0.2-0.3l0.2,0.1l0,0c0.3,0.1,0.9-0.1,0.8,0.3c0.2-0.1,0.3-0.3,0.4-0.4c0,0,0.1,0.1,0.2,0.1c0,0,0.2-0.1,0.3-0.2
		l1,0.4l0-0.1c0.1-0.1,0.3-0.1,0.4-0.2c0.2,0.1,0.5,0.2,0.6,0.3c0.2-0.1-0.1-0.2-0.2-0.2l0,0.1c-0.1,0-0.2-0.1-0.2-0.2
		c1.9-0.5,3.6,0.7,5.5,0.3l0-0.2l0.3,0.2c-0.1,0-0.3,0.1-0.1,0.1l0.3,0l0.1,0c0,0,0,0-0.1,0l0.3,0c0-0.1-0.2-0.1-0.3-0.2
		c0,0-0.1,0-0.1,0c0.1-0.1,0.2-0.1,0.3-0.2c0.1,0,0.2,0,0.3,0l1.1,0.4c0-0.1,0-0.3-0.1-0.4c0.1,0,0.3,0,0.4-0.1
		c0.3,0.1,0.6,0.2,0.8,0.3l-0.2-0.2l0.5,0.2l0-0.3c0.7,0.1,1.7-0.2,1.9,0.3l-0.1-0.4c0,0,0.1,0,0.1,0l0.7,0.3l-0.5-0.3
		c0.2,0,0.3,0,0.5,0c0.1,0,0.2,0,0.3,0c0.7,0.1,1.5,0.3,1.6,0.3l-0.1-0.2c0.1-0.1,0.3,0,0.4,0.1l-0.1-0.3c1.3,0.1,1.7-0.4,3.2-0.1
		c0.4,0-0.2-0.1-0.2-0.2c0.2-0.2,0.7,0,0.9,0.1c-0.1-0.4-0.7-0.3-0.2-0.6c0.2,0.1,0.1-0.1,0.1-0.2c0.1,0,0.1,0,0.2,0
		c0-0.1,0-0.1,0-0.1c0,0,0.1,0,0.1,0l0.2,0.5c0.3-0.1,0.1-0.4,0.6-0.3c0.6,0.3-0.8,0.5,0.2,0.7c0.3,0,0.6-0.4,1.1-0.7
		c0.2,0.2,0.3,0.3,0.8,0.3c-0.1-0.1-0.8-0.2-0.8-0.4c0.3-0.1,0.6-0.2,0.9-0.1c0.3-0.1,0.3-0.2,0.3-0.3c0.3,0,0.6,0.1,1,0.1
		c-0.1-0.2-0.1-0.3,0-0.4c-0.3,0-0.6,0-1,0c0,0,0.2,0,0.5,0l-0.4-0.2c0,0,0,0,0.1,0c-0.1,0-0.2-0.1-0.3-0.1l-0.1,0
		c0.2-0.1,0.1-0.4,0.6-0.3c0,0,0,0,0,0c0,0.1,0.1,0.1,0.2,0.2l-0.1,0c0,0,0.1,0,0.1,0c0.1,0.1,0.3,0.2,0.4,0.2
		c-0.1-0.1-0.2-0.1-0.3-0.2c0.9,0.3,0.6,0.8,1.7,0.6c0.4-0.4,0-0.3-0.1-0.7c0.3,0.1,1.2-0.4,1.6,0l-0.8,0.1c0.5,0.1,1.1,0,1.4,0.1
		c0-0.1-0.1-0.2-0.2-0.2c0.4,0.1,1,0,1.2,0.2l0.1-0.5c-0.2,0.2-1,0.4-1.1,0.1C88.4,142.8,89.2,143,89.5,142.9z M81.3,143.5
		c-0.1-0.1-0.1-0.2-0.1-0.2l0.3,0.3L81.3,143.5z M69.9,145.6C69.9,145.6,69.9,145.6,69.9,145.6C69.8,145.6,69.8,145.6,69.9,145.6
		C69.8,145.6,69.9,145.6,69.9,145.6C69.9,145.6,69.9,145.6,69.9,145.6z M78.8,142.3c0-0.1,0-0.1-0.2-0.1l0.4-0.1
		c0.3,0.3,0.2,0.4-0.1,0.5c0,0-0.1,0-0.2,0c0.1,0,0.2,0,0.2,0c0,0-0.1,0-0.1,0c-0.1,0-0.1,0-0.2,0c0-0.2-0.4-0.4-0.5-0.6
		C78.3,142.2,78.5,142.5,78.8,142.3z M78.2,142.8C78.2,142.9,78.2,142.9,78.2,142.8c-0.1,0.1-0.1,0.1-0.2,0.2l0-0.1
		C78.1,142.8,78.2,142.8,78.2,142.8z M72.9,142.8C72.9,142.8,72.9,142.8,72.9,142.8c-0.3,0-0.6,0-0.9-0.1
		C72.2,142.4,72.6,142.8,72.9,142.8z M68.1,143c-0.1,0.1-0.1,0.2-0.1,0.2c-0.1-0.1-0.3-0.1-0.4-0.2l0.1-0.3
		C67.7,143,67.9,143,68.1,143z M66.8,142.8c-0.3,0-0.5,0.1-0.7,0.1c-0.1,0-0.1,0-0.2,0C66.1,142.7,66.6,142.5,66.8,142.8z M63.1,145
		c-0.1,0-0.1,0-0.2,0l-0.2-0.1c0.1,0,0.1-0.1,0.2-0.1C63,144.9,63.1,145,63.1,145z M57.8,143.4c0.1,0,0.2,0.1,0.3,0.1
		C58,143.5,57.9,143.4,57.8,143.4z M62.1,145.2c-0.1,0-0.2,0-0.3,0C62,145.1,62,145.1,62.1,145.2z M57.8,143c0.1,0,0.2-0.1,0.3-0.1
		L57.8,143c-0.1,0.1-0.2,0.1-0.2,0.2c-0.1,0-0.2-0.1-0.2-0.1L57.8,143z M55.8,142.9L55.8,142.9C55.9,142.9,55.8,142.9,55.8,142.9
		L55.8,142.9z M34.1,144.6l-0.3-0.1l0,0C34,144.5,34,144.6,34.1,144.6C34.1,144.6,34.1,144.6,34.1,144.6z M36.3,145.2L36.3,145.2
		L36.3,145.2L36.3,145.2C36.4,145.2,36.4,145.2,36.3,145.2z M35.5,143.7c0,0,0,0.1-0.1,0.2c0,0,0,0,0,0c-0.3-0.1-0.5-0.3-0.7-0.4
		c0,0,0,0,0,0C34.9,143.5,35.3,143.7,35.5,143.7z M36.4,145.1c0,0-0.1,0-0.1-0.1l0-0.1C36.4,145,36.5,145,36.4,145.1
		C36.5,145,36.5,145,36.4,145.1z M42.5,144C42.5,144,42.5,144,42.5,144C42.5,144,42.5,144,42.5,144C42.5,144,42.5,144,42.5,144
		c0,0-0.1,0-0.1,0c0,0,0,0,0,0C42.4,144,42.5,144,42.5,144z M51.3,142.7c0.1,0.1,0.1,0.1,0.1,0.1c-0.1,0-0.2,0-0.3,0
		C51.2,142.8,51.3,142.8,51.3,142.7z M41.8,142.4c0.1,0,0.1,0,0.2,0L41.8,142.4c-0.2,0.1-0.3,0.2-0.4,0L41.8,142.4z M39.8,142.4
		c0.2,0.2,0.7,0.2,0.8,0.5l-0.7-0.2c0.1,0,0.1,0.1,0,0.1C39.8,142.7,39.6,142.4,39.8,142.4z M39.9,142.9c-0.1,0.1-0.1,0.1-0.2,0.1
		c0,0-0.1-0.1-0.1-0.2C39.7,142.9,39.8,142.9,39.9,142.9z M35.7,143.5L35.7,143.5c-0.1-0.1-0.1-0.1-0.1-0.2L35.7,143.5z M26.4,145.4
		c-0.1,0-0.2,0-0.4,0c0,0,0-0.1,0-0.1c0.1,0,0.2-0.1,0.3-0.1c0-0.1,0.1-0.1,0.2-0.1c0,0-0.1,0.1-0.2,0.1
		C26.4,145.2,26.4,145.3,26.4,145.4C26.4,145.4,26.5,145.4,26.4,145.4C26.5,145.5,26.5,145.5,26.4,145.4
		C26.5,145.5,26.4,145.4,26.4,145.4z M22.6,144.8c-0.1-0.4,0.1-0.3,0.4-0.4c0,0,0,0.1,0.1,0.1c0.1,0.1,0.2,0.2,0.4,0.2
		c0.1,0,0.1,0.1,0.2,0.1l-0.2,0.3C23.4,144.8,22.7,144.8,22.6,144.8z M30.5,142.9c-0.4-0.2-0.6,0.3-0.9-0.2
		C30,142.2,30.3,142.7,30.5,142.9z M29.3,143.1c-0.6,0.1,0.3,0.4-0.1,0.6l0.3,0c-0.5,0.3-0.4-0.3-0.8-0.2l0.3-0.1
		c0.2-0.3-0.4-0.2-0.4-0.4C28.9,142.8,29.6,143,29.3,143.1z M23,144.3C23,144.3,23,144.3,23,144.3C23,144.4,23,144.4,23,144.3
		C23,144.3,23,144.3,23,144.3z M17.8,144.8l0.7,0.2c-0.2,0-0.5-0.1-0.1,0.2c-0.2,0.1-0.4-0.1-0.7-0.1c0-0.1-0.1-0.1-0.2-0.2
		C17.7,144.9,17.8,144.9,17.8,144.8z M16.8,144.9c0,0-0.1,0-0.2,0C16.7,144.9,16.7,144.9,16.8,144.9c0.1,0.1,0.1,0.1,0.2,0.2
		l-0.2,0.1c-0.3,0-0.5-0.1-0.8-0.1c-0.1,0-0.3-0.1-0.4-0.1C16,144.8,16.4,144.6,16.8,144.9z M15.7,143c-0.4,0.2-0.4,0.1-0.7,0.1
		C15.1,143,15.5,143,15.7,143z M15.1,142.9c-0.6,0.3-0.5-0.3-0.9-0.4C14.7,142.2,14.6,142.8,15.1,142.9z M11.8,145
		c-0.1,0.1-0.2,0.1-0.3,0.1c-0.1,0-0.2,0.1-0.4,0.1c0,0,0,0,0,0c0,0,0,0,0,0c0,0,0,0,0,0c0-0.1,0.1-0.1,0.1-0.2c0.1,0,0.2,0,0.2,0.1
		C11.6,145,11.7,145,11.8,145L11.8,145z M8,144.5C8,144.5,8,144.5,8,144.5C8,144.5,8,144.5,8,144.5C8,144.5,8,144.6,8,144.5
		c0.1,0.2,0.1,0.2,0.1,0.3c0,0,0,0,0,0L8,144.8l0,0c-0.2,0-0.4-0.1-0.3-0.2C7.7,144.5,7.8,144.5,8,144.5c-0.1,0-0.2,0-0.3-0.1
		c0,0,0,0,0,0L8,144.5z M10.6,145.8c-0.1-0.1-0.2-0.2-0.2-0.2c0.2,0.1,0.4,0.2,0.7,0.2L10.6,145.8z M11.4,145.7l-0.1-0.1
		c0,0,0,0,0,0c0.1,0.1,0.3,0.2,0.4,0.3C11.6,145.8,11.5,145.7,11.4,145.7z M14.2,145.8C14.3,145.8,14.3,145.8,14.2,145.8
		C14.3,145.8,14.2,145.8,14.2,145.8c-0.2-0.1-0.4-0.2-0.5-0.2c0,0,0-0.1-0.1-0.2l0.1-0.1c-0.1,0-0.1,0-0.2-0.1
		c0-0.1-0.1-0.1-0.2-0.1c0.4-0.2,0.6-0.1,0.7,0.1c0,0,0,0-0.1,0c0,0,0.1,0.1,0.1,0.1c0.1,0.1,0.2,0.2,0.4,0.3c0,0,0,0.1,0,0.1
		C14.5,145.8,14.4,145.8,14.2,145.8z M14.8,145.6c0.2-0.2-0.4-0.2-0.5-0.4c0.1,0,0.3,0,0.4,0c0.1,0.1,0.3,0.2,0.4,0.3
		C15,145.6,14.9,145.6,14.8,145.6z M16.4,145.8l-0.2-0.4l0.5,0L16.4,145.8z M17.1,145.3c0.1,0,0.3,0,0.4,0c0.1,0,0.1,0,0.2,0
		c0.1,0,0.1,0,0.2,0C17.7,145.3,17.4,145.3,17.1,145.3z M23.5,145.4c0.1-0.1,0.2-0.2,0.3-0.3c0.1,0.1,0.2,0.2,0.4,0.2
		C24,145.4,23.8,145.4,23.5,145.4z M24.5,145.5c0.1,0,0.1,0,0.2,0c0.2,0,0.3,0.1,0.5,0.1c-0.1,0-0.1,0.2,0,0.5
		C24.9,146,24.3,145.7,24.5,145.5z M25.4,145.6c0.2,0,0.4,0,0.5,0c0.1,0.1,0.3,0.1,0.4,0.2C26.1,146,25.6,145.7,25.4,145.6z
		 M31.9,146.4l-0.2-0.1C32.2,146.1,32,146.2,31.9,146.4l0.3,0.2C31.9,146.5,31.9,146.5,31.9,146.4z M33.1,145.8
		c-0.1,0.3-0.8,0.2-1,0.1C32.4,145.9,33.2,145.8,33.1,145.8z M33.5,145.2c-0.2-0.1-0.2-0.1-0.2-0.2c0,0,0.1,0,0.1-0.1
		C33.5,145,33.6,145.1,33.5,145.2z M36.8,145.4C36.8,145.4,36.9,145.4,36.8,145.4c0-0.1,0-0.1,0-0.2c0-0.1,0-0.1,0-0.2c0,0,0,0,0,0
		c0,0,0,0,0,0c0.2,0.2,0.4,0.3,0.7,0.6C37.1,145.9,36.9,145.7,36.8,145.4z M37.3,146.1c-0.1,0-0.1,0.1-0.2,0.1L37.3,146.1
		c0.3-0.2,0.3-0.8,0.8-0.2L37.3,146.1z M39.9,146.2C39.9,146.2,39.9,146.2,39.9,146.2C39.9,146.2,39.9,146.2,39.9,146.2
		C39.9,146.2,39.9,146.2,39.9,146.2z M51.5,146.1c-0.1,0-0.1,0-0.2,0L51.5,146.1c0.2-0.1,0.3-0.2,0.3,0L51.5,146.1z M53.3,146
		c-0.2-0.2-0.7-0.2-0.7-0.5c0.2,0.1,0.5,0.2,0.8,0.3C53.3,145.9,53.3,145.9,53.3,146z M59.2,145.9C59.2,145.9,59.2,145.9,59.2,145.9
		C59.2,145.9,59.2,145.9,59.2,145.9L59.2,145.9z M74.5,144.8c0.3-0.2,0.4-0.1,0.6-0.1C75,144.8,74.7,144.9,74.5,144.8z M75,145
		c0.6-0.3,0.5,0.3,0.8,0.4C75.3,145.6,75.4,145.1,75,145z"/>
	<path class="st0" d="M88,144.2c0.2,0,0.8,0.2,0.5-0.1C88.2,144,88.2,144.2,88,144.2z"/>
	<path class="st0" d="M87.2,143.9c-0.2,0-0.4-0.1-0.5-0.2C86.9,143.9,87.1,143.9,87.2,143.9z"/>
	<path class="st0" d="M87.2,143.9c0.2,0,0.5,0,0.8-0.1C87.6,143.7,87.5,143.8,87.2,143.9z"/>
	<path class="st0" d="M64.1,146.3l-0.4-0.5C63.6,145.8,63.7,146.2,64.1,146.3z"/>
	<polygon class="st0" points="61.1,146.2 62.1,146.3 61.8,146.2 	"/>
	<path class="st0" d="M51.7,146.7c-0.1-0.1-0.2-0.2-0.3-0.3C51.4,146.4,51.5,146.6,51.7,146.7z"/>
	<path class="st0" d="M41,146.3c-0.1,0-0.2,0-0.3-0.1C40.7,146.4,40.8,146.4,41,146.3z"/>
	<path class="st0" d="M77,141.7c0,0.1,0.1,0.1,0.1,0.1C77.1,141.7,77.1,141.6,77,141.7z"/>
	<path class="st0" d="M75.7,142c0.1,0,0.2,0,0.3,0C76,142,75.9,142,75.7,142z"/>
	<path class="st0" d="M29.6,146.5L29.6,146.5c0,0-0.1,0-0.1,0L29.6,146.5z"/>
	<path class="st0" d="M74.1,142.1l0.9,0.1C74.3,142.1,74.7,141.9,74.1,142.1z"/>
</g>
</svg>
