<?xml version="1.0" encoding="utf-8"?>
<!-- Generator: Adobe Illustrator 22.0.0, SVG Export Plug-In . SVG Version: 6.00 Build 0)  -->
<svg version="1.1" id="Capa_1" xmlns="http://www.w3.org/2000/svg" xmlns:xlink="http://www.w3.org/1999/xlink" x="0px" y="0px"
	 width="200px" height="150px" viewBox="0 0 200 150" style="enable-background:new 0 0 200 150;" xml:space="preserve">
<style type="text/css">
	.st0{fill:#F5F5F5;}
</style>
<g>
	<g>
		<path class="st0" d="M108.3,89.3C108.3,88.8,108.3,88.8,108.3,89.3C107.8,89.3,108.3,89.3,108.3,89.3z"/>
		<path class="st0" d="M108.3,89.3c0,0.9,0.9,1.3,1.3,1.3C110,87.9,108.7,88.8,108.3,89.3z"/>
		<path class="st0" d="M109.6,86.2l-0.4-0.9C109.6,85.7,109.1,86.6,109.6,86.2z"/>
		<polygon class="st0" points="108.7,88.4 108.7,87.5 108.7,87.5 		"/>
		<path class="st0" d="M79.7,85.7l-0.4,1.3C79.7,86.6,79.7,86.2,79.7,85.7z"/>
		<path class="st0" d="M79.7,81.3C80.1,81.3,80.1,81.3,79.7,81.3C80.1,81.3,80.1,81.3,79.7,81.3z"/>
		<path class="st0" d="M80.6,85.7L80.6,85.7C81,85.7,81,85.7,80.6,85.7z"/>
		<path class="st0" d="M95.3,89.3c0-0.4,0-0.9,0-1.8C94.9,88.4,94.4,89.7,95.3,89.3z"/>
		<path class="st0" d="M78.8,68.3l0.4-0.4C79.3,67.4,78.8,67.9,78.8,68.3z"/>
		<path class="st0" d="M83.7,71C83.7,71,83.7,71.4,83.7,71c0,0,0-0.4,0.4-0.9L83.7,71z"/>
		<path class="st0" d="M82.4,85.3v-0.4V85.3L82.4,85.3z"/>
		<path class="st0" d="M79.7,81.3L79.7,81.3L79.7,81.3z"/>
		<path class="st0" d="M85.1,71.4C85.1,71.4,85.5,71.4,85.1,71.4C85.5,71.4,85.5,71.4,85.1,71.4z"/>
		<path class="st0" d="M95.3,87.1v0.4C95.3,87.1,95.3,87.1,95.3,87.1z"/>
		<path class="st0" d="M106,89.7c0-0.4,0-0.9,0-0.9C106,89.3,106,89.7,106,89.7z"/>
		<path class="st0" d="M51.1,75c0-0.4,0-0.4,0-0.4V75z"/>
		<path class="st0" d="M106.9,87.5c0.9-1.8,0.9-0.4,0.9-0.4c-0.9-0.9,0.4-4-0.9-3.1v0.4c-0.9,1.3-0.9-1.3-1.3-1.3
			c0.4-0.4,0.4-0.9,0.4-1.3c-1.8,0.9-2.2-0.4-4,0l0.4-1.8l-0.4,1.3c-0.9,0.4,0.4-2.2,0-2.2v0.4c0-1.8-0.9,1.3-0.9,0.4
			c-0.4,1.8,0.4,0.9-0.4,2.7c0-1.8-1.3-1.3-0.4-4.9c-1.8,0.9-2.7-1.8-3.6-2.7c-0.4,0.4,0,0.4-0.4,0.9c0.4-2.2-1.8,0.9-1.3-0.9
			c-0.4,0.4-0.9,1.8-1.3,2.2c0-0.9,0-1.3-0.4-1.8v0.4v0.4v-0.9l0,0c-0.9-0.9-1.8-0.9-1.8-3.1c0,1.3-0.9,2.2-0.9,2.7
			c0.4-3.1-0.4-3.6-1.3-3.6c0,0.4-0.4,0.9-0.4,1.3v-1.3v0.9c-0.9,0-0.9-3.1-1.8-2.2c0,0.4,0,0.9-0.4,1.8c-0.4-0.4-0.9-0.4-1.3-1.8
			v0.4c-0.4,0,0-0.4-0.4-0.9L84.2,71c0-0.9-0.9-0.4-0.9-1.3c0.4,0,0.9,0.4,0.9,0.4l-0.9-0.4l0,0l0,0l-0.4-0.4c0-0.4,0-1.3-0.4-0.9
			c0-0.4,0,1.3-0.4,1.3l0,0c0.9-2.2,0-0.9,0-2.2h0.4c0,0,0,0-0.4-0.4c0-0.4,0-0.4,0.4-0.9c0,0,0.4,0,0.4,0.4c1.3,0,0.9-0.4,1.3-0.4
			l0,0c-0.9-0.9,1.3,0-0.4-1.3c-1.3-0.4,0.9,0.9-1.3,0l0.4-0.4c-1.3-0.4-0.4,0.4-0.9,0.9c0,0.4,0.4-0.4,1.8,0.4
			c-0.4,0.4-1.3,0.4-2.7,0c0-0.4,0-0.4-0.4-0.4l0,0c0,0,0,0-0.4,0c0,0,0-0.4,0.4-0.9c0,0-0.4,0-0.4-0.4c0.9,0,1.8,0,1.3-0.9
			l-1.3-1.3c1.8,0.4,4.5,2.2,4.5,1.3l-1.3-0.4c-0.4-0.4-0.4-0.4-0.4-0.4c-0.9-0.4-2.2-0.4-3.1-0.9c-2.2-1.8,1.8-0.4,2.7-0.4
			c-0.4,0-0.4,0-1.3-0.4c0-1.3,3.1,0,4-0.4c-0.9-0.9-0.9,0-2.7-0.9c0.9,0-0.4-1.3,1.3-0.4c-2.2-1.3,0.4-0.9-2.2-1.3
			c-0.4-1.8,2.7-1.8,4.5-2.2c-0.9-0.4-1.3-0.4-1.8-0.9c0,0.4-1.3,0.4-2.7,0c-0.9-0.9,1.8,0.4,1.3,0c-0.4,0-0.9,0-1.8-0.4
			c-0.9-0.9,0.9,0,1.3-0.4l0.4,0.4c1.8,0,4,1.8,4,0.9c-1.3-0.9-0.9-0.4-2.7-1.8c0.9,0-0.4-1.3,1.3-0.4v0.4c0.4,0,0.9-0.4,1.3-0.4
			c-0.4,0-0.9-0.4-0.9-0.4c0.9,0,0.9-0.4,1.8,0l-1.8-1.3c0.4,0.4,0.4,1.3-0.4,0.4c-1.3-0.9-0.4-0.9-0.4-1.3
			c-0.9,0.4-3.6-0.9-3.1,0.4h0.4c0.9,1.3-1.3,0.4-1.8,0.9c-0.4-0.4-0.9-0.9-1.3-0.9c0.9,1.8-0.9,2.2-0.4,3.6L77,52.7l1.3,0.9
			c0.4,0.9-1.8-0.9-1.8-0.4H77c-1.8-0.4,0.9,0.9,0.4,1.3c1.3,0.4,0.9-0.4,2.7,0.9c-1.8-0.4-1.8,1.3-4.9-0.4c0.4,1.8-2.2,2.2-3.1,3.1
			c0.4,0.4,0.4,0,0.9,0.4c-2.2-0.4,0.4,1.8-0.9,0.9c0,0,0,0.4,0.4,0.4c0,0-0.4,0-0.4,0.4s0,0.9-0.4,1.3c0,0,0,0-0.4,0.4
			c0-0.9-0.9,0,0-1.8c-0.4,0.4-1.3,2.2-1.3,2.2v-2.7v0.4c-3.1,3.6-2.2-4-4.5-2.7L65,58.5v-1.3c0,0.9-0.4,1.3-0.9,1.8l-0.4-2.2
			c-0.4,0.9-0.9,2.7-0.4,2.2c-0.9,0.9-0.4-1.3-0.9-1.3v0.9v-0.9l-0.4,1.3c-0.4-0.9-1.8,0-0.9-1.8l-0.4,1.8v-1.8v1.3
			c-0.9,0-1.3-1.8-1.3-1.8v0.9c-0.4,0.4,0,0,0-0.4l-0.4,0.9c-0.4-0.4-0.9,0-1.3,0.4c0,0-0.9,0-1.3,0s-0.9-0.4-1.8-0.9
			c-0.9,0,0.4,0.4,0.4,0.9c-0.4,0.9-1.3,0-1.8-0.9c0.4,1.8,1.3,1.3,0.4,2.7c-0.4-0.9,0.4,1.8-0.9,1.3c0-0.9-0.4-1.3-0.4-2.2
			c-0.9,0.4,0,1.8-1.3,1.8c-0.9-0.4-0.4-0.9-0.4-1.8c0.4-0.4,0.4-1.3-0.9-0.9c-0.9,0.4-1.3,1.8-1.3,3.6c0,0.4,0,0.4,0,1.3
			c0,0.4,0,0.4-0.4,0.9v0.4v0.4c0,0.4,0,0.9,0,1.3c0,0.4,0,0.9,0,1.3c0,0.4,0.4,0.9,0.4,1.3c0,0.4,0.4,0.4,0.4,0.9
			c0.9,0.4,1.3,0,1.3,0c0-0.4,0.4-0.9,0.4-0.9c0.4-0.4,0.4-0.9,0.9-0.4c0-0.4,0-0.9,0-1.3l0,0c0,0,0.4,0,0.4,0.4v0.4l0,0l0.4,0.4
			l0,0c0,0,0,0.4,0.4,0.9l0,0l0,0l0,0c0,0.4,0,0.9,0,0.9l0,0c0,0.4,0,0.4,0,0.9c0,0.4,0,0.4,0,0.9l0,0l0,0l0,0v-0.4
			c0-0.4,0-0.4-0.4,1.8v-0.9c0.4-0.4,0.9-0.9,0.9,0.4c0-0.4,0.4-0.9,0.4-0.9c-0.4,1.3,0.4,0.4,0.9,0.4c0-0.4,0.9-2.2,0.4-2.7
			c1.3-1.8-0.4,2.2,0,2.2c0.4-0.9,0-1.3,0.4-1.8c0.4,1.3,3.1-3.6,2.2,0l-0.9,0.9c0,0.9,0,0.9,0,0.4v-0.4c1.3-1.8,0.4,3.1,1.3,2.7
			c0-0.9,0-0.9,0.4-1.8c0.4-0.4-0.9,3.6,0,2.7v-0.9c0.4-0.4,0,0.9,0,0.9c1.3-3.1,1.3,0.4,3.1-3.1c0,0.4,0,0.9,0,1.3l0,0
			c0,0.4-0.9,0.9,0,1.3c0,0.4,0.4,0.9,0.9,0.4l0.4-0.4h0.4c-0.4,0.9-0.9,1.3-0.9,2.2h-0.4c0.4,0,0.9,0.4,0.4,0.4l-1.8-0.9v0.4
			l2.7,0.9c0,0.9-2.7,0-3.6,0.4c2.7,1.3-1.3,0.4,0.9,2.2h0.9c-0.9,0.4,0.9,1.3-0.4,1.8c-0.4-0.9,0-0.9-2.2-2.7
			c0.9,1.3-2.2,0.9-0.9,2.7c0.9,0.4,1.3,0,1.8,0.9c-1.8-0.4-0.4,0.9-1.8,0c0.4,0.4,2.2,1.3,2.2,1.3h-2.7h0.4c3.6,3.1-4,1.8-2.7,4.5
			l0.9,0.4h-1.3c0.9,0,1.3,0.4,1.8,0.9l-2.2,0.4c0.9,0.4,2.7,0.9,2.2,0.4c0.9,0.9-1.3,0.4-1.3,0.9H56h-0.9l1.3,0.4
			c-0.9,0.4,0,1.8-1.8,0.9l1.8,0.4h-1.8H56c0,0.9-1.8,1.3-1.8,1.3h0.9c0.4,0.4,0,0-0.4,0l0.9,0.4c-0.4,0.9,1.8,2.2,0,2.7
			c0,0.4,0.4,0,0.9,0c0.9,0.4,0,0.4-0.4,0.4c1.8,0.4,1.3,0,2.7,0.4c-0.9,0,1.8,0.4,0.9,0.9l-2.2-0.4c0.4,0.4,1.8,0.4,1.3,0.9
			c-0.9,0-2.2-1.3-2.7-0.9c0,0.4,4.5,2.2,3.1,2.7c0.9,0.9,3.6,0.9,2.7,1.3h1.8c0.4,0.4,1.8,0.4,0.9,0.9c-0.9,0-1.8-0.4-2.2,0
			c1.8-0.4,2.2,1.3,4.5,1.3v0.4h0.4v0.4c0.4,0,0.9-0.4,2.2,0l0.4,0.4c1.3,0.4,1.8,0.4,2.7,0.9l2.7-0.9c-0.9,0-1.3,0-1.8-0.4
			c-0.4-0.4,1.3,0,0.4-0.4H73c0.4,0,0.4,0,0.4,0c0.4,0.4,0,0-0.9,0c-1.3-0.4-0.4-0.4,0.4-0.4c0-0.4-2.2-0.9-2.2-0.9
			c2.2,0.4,0-0.9,1.3-0.9l-1.3-0.4c-1.3-0.9,0-0.9,0.4-0.9l-0.9-0.4c0.4-0.4-3.1-1.8,0.9-0.9h-0.9c-0.4-0.4-0.9-0.9,0.4-0.9
			c-0.4,0-0.9-0.4-0.9-0.4c1.3,0.4,0.4,0,0.4-0.4c-0.4,0-2.2-0.4-2.7-0.4c-1.8-1.3,2.2,0.4,2.2,0c-0.9-0.4-1.3,0-1.8-0.4
			c1.3-0.4-4-2.7,0-1.8l0.9,0.9c0.9,0,0.9,0,0.4,0H69c-1.8-1.3,3.1,0,2.7-1.3c-0.9,0-0.9,0-1.8-0.4c-0.4-0.4,3.6,0.9,2.7,0h-0.9
			c-0.4-0.4,0.9,0,0.9,0c-3.1-1.3,0.4-1.3-3.1-3.1c1.8,0.4,3.6,0,2.7-0.4c-1.8-0.9-2.2-0.4-4-1.3c0-0.4,1.8,0.4,1.3-0.4
			c1.8,0.9,3.1,2.2,4.5,1.8L73,92c0,0,0.4,0.4,0,0.4c-1.3,0-1.3-0.4-1.8-0.9l0.9-0.4c1.8,0.9,1.3,0.9,1.8,1.3c0-0.9-2.7-2.7-0.9-2.7
			l-0.9-0.4c1.8,0-3.1-1.8,0-1.3c-0.4-0.4-1.8-0.9-1.8-1.3l0.9,0.4c0.9-0.4-1.8-0.9,0.4-0.9l-1.8-0.9c1.8,0,5.4,0.9,4.9-0.4
			c-1.3-0.4-1.3,0-2.7-0.4c3.1,0.4,1.3-1.8,3.1-1.8c1.3,0.9,3.1,0.9,4,1.8c-1.8-0.9-0.9,0-1.3,0c4,1.3,0-1.8,1.3-1.3c0,0,0,0,0,0.4
			V83c0,0,0.4,0,0.9,0.4L79.3,83l0,0c0.4,0,0.9,0.4,1.3,0.4l-0.4-1.3l0,0c0-0.4,0.4-0.9,0.4-0.9c0,0.4,0,0.4,0,0.4c0-0.4,0,0,0-0.9
			c0.4,0.9,0.9-2.2,1.3-1.8c0-0.4,0.4-0.9,0.9-1.3c-1.3,3.1-0.4,4-0.9,5.8l0,0v1.3c0-0.4,0.4-0.9,0.9-1.3l0,0
			c0.4-0.4,0.9-3.6,1.3-2.2v0.9c0,0,0-0.4,0.4-0.9v0.9c1.8-2.7,0.4,2.2,1.3,0.9c-0.4,0-0.4,0,0-0.9c0.4-0.4,0.4,0,0,0.4v-0.4
			l0.4,2.2c0.4-0.9-0.4-1.3,0.4-2.7c0.9-1.3,0.4,0.4,0.4,0.4c-0.4,0.9-0.9,1.3-0.9,1.8c0-0.4,0.9-0.9,0.9-1.8c0,0.9,0.4,1.8,0.4,3.1
			c0.4-0.4,0-0.9,0-0.9v0.4c0-0.4,0.9-2.2,0-1.3c0.9-2.7,0.9-0.4,1.3-0.9v-2.2c2.7-3.1,2.7,1.3,3.6,1.8c-0.4,0.9-0.4,0-1.3,1.8
			c0.4,1.3,0.4,0.9,0.9,1.3l0,0c0.9-0.9,0.4,1.3,1.3-0.4c0.4-1.3-0.9,0.9,0-1.3l0.9,0.4c0.4-1.3-0.9-0.4-0.9-0.9
			c-0.4,0,0.4,0.4-0.4,1.8c-0.9-0.4-0.4-1.8,0-4.5c0.4-1.8,0.9-1.3,1.3-1.3c-0.4,2.7,0,4,1.3,3.1l0.9-1.8c0,1.8-1.8,4.9-0.9,4.9
			l0.4-1.3c0.4-0.4,0.4-0.4,0.4-0.4c0-0.9,0-2.2,0.4-3.6c1.3-2.7,0.4,1.8,0.9,2.7c0-0.4,0-0.4,0-1.3c1.3-0.4,0.9,3.1,1.3,4
			c0.9-0.9-0.4-0.9,0.4-2.7c0,0.9,0.9-0.4,0.4,0.9c0.9-2.2,0.9,0,0.9-2.2c1.8-0.4,2.2,2.2,3.1,4c0-0.9,0.4-1.3,0.4-1.8
			c-0.4,0-0.9-0.9-0.4-2.7c0.9-0.9,0,1.8,0.4,1.3c0-0.4-0.4-0.9,0-1.8c0.9-1.3,0.4,0.9,0.4,0.9l-0.4,0.4c0.4,1.8-0.9,4.5,0,4
			c0.9-1.3,0.4-1.3,0.9-3.1c0,0.9,1.3-0.9,0.9,0.9H106c0,0.4,0.4,0.9,0.4,1.3C106.5,88.4,106.5,87.9,106.9,87.5c0,0.9,0.4,0.9,0,2.2
			l0.9-1.8C106.9,88.8,106.5,88.8,106.9,87.5z M81.9,56.3L81.9,56.3l-1.3-0.9L81.9,56.3z M80.6,59.8l0.4,0.4L80.6,59.8L80.6,59.8z
			 M49.8,67C49.8,67,50.2,67,49.8,67c0.4,0.9,0.4,1.3,0.9,1.8c0,0,0,0-0.4-0.4c0,0,0,0,0-0.4c0,0,0-0.4,0,0c0,0,0,0,0,0.4l0,0l0,0
			l0,0l0,0l0,0l0,0l0,0l0,0C49.8,67.4,49.8,67.4,49.8,67z M50.2,68.3L50.2,68.3L50.2,68.3L50.2,68.3L50.2,68.3L50.2,68.3z
			 M50.2,68.8L50.2,68.8L50.2,68.8L50.2,68.8z M50.2,68.8L50.2,68.8L50.2,68.8L50.2,68.8z M50.2,68.8L50.2,68.8L50.2,68.8L50.2,68.8
			L50.2,68.8L50.2,68.8z M50.2,68.8C50.2,68.8,50.2,68.3,50.2,68.8C50.2,68.3,50.2,68.3,50.2,68.8C50.2,68.3,50.2,68.3,50.2,68.8
			C50.2,68.3,50.2,68.8,50.2,68.8z M50.2,68.8L50.2,68.8L50.2,68.8L50.2,68.8L50.2,68.8z M50.2,68.8L50.2,68.8L50.2,68.8L50.2,68.8z
			 M50.2,68.8L50.2,68.8L50.2,68.8L50.2,68.8z M50.2,68.8L50.2,68.8L50.2,68.8z M50.2,67.9C50.2,67.4,50.2,67.9,50.2,67.9L50.2,67.9
			z M50.2,68.8L50.2,68.8L50.2,68.8L50.2,68.8z M51.1,71L51.1,71L51.1,71L51.1,71z M49.8,68.3L49.8,68.3L49.8,68.3L49.8,68.3z
			 M49.4,68.3L49.4,68.3L49.4,68.3L49.4,68.3L49.4,68.3L49.4,68.3L49.4,68.3L49.4,68.3L49.4,68.3L49.4,68.3L49.4,68.3L49.4,68.3z
			 M49.8,68.3L49.8,68.3L49.8,68.3z M51.1,70.5C50.7,70.5,50.7,70.5,51.1,70.5C50.7,70.5,50.7,70.5,51.1,70.5
			C50.7,70.5,50.7,70.5,51.1,70.5z M51.1,71L51.1,71L51.1,71L51.1,71z M52,69.7C52,70.1,52,70.1,52,69.7c-0.9,1.8-0.9,2.7-0.9,3.1
			c0-0.4,0.4-1.8,0-0.9c0,0.4,0,0.4,0,0.4s0,0,0,0.4C51.1,71,51.1,70.5,52,69.7C52,70.1,52,69.7,52,69.7C52.5,69.2,52,69.7,52,69.7
			l0.4-0.4L52,69.7C52,70.1,52,70.1,52,69.7z M57.4,71.4c-0.9,2.2-0.4-0.4-0.9,0c0.4-0.9,0.4-0.4,0.4-0.9L57.4,71.4z M54.3,96.9
			c-0.9-0.9,1.3,0,1.8,0C56.9,97.8,54.7,96.4,54.3,96.9z M56.9,97.3c-0.4-0.4-0.4-0.4,0-0.4C57.8,97.3,57.4,97.3,56.9,97.3z M61,104
			L61,104c0.9,0,1.3,0,1.8,0.4C62.3,104.5,61.4,104.5,61,104z M67.6,94.2c0-0.4,0-0.9-0.4-0.9C68.1,93.3,69.4,94.6,67.6,94.2z
			 M72.1,86.6L72.1,86.6h-0.4l0,0H72.1z M77.5,82.6L77.5,82.6c-0.4,0.4-0.9,0-0.9,0C76.6,83,77,83,77.5,82.6l-0.9,0.9
			c0.4-0.4,0.4,0,0.4,0c-0.4,0-0.9,0-0.9,0c0-0.4,0-0.4,0-0.9c0.4,0,0.4,0,0.9,0.4C76.6,82.6,77,82.6,77.5,82.6L77.5,82.6z
			 M69.9,82.1C69.9,82.6,69.9,82.6,69.9,82.1C69.9,82.6,69.9,82.6,69.9,82.1C69.9,82.6,69.9,82.6,69.9,82.1L69.9,82.1z M70.8,82.6
			L70.8,82.6L70.8,82.6z M69.9,79c0.4,0,0.9,0.4,1.3,0.4c0,0,0,0,0,0.4C70.8,79.5,70.3,79.5,69.9,79z M76.1,77.2c0,0,0-0.4,0.4-0.4
			H77c0,1.8,1.3,0,1.3,1.8l0,0c0,0,0,0-0.9,0C77.9,78.1,76.6,77.7,76.1,77.2z M76.1,80.8L76.1,80.8c0,0,0,0-0.4,0l0,0v-0.4
			C76.1,80.8,76.1,80.8,76.1,80.8z M76.6,80.4L76.6,80.4L76.6,80.4L76.6,80.4z M76.6,80.4c0,0-0.4,0-0.4-0.4s0-0.9,0-1.3
			c0.4,0,0.9,0.4,0.9,0.4C76.6,79.9,76.6,80.4,76.6,80.4z M70.8,69.7C70.8,69.7,70.8,70.1,70.8,69.7C70.8,70.1,70.8,70.1,70.8,69.7
			C70.8,70.1,70.8,69.7,70.8,69.7L70.8,69.7z M75.2,68.3C75.7,68.3,75.7,68.3,75.2,68.3C75.7,68.8,75.7,68.8,75.2,68.3
			C75.7,68.8,75.7,68.8,75.2,68.3C75.7,68.8,75.7,68.8,75.2,68.3C75.7,68.3,75.7,68.3,75.2,68.3L75.2,68.3z M71.7,69.7L71.7,69.7
			C71.2,70.1,71.2,70.1,71.7,69.7C71.2,69.7,71.7,69.7,71.7,69.7L71.7,69.7z M72.6,78.1L72.6,78.1C73,78.1,73,78.1,72.6,78.1V79
			V78.1z M78.4,79c0,0-0.4,0-0.4-0.4C77.9,78.6,77.9,78.6,78.4,79C78.4,78.6,78.4,78.6,78.4,79z M77.9,79.5
			C77.9,79,77.9,79,77.9,79.5C77.9,79,77.9,79,77.9,79.5L77.9,79.5z M78.8,68.8c0,0,0-0.4,0-0.9V68.8c-0.4-0.4-0.4-0.9-0.4-0.9
			c0.4-0.4,1.3-0.4,1.8-0.4C79.7,67.9,79.3,67.4,78.8,68.8z M72.1,65.2L72.1,65.2L72.1,65.2L72.1,65.2z M73.4,78.1L73.4,78.1
			c0,1.8,0,0.9,0.4,0h0.4v0.4c-0.4,0-0.4,0,0,0.4c0,0.4,0,0.9,0,0.9c-0.4,0-0.9,0-1.3,0c0,0,0,0-0.4,0C72.6,79.5,73,79.5,73.4,78.1z
			 M73.4,82.6C73.4,82.6,73.4,82.1,73.4,82.6C73.4,82.1,73.4,82.6,73.4,82.6c-0.4,0-0.4-0.4-0.9-0.4v-0.4
			C73,81.7,73.4,82.1,73.4,82.6C73.4,82.1,73.4,82.1,73.4,82.6C73.4,82.1,73.4,82.1,73.4,82.6C73.9,82.1,73.9,82.1,73.4,82.6
			c0.4,0,0.4,0.4,0.4,0.9c-0.4,0-0.4-0.4-1.3-0.4C73.9,83,73.9,83,73.4,82.6z M77,80.8c0,0,0.4-0.4,0.4-0.9c0-0.4,0-0.4,0-0.4l0,0
			l0.4,0.4c0,0.4,0,0.4-0.4,0.9H77z M83.7,71.4c-0.4,0.4-0.4,0-0.4-0.4C83.3,71.4,83.3,71.4,83.7,71.4z M81.5,68.8L81.5,68.8
			L81.5,68.8L81.5,68.8z M81.5,68.8L81.5,68.8v-0.9c0,0,0.4,0,0.4,0.4L81.5,68.8z M81.9,67.4c-0.9,1.3-0.4,0-0.4-0.9
			C81.5,67.4,81.5,67.4,81.9,67.4z M80.6,67L80.6,67L80.6,67L80.6,67z M79.7,66.1C80.1,65.6,80.1,66.1,79.7,66.1
			C80.1,66.1,80.1,66.1,79.7,66.1z M79.7,66.1L79.7,66.1c-1.8-0.4-1.3-1.3-1.3-1.3c0.4,0,1.3,0.4,1.8,0.4
			C80.1,65.2,79.7,65.6,79.7,66.1z M78.8,62.1c-0.4,0-0.4,1.3,0.4,1.8c0.4,0,0.4,0.4,0.4,0.4l-0.4-0.4c-0.4,0-0.4-0.4-0.9-0.4h-0.4
			h0.4c0.4,0,0.4-0.4,0-0.4c-0.9-0.4-0.9,0-1.3,0c-1.3-1.3,3.6,0.9-0.9-1.8C76.6,61.2,77.9,61.6,78.8,62.1z M74.3,63
			C74.3,63,73.9,63,74.3,63C73.9,63,73.9,63,74.3,63C73.9,63,74.3,63,74.3,63z M68.5,64.7c0.9-1.3,0.4,0,0.4,0.9l0,0
			C68.5,65.2,68.1,66.5,68.5,64.7z M66.8,67.4L66.8,67.4c0.9-1.3,0.4-0.9,0.4-2.2c0.4-0.4,0.4,0.9,0.4,0.9c-0.4,0.4-0.4,1.3-0.9,1.8
			c0,0-0.4,0,0,0.4l0,0l0,0l0,0l0,0C66.3,69.7,67.2,67.4,66.8,67.4z M58.3,59.8c0.9-0.9,0,1.3,0,1.8C57.4,62.5,58.3,60.3,58.3,59.8z
			 M57.8,62.5c0.4-0.4,0.4-0.4,0.4,0C57.8,63.4,57.8,63,57.8,62.5z M60.5,73.2c0.4-1.3,0-1.3,0-1.3c0.4-1.8,0.4-0.9,0.9-1.8
			c-0.4,0.4-0.4,1.8,0,1.3L60.5,73.2z M61,73.2c0.4,0,0.9,0,0.9-0.4C61.8,73.7,60.5,75,61,73.2z M61.8,74.6L61.8,74.6L61.8,74.6
			L61.8,74.6z M61.8,74.1c0-0.9,0-1.3,0.4-2.2c0.4,0,0,1.8,0.4,1.3l0,0v0.4l-0.9-0.4c0.4,0,0.4,0.4,0.4,0.4s0,0,0,0.4
			C62.3,74.1,62.3,74.1,61.8,74.1z M61.4,77.2c0-1.3,0.4-1.3,0.9-1.8l0.9,0.9l0,0l-0.4-0.4l0.4,0.4c0,0.4,0,0.4-0.4,0.9
			C62.3,77.2,62.3,77.7,61.4,77.2L61.4,77.2C61.8,77.2,61.4,77.2,61.4,77.2z M61.4,78.1L61.4,78.1C61.8,77.7,61.8,77.7,61.4,78.1
			L61.4,78.1C61.8,78.1,61.8,78.1,61.4,78.1C61.8,78.1,61.8,78.1,61.4,78.1C61.8,78.1,61.8,78.1,61.4,78.1
			C61.8,78.1,62.3,78.6,61.4,78.1z M63.6,79.9c-1.3,0,1.8,1.3-0.9,0.4C63.2,80.4,63.2,80.4,63.6,79.9c-0.9,0-2.2,0-2.2-0.4
			C61.8,79.5,62.3,79,63.6,79.9z M63.2,88.4L63.2,88.4c0.9,0.4-1.3-0.4-1.3,0v-0.4c-0.9-0.4-0.9,0-1.8-0.4c-0.4-0.4,0.9-0.4,0.9,0
			C61.4,87.9,62.7,87.9,63.2,88.4z M60.1,86.2c-0.9,0,0.9,0.9-0.9,0.4C57.4,85.7,59.6,86.2,60.1,86.2z M67.6,103.6
			c-0.4,0-1.8,0-0.9,0.4C67.2,103.6,67.2,104,67.6,103.6v0.9c-1.8,0-2.2-0.9-2.7-1.3c-0.4,0-0.4,0-0.9-0.4c0,0,0,0,0.4,0l-0.4-0.4
			h0.4c0.4,0.4,0.4,0.4,0,0.4l0.4,0.4C65.9,103.1,66.8,103.1,67.6,103.6z M65.9,98.7c-0.9-0.4-0.4-0.4-0.9-0.4l0.9-0.4
			C68.1,98.7,65.9,98.2,65.9,98.7z M67.2,94.6c-1.3-0.4-1.3,0-1.3,0c-1.8-0.4-0.9-0.4-1.8-0.9c0.4,0.4,1.8,0.4,1.3,0L67.2,94.6z
			 M63.6,84.4c0,0,3.1,0.4,0-0.9l0.9,0.4l0,0h0.9C67.2,85.3,64.5,84.4,63.6,84.4z M63.2,76.8C63.6,76.8,63.6,76.8,63.2,76.8
			L63.2,76.8C63.6,76.8,63.6,76.8,63.2,76.8z M68.5,80.4c0,0,0-0.4,0.9,0c0.4,0,0-0.4,0.4,0C70.8,81.3,69,80.4,68.5,80.4
			C68.5,80.4,68.5,80.8,68.5,80.4L68.5,80.4z M69.4,82.1L69.4,82.1H69H69.4z M72.6,83.5L72.6,83.5l0.9,0.4L72.6,83.5z M75.2,83.9
			c-0.4,0-0.9-0.4-0.9-0.4C74.8,83.5,75.7,83,75.2,83.9C74.8,83.5,74.3,83.5,75.2,83.9z M77,84.8L77,84.8L77,84.8
			C76.6,84.8,77,84.8,77,84.8L77,84.8z M77.9,83.9C77.5,83.9,77.5,83.9,77.9,83.9L77.5,83C77.9,83,77.9,83,77.9,83.9z M85.9,82.1
			l0.4,0.9l0.4-1.3L86.4,83l0,0v0.4L85.9,82.1z M87.7,83.9c-0.9,0.9-0.9-0.9-0.4-2.2v0.9v-1.3L87.7,83.9z M85.9,79.9
			c0-0.9,0-2.2,0.4-4c0.9-0.4,0,1.8-0.4,3.1c0,0.9,0.4-0.4,0.9-0.4L85.9,79.9z M88.2,81.7c0-0.4,0-0.9,0.4-1.8
			C88.6,80.4,88.2,81.3,88.2,81.7z M86.4,74.6l0.9-0.4c0,0,0.4-0.4,0.4,0h-0.4C86.8,75,85.9,77.2,86.4,74.6z M90.9,77.2
			c-0.4,0-0.9,0-0.9,0C90.4,76.3,90.9,76.8,90.9,77.2z M91.7,75.5v-0.9C91.7,75,91.7,75.5,91.7,75.5v0.4
			C90.9,76.8,91.3,76.3,91.7,75.5z M95.8,82.6c-0.4-0.4-1.3,0-1.8,0.4c0,0.4-0.4,0.4-0.4,0.4s0-0.4,0.4-0.4c0-0.4,0.4-0.9,0.4-0.9
			v-0.4v0.4c0,0.4,0.4,0.4,0.4,0c0-0.9,0-0.9,0-1.3c0.9-1.3,0,3.6,1.3-0.9C96.2,80.4,96.2,81.7,95.8,82.6z M98,84.4l0.4-0.9l0,0
			L98,84.4z M102.5,84.8L102.5,84.8l0.4-1.8L102.5,84.8z"/>
		<path class="st0" d="M50.2,67.9L50.2,67.9L50.2,67.9z"/>
		<polygon class="st0" points="49.4,68.3 49.4,68.3 49.4,68.3 49.4,68.3 		"/>
		<path class="st0" d="M50.2,68.3L50.2,68.3L50.2,68.3z"/>
		<path class="st0" d="M50.2,67.4L50.2,67.4L50.2,67.4z"/>
		<path class="st0" d="M50.2,67.4C50.2,67.9,50.2,67.9,50.2,67.4C50.2,67.9,50.2,67.9,50.2,67.4C50.2,67.9,50.2,67.9,50.2,67.4z"/>
		<path class="st0" d="M50.2,67.4L50.2,67.4L50.2,67.4z"/>
		<path class="st0" d="M52.9,73.7L52.9,73.7L52.9,73.7z"/>
		<path class="st0" d="M105.1,91.5C105.1,91.5,105.1,92.9,105.1,91.5C105.6,90.6,105.1,91.5,105.1,91.5z"/>
		<path class="st0" d="M105.1,89.3c0,0,0-0.4,0-0.9C105.1,89.3,105.1,89.3,105.1,89.3z"/>
		<path class="st0" d="M105.1,89.3c0,0,0.4,0,0.9,0C105.6,88.8,105.6,89.3,105.1,89.3z"/>
		<path class="st0" d="M102,87.5c-0.4,1.3-0.9,2.7-0.4,3.1c0-0.9-0.4-1.8,0.9-2.7C102,88.4,101.6,88.4,102,87.5z"/>
		<path class="st0" d="M101.1,86.6L101.1,86.6L101.1,86.6z"/>
		<path class="st0" d="M100.7,85.3c0,0.9-0.4,1.8-0.4,2.2c0.4-0.9,0.4-0.9,0.4-0.9C100.7,86.2,101.1,84.8,100.7,85.3z"/>
		<path class="st0" d="M89.5,90.2H90c0-0.4,0-0.4,0-0.9C90,89.3,89.5,89.7,89.5,90.2z"/>
		<path class="st0" d="M89.5,86.2v-0.9l-0.9,1.8C89.1,87.5,89.5,85.7,89.5,86.2z"/>
		<path class="st0" d="M93.5,75.9L93.5,75.9C93.5,76.3,93.5,76.3,93.5,75.9L93.5,75.9z"/>
		<path class="st0" d="M86.4,89.7l0.4-2.2C87.3,87.1,86.4,88.8,86.4,89.7z"/>
		<polygon class="st0" points="85.1,88.8 85.1,88.4 84.6,87.9 		"/>
		<polygon class="st0" points="83.7,87.1 84.2,86.6 83.7,86.2 		"/>
		<path class="st0" d="M54.3,73.7l-0.4-0.9C54.3,73.7,53.4,74.1,54.3,73.7z"/>
		<path class="st0" d="M87.3,51.8C86.8,51.8,86.8,51.8,87.3,51.8L87.3,51.8z"/>
		<path class="st0" d="M88.6,50.9c-2.2-1.3-1.3,0.4-1.3,0.9C88.2,51.8,88.2,51.4,88.6,50.9z"/>
		<path class="st0" d="M84.6,49.6h-0.9C83.7,49.6,84.6,50,84.6,49.6z"/>
		<polygon class="st0" points="85.5,50.5 85.5,50.9 86.4,51.4 		"/>
		<path class="st0" d="M85.5,63.9c-0.4,0-0.9,0-1.8-0.4C84.6,63.9,85.5,64.3,85.5,63.9z"/>
		<path class="st0" d="M61,77.2c-0.4-0.4-1.3-0.4-1.3-0.4C60.1,77.2,60.5,77.2,61,77.2z"/>
		<path class="st0" d="M83.3,63.4h0.4C83.3,63.4,83.3,63.4,83.3,63.4z"/>
		<path class="st0" d="M87.3,53.6c-0.4,0-0.9-0.4-0.9-0.4C86.8,53.6,87.3,53.6,87.3,53.6z"/>
		<path class="st0" d="M69.4,103.1c-0.4,0-0.4,0-0.4,0C69.4,103.1,69.9,103.1,69.4,103.1z"/>
		<path class="st0" d="M68.1,101.8L68.1,101.8C68.5,101.8,68.5,101.8,68.1,101.8z"/>
		<path class="st0" d="M88.6,54.9C87.7,54.5,89.1,54.9,88.6,54.9C89.1,54.9,90.4,55.4,88.6,54.9z"/>
		<path class="st0" d="M86.8,54.5c0,0-0.4,0-0.9,0C86.4,54.5,86.8,54.5,86.8,54.5z"/>
		<path class="st0" d="M86.8,54c-0.4,0,0,0.4,0,0.4C86.8,54.5,87.3,54,86.8,54z"/>
		<path class="st0" d="M85.1,57.2c0,0,0.4,0.4-0.9,0c1.3,0.4,2.7,1.3,3.1,0.9C86.8,58.1,85.5,58.1,85.1,57.2z"/>
		<path class="st0" d="M83.7,57.6L83.7,57.6C83.7,58.1,83.7,57.6,83.7,57.6z"/>
		<path class="st0" d="M81.9,58.1c0.9,0.4,1.8,0.9,2.2,0.9c-0.9-0.4-0.9-0.4-0.9-0.9C83.3,58.1,81.5,57.2,81.9,58.1z"/>
		<path class="st0" d="M85.5,68.8L85.5,68.8c-0.4-0.9-0.4-0.4-0.4-0.4S85.1,68.8,85.5,68.8z"/>
		<path class="st0" d="M70.8,87.5c0.4,0.4-0.4,0.9,1.3,1.3C69.9,87.5,73.4,88.4,70.8,87.5z"/>
		<path class="st0" d="M68.1,100.4l-0.4,0.4C68.1,100.4,69,100.9,68.1,100.4z"/>
	</g>
	<g>
		<path class="st0" d="M153.3,65.6C153.3,65.6,153.3,65.2,153.3,65.6L153.3,65.6z"/>
		<path class="st0" d="M153.3,65.6c0,0.9,0.4,0.9,0.9,1.3C155.1,64.3,153.8,65.2,153.3,65.6z"/>
		<path class="st0" d="M154.7,62.5v-0.9C154.7,62.1,154.2,63,154.7,62.5z"/>
		<polygon class="st0" points="153.8,64.7 154.2,63.9 153.8,63.9 		"/>
		<path class="st0" d="M130.1,64.3l-0.4,1.3C130.1,65.2,130.1,64.7,130.1,64.3z"/>
		<path class="st0" d="M130.6,60.3L130.6,60.3L130.6,60.3z"/>
		<path class="st0" d="M131,64.3L131,64.3C131.5,64.3,131,64.3,131,64.3z"/>
		<path class="st0" d="M142.6,66.5c0-0.4,0-0.9,0-1.8C142.6,66.1,142.2,67.4,142.6,66.5z"/>
		<path class="st0" d="M132.4,63.9v-0.4C132.4,63.4,132.4,63.4,132.4,63.9L132.4,63.9z"/>
		<path class="st0" d="M130.6,60.3L130.6,60.3L130.6,60.3z"/>
		<path class="st0" d="M135.5,50C135.5,50.5,135.5,50.5,135.5,50L135.5,50z"/>
		<path class="st0" d="M143.1,64.7v0.4C143.1,64.7,143.1,64.7,143.1,64.7z"/>
		<path class="st0" d="M152,66.5c0-0.4,0-0.9,0-0.9C152,66.1,151.5,66.5,152,66.5z"/>
		<path class="st0" d="M107.4,56.3v-0.4C107.4,56.3,107.4,56.3,107.4,56.3z"/>
		<path class="st0" d="M152.4,60.7v0.4c-0.9,1.3-0.4-1.3-0.9-1.3c0.4-0.4,0.4-0.9,0.4-1.3c-1.3,1.3-1.8-0.4-3.1,0.4l0.4-1.8
			l-0.4,1.3c-0.9,0.4,0.4-2.2,0.4-1.8v0.4c0-1.8-0.9,1.3-0.9,0.4c-0.4,1.8,0.4,0.9-0.4,2.7c0-1.8-1.3-1.3,0-4.5
			c-1.3,0.9-2.2-1.8-2.7-2.2c-0.4,0.4,0,0.4-0.4,0.9c0.4-2.2-1.8,0.9-0.9-0.9c-0.4,0.4-0.9,1.8-0.9,2.2c0-0.9,0-1.3,0-1.8v0.4v0.4
			V54l0,0c-0.4-0.9-1.3-0.4-1.3-2.7c0,1.3-0.9,2.2-0.9,2.7c0.9-3.1,0-3.1-0.9-3.1c0,0.4-0.4,0.9-0.4,1.3v-1.3v0.9
			c-0.9,0.4-0.4-3.1-1.3-1.8c0,0.4,0,0.9-0.4,1.8c-0.4-0.4-0.9-0.4-0.9-1.3v0.4l0,0v-0.4l0,0V50v0.4c-0.4,0-0.4,0-0.4,0
			s0,0.4,0.4,0.4v0.4c0-0.9-0.4,0-0.4-1.3c0,0.4-0.4,0.4-0.4,0.4s0,0,0.4-0.4l0,0c0,0,0-0.4,0.4-0.9l-0.4,0.9l0,0l0,0
			c-0.9-0.9,1.3-0.4-0.4-1.3c-0.4,0-0.4,0-0.4,0l0,0l0,0l0,0c0-0.4-0.4,0,0.4-1.8c0.4,0,0.9,0,0.9,0l-1.3-0.4l0,0l0,0l0,0
			c-0.4,0-0.4-0.4-0.4-0.4l0,0c0-0.4,0-0.9-0.4-0.4V46l0,0c0-0.4,0-0.4,0.4-1.3c0,0-0.4-0.9-0.9,0c0,0-0.4,0-0.9,0
			c-0.4-0.9,3.1-0.9,3.6-1.3c-0.9-0.4-0.9,0.4-2.2-0.4c0.9,0-0.4-0.9,0.9-0.4c-2.2-0.4,0-0.9-2.2-0.9c-0.4-1.3,1.8-2.2,3.6-2.7
			c-0.4,0-1.3-0.4-1.8-0.4c0,0.4-0.9,0.9-2.7,0.4c-0.9-0.4,1.8,0,0.9-0.4c-0.4,0-0.4,0-1.8,0c-0.9-0.9,0.9-0.4,0.9-0.4l0.4,0.4
			c1.8-0.4,4,0.9,3.6,0c-1.3-0.9-0.9-0.4-2.7-0.9c0.9,0-0.9-1.3,0.9-0.9v0.4c0.4,0,0.9-0.4,1.3-0.4c-0.4,0-0.9,0-0.9,0
			c0.4,0,0.4-0.4,1.8-0.4l-1.8-0.4c0.9,0.4,0.4,0.9-0.4,0.9c-1.3-0.4-0.4-0.9-0.4-0.9c-0.9,0.9-3.6,0-2.7,0.9h0.4
			c0.9,0.9-1.3,0.9-1.3,1.3c-0.4-0.4-0.9-0.4-1.3-0.4c0.9,1.3-0.4,1.8,0,3.1l-1.8-0.4l1.3,0.4c0.4,0.9-1.8-0.4-1.8,0h0.4
			c-1.8,0,0.9,0.9,0.4,0.9c1.3,0.4,0.9-0.4,2.7,0.4c-1.3,0-1.3,0.9-3.1,0.4l0,0c-0.4,0-0.4,0-0.9-0.4c0.4,0.9,0,1.3-0.4,1.8
			c0,0-0.4,0,0-0.9c-0.4,0.4-0.4,0.9-0.9,1.8c0,0-0.4,0-0.4,0.4v-1.8v0.4c-2.7,3.6-1.3-3.6-3.6-2.2l-0.4,0.9v-1.3
			c0,0.9-0.4,1.3-0.9,1.8v-2.2c-0.4,0.9-0.9,2.7-0.4,2.2c-0.9,0.9-0.4-1.3-0.4-1.3v0.9v-0.9l-0.4,1.3c-0.4-0.9-1.3,0.4-0.9-1.8
			l-0.4,1.8v-1.8v1.3c-0.9,0-0.9-1.8-1.3-1.8v0.9c0,0.4,0,0,0-0.4l-0.4,0.9c-0.9-0.4-1.8,1.8-2.2,0.4c-0.4,0,0,0.4,0,0.9
			c-0.4,0.9-0.4,0-0.4-0.4c-0.4,1.8,0,1.3-0.9,2.7c0-0.9-0.4,1.8-0.4,0.9l0.4-2.2c-0.4,0.4-0.4,1.8-0.9,1.3c0-0.9,1.3-2.2,0.9-2.7
			c-0.4,0-2.2,4.5-2.7,3.1c-0.9,0.9-0.9,3.6-1.3,2.7V50c-0.4,0.4-0.4,1.8-0.9,0.9c0-0.9,0.4-1.8,0.4-2.2c0,1.8-1.3,2.2-1.8,4.5l0,0
			v0.4h-0.4c0,0.4,0.4,0.9-0.4,2.2l-0.4,0.4c-0.4,1.3-0.4,1.8-0.9,2.7l0.4,2.7c0-0.9,0-1.3,0.4-1.8c0.4-0.4,0,1.3,0.4,0.4v-0.9
			c0,0.4,0,0.4,0,0.4c-0.4,0.4,0,0,0-0.9c0.4-1.3,0.4-0.4,0.4,0.4c0.4,0,0.9-2.2,0.9-2.2c-0.4,2.2,0.9,0,0.4,1.3l0.4-1.3
			c0.9-1.3,0.9,0,0.9,0.4l0.4-0.9c0.4,0.4,1.8-3.1,0.9,0.9v-0.9c0.4-0.4,0.9-0.9,0.4,0.4c0-0.4,0.4-0.9,0.4-0.9
			c-0.4,1.3,0,0.4,0.4,0.4c0-0.4,0.9-2.2,0.4-2.7c1.3-1.8-0.4,2.2,0,2.2c0.4-0.9,0-0.9,0.4-1.8c0,1.3,2.7-4,1.8,0l-0.4,0.9
			c0,0.9,0,0.9,0,0.4v-0.4c1.3-1.8,0,3.1,0.9,2.7c0-0.9,0-0.9,0.4-1.8c0.4-0.4-0.9,3.6,0,2.7v-0.9c0.4-0.4,0,0.9,0,0.9
			c1.3-3.1,0.9,0.4,2.7-3.6c-0.4,1.8,0,3.6,0.4,2.7c0.9-1.8,0.4-2.2,1.3-4c0.4,0-0.4,1.8,0.4,1.3c-0.4,1.3-0.9,2.2-1.3,3.1
			c0,0-0.4,0-0.4-0.4l0.4,0.4l0,0l-0.9-0.4c2.7,1.3-1.3,0-0.9,0.9c0.4,0,0.4,0,0.4,0.4c-0.4,0-0.9,0.4-1.3-0.4
			c0,0.4-1.3,0.9,0.4,0.9c-0.9-0.4,0-0.4,0.4-0.4c1.3,0.4,0.4,0.9,1.8,1.3h-0.4l0.9,0.4c-1.3,0-0.9,0.9-2.7,0.4
			c0.4,0,0.4,0.4,0.4,0.4l-1.3-0.9v0.4l2.2,0.9c0,0.9-2.7,0-3.1,0c2.7,1.3-1.3,0.4,0.9,1.8h0.9c-0.9,0.4,0.4,1.3-0.4,1.8
			c-0.4-0.9,0-0.9-1.8-2.7c0.4,1.3-2.2,0.9-0.9,2.2c0.4,0.4,0.9,0.4,1.8,0.9c-1.3-0.4-0.4,0.9-1.8,0c0.4,0.4,1.8,1.3,1.8,1.3h-2.2
			h0.4c2.7,3.1-3.6,1.3-2.7,3.6l0.9,0.4l-1.3-0.4c0.9,0,0.9,0.4,1.8,0.9h-2.2c0.9,0.4,2.2,1.3,2.2,0.9c0.4,0.9-1.3,0.4-1.3,0.4
			l0.9,0.4h-0.9l0.9,0.4c-0.9,0.4,0,1.3-1.8,0.9l1.8,0.9h-1.3l1.3,0.4c0,0.9-1.8,0.9-1.8,0.9l0.4,0.4c0.4,0.4,0,0-0.4,0l0.9,0.4
			c-0.9,0.9,1.3,2.2-0.4,2.7c0,0.4,0.4,0,0.9,0.4c0.4,0.4-0.4,0.4-0.4,0.4c1.3,0.9,1.3,0,2.2,0.9c-0.9,0,1.3,0.4,0.9,0.9l-1.8-0.9
			c0,0.4,1.3,0.9,0.9,0.9c-0.9,0-1.8-1.8-2.2-0.9c0,0.4,3.6,3.1,2.2,3.1c0.4,0.9,2.7,1.3,1.8,1.8h1.3c0.4,0.4,1.3,0.9,0.9,0.9
			c-0.9-0.4-1.8-0.4-1.8-0.4c1.8,0,1.8,1.8,3.6,2.2l0,0h0.4v0.4c0.4,0,0.9-0.4,2.2,0.4V92c0.9,0.4,1.3,0.9,2.2,1.3l2.7-0.4
			c-0.4-0.4-0.9-0.4-1.8-0.9c-0.4-0.4,1.3,0.4,0.4-0.4l-0.9-0.4c0.4,0,0.4,0,0.4,0.4c0.4,0.4,0,0-0.9,0c-0.9-0.9,0-0.4,0.9-0.4
			c0-0.4-1.8-0.9-1.8-1.3c1.8,0.9,0.4-0.9,1.3-0.4l-1.3-0.4c-0.9-0.9,0-0.9,0.4-0.9l-0.9-0.4c0.4-0.4-2.2-2.2,0.9-0.9l-0.4-0.4
			c0-0.4-0.4-0.9,0.4-0.9c-0.4,0-0.9-0.4-0.9-0.4c1.3,0.4,0.4,0,0.4-0.4c-0.4,0-1.8-0.9-2.2-0.9c-1.3-1.3,1.8,0.4,2.2,0
			c-0.9-0.4-0.9-0.4-1.8-0.4c1.3,0-3.1-3.1,0.4-1.8l0.9,0.9c0.9,0,0.9,0,0.4,0h-0.4c-1.3-1.3,2.7,0,2.7-0.9
			c-0.4-0.4-0.9-0.4-1.3-0.4c-0.4-0.4,3.1,1.3,2.2,0l-0.9-0.4c-0.4-0.4,0.9,0,0.9,0c-2.7-1.3,0.9-0.9-2.7-3.1
			c1.8,0.4,3.1,0.4,2.2-0.4c-1.3-1.3-1.8-0.4-3.6-1.3c0-0.4,1.8,0.4,1.3-0.4c1.3,0.9,2.7,2.2,4,2.2l-0.9-0.4c0,0,0.4,0.4,0,0.4
			c-0.9-0.4-0.9-0.4-1.3-0.9l0.9-0.4c1.8,0.9,0.9,0.9,1.3,1.3c0-0.9-1.8-2.7-0.4-2.7l-0.4-0.4c1.8,0-2.7-1.8,0-1.3
			c-0.4-0.4-1.8-0.9-1.8-1.3c0,0,0.4,0.4,0.9,0.4c0.9-0.4-1.3-0.9,0.4-0.9l-1.8-0.9c1.3,0,4.9,0.9,4.5,0c-1.3-0.4-1.3,0-2.2-0.4
			c2.7,0.4,1.3-1.8,2.7-1.8c0.9,0.9,2.7,0.9,3.6,1.8c-1.8-0.9-0.9,0-0.9,0c4,1.3-0.9-2.2,2.2-0.9l-1.3-0.9c0.4,0,1.3,0,1.8,0.4
			l-0.4-1.3c-1.3,0-3.6-0.9-2.2,0c-1.3-0.4-0.9-0.9-2.7-1.3c2.2,0.4-0.9-0.9,0-0.9c1.8,1.3,2.7,0.9,3.6,1.3c-0.4-0.4,0.9-0.4,1.3,0
			c0.4,0-0.9-1.8,0-1.8c0,0-0.4,0-0.9,0v-0.9l0,0l0.4,0.4v0.4c0,0,0-0.4,0.4-0.4l0,0c0,0,0,0,0-0.4l0,0c0,0,0,0,0.4,0l0,0l0,0
			c0.4,0,0.9,0.4,1.3,0.4c0,0.4,0,0.9,0,1.3l0,0v1.3c0-0.4,0.4-0.9,0.9-1.3l0,0c0.4-0.4,0.9-3.6,1.3-2.2v0.9c0,0,0-0.4,0.4-0.9v0.9
			c1.3-2.7,0,1.8,1.3,0.9c-0.4,0-0.4,0,0-0.9c0.4-0.4,0.4,0,0,0.4v-0.4l0.4,2.2c0.4-0.9,0-1.3,0.4-2.7c0.4-1.3,0.4,0.4,0.4,0.4
			c-0.4,0.9-0.9,1.3-0.9,1.8c0-0.4,0.9-1.3,0.9-1.8c0,0.9,0.4,1.8,0,3.1c0-0.4,0-0.9,0-0.9v0.4c0-0.4,0.9-2.2,0-1.3
			c0.9-2.7,0.9-0.4,1.3-0.9v-2.2c2.2-3.6,1.8,0.9,2.7,1.3c-0.4,0.9-0.4,0-1.3,1.8c0,1.3,0.4,0.9,0.9,1.3l0,0
			c0.9-0.9,0.4,1.3,1.3-0.4c0.4-1.3-0.9,0.9,0-1.3l0.4,0.4c0.4-1.3-0.4-0.4-0.9-0.9c-0.4,0,0.4,0.4-0.4,1.8c-0.4-0.4,0-1.8,0.4-4
			c0.4-1.8,0.9-1.8,0.9-1.3c-0.4,2.7-0.4,4,0.9,3.1l-3.1-2.2c-0.4,1.8-1.3,4.9-0.9,4.5l0.4-1.3c0.4-0.4,0.4-0.4,0.4-0.4
			c0-0.9,0.4-2.2,0.4-3.1c1.3-2.7,0.4,1.8,0.9,2.2c0-0.4,0-0.4,0-1.3c0.9-0.4,0.4,3.1,0.9,3.6c0.4-0.9,0-0.9,0.4-2.7
			c0,0.9,0.9-0.4,0.4,0.9c0.9-2.2,0.9,0,0.9-2.2c1.3-0.4,1.8,1.8,2.2,3.6c0-0.9,0.4-1.3,0.4-1.8c-0.4,0-0.4-0.9-0.4-2.7
			c0.4-0.9,0,1.8,0.4,1.3c0-0.4,0-0.9,0.4-1.8c0.9-1.3,0.4,0.9,0.4,0.9l-0.4,0.4c0,1.8-0.9,4,0,4c0.9-1.3,0.4-1.3,0.9-3.1
			c0,0.9,1.3-0.9,0.4,0.9h-0.4c0,0.4,0.4,0.9,0.4,1.3c0-0.4,0.4-0.9,0.4-0.9c0,0.4,0.4,0.4,0,1.8l0.9-1.8c-0.4,0.9-0.9,0.9-0.4-0.4
			c0.4-1.8,0.9-0.4,0.9-0.4C152.9,63,153.8,59.8,152.4,60.7z M130.6,39.8L130.6,39.8l-1.3-0.4L130.6,39.8z M107.4,47.8L107.4,47.8
			c0,0.9-0.4,1.3-0.4,1.8C106.9,49.1,106.9,48.7,107.4,47.8z M108.3,51.8c-0.4,1.3-0.4,2.2-0.4,2.7c0-0.4,0.4-1.8,0-0.9
			c0,0.4,0,0.4,0,0.4h-0.4C106.9,52.7,107.4,52.3,108.3,51.8c0-0.4,0.4-0.4,0.4-0.9C108.7,50.5,108.3,50.9,108.3,51.8
			c0.4-0.4,0.4-0.9,0.9-0.9v0.4C108.3,51.8,108.3,51.4,108.3,51.8C108.3,51.4,108.3,51.4,108.3,51.8z M112.3,52.7
			c-0.9,2.2-0.4-0.4-0.9,0c0.4-0.9,0-0.4,0.4-0.9L112.3,52.7z M106.5,76.8c-0.9-0.9,0.9,0.4,1.3,0C108.7,77.7,106.5,76.8,106.5,76.8
			z M108.7,76.8c0.9,0.4,0.4,0.4,0,0.4S108.3,76.8,108.7,76.8z M110.9,83.9L110.9,83.9c0.9,0,1.3,0.4,1.3,0.4
			C112.3,84.8,111.4,84.8,110.9,83.9z M117.2,84.4c-0.4,0-1.3-0.4-0.9,0C116.7,84.8,116.7,84.8,117.2,84.4l-0.4,0.4
			c-1.3-0.4-1.8-0.9-2.2-1.3l-0.4-0.4c0,0,0,0,0.4,0l-0.4-0.4h0.4c0.4,0.4,0.4,0.4,0,0.4c0,0,0,0.4,0.4,0.4
			C115.8,84.4,116.7,84.4,117.2,84.4z M118.5,75.9c0-0.4,0-0.4-0.4-0.9C119,75,120.3,76.3,118.5,75.9z M114.9,70.5L114.9,70.5
			c0.9,0.4-1.3-0.4-0.9-0.4v-0.4c-0.9-0.4-0.9,0-1.8-0.4c-0.4-0.4,0.4-0.4,0.9,0C113.2,69.7,114.5,69.7,114.9,70.5z M112.7,68.3
			c-0.9,0,0.9,0.9-0.9,0C110.5,67.4,111.8,67.9,112.7,68.3z M116.3,79.9c-0.9-0.4-0.4-0.4-0.9-0.4h0.9
			C118.1,79.9,116.3,79.5,116.3,79.9z M118.1,76.3c-0.9-0.4-0.9,0-1.3,0c-1.3-0.4-0.9-0.4-1.8-1.3c0.4,0.4,1.3,0.4,1.3,0.4
			L118.1,76.3z M114.1,61.2L114.1,61.2C114.1,60.7,114.1,60.7,114.1,61.2L114.1,61.2C114.5,61.2,114.9,61.6,114.1,61.2z M115.8,62.5
			c-1.3,0,1.3,1.3-0.4,0.4C115.4,63,115.4,63,115.8,62.5c-0.9,0-1.8,0-2.2-0.4C114.5,62.1,114.9,62.1,115.8,62.5z M115.8,67
			c0,0,2.7,0.4,0-0.4l0.9,0.4l0,0h0.9C119,67.4,116.3,67,115.8,67z M123,68.8L123,68.8h-0.4l0,0H123z M136.4,56.7l-0.4,1.3
			c0-0.9,0.4-1.8,0.4-4c0.9-0.9,0,1.8-0.4,3.1C135.9,58.1,136.4,56.7,136.4,56.7z M125.7,61.6C125.7,61.6,125.2,61.6,125.7,61.6
			C125.2,61.6,125.2,61.6,125.7,61.6C125.2,61.6,125.2,61.6,125.7,61.6C124.8,61.6,124.8,62.1,125.7,61.6c-0.4,0.4-0.4,0.4-0.4,0.4
			S125.2,62.1,125.7,61.6c-0.4,0.4,0,0.4,0,0.4c0,0.4,0,0.4,0,0.9c-0.4,0-0.9,0-1.3,0l0,0c0-0.4,0-1.3,0.4-2.2c0.4,0,0.4,0,0.9,0.4
			C125.2,61.2,125.2,61.6,125.7,61.6L125.7,61.6z M118.5,57.6c-0.4,0-0.4-0.4-0.9-0.4c0,0,0,0,0.4,0
			C118.1,57.2,118.1,57.2,118.5,57.6C118.1,57.2,118.1,57.2,118.5,57.6L118.5,57.6C118.5,57.2,118.5,57.2,118.5,57.6z M128.3,45.6
			L128.3,45.6L128.3,45.6L128.3,45.6z M128.3,60.7l-0.4-0.4c0,0,0-0.4,0.4-0.4h0.4C128.8,60.3,128.8,60.3,128.3,60.7z M123.4,63
			L123.4,63v-0.9C123.9,62.1,123.9,62.5,123.4,63z M121.6,62.1C121.6,62.1,122.1,62.1,121.6,62.1C122.1,62.1,122.1,62.1,121.6,62.1
			C122.1,62.1,121.6,62.1,121.6,62.1z M128.3,46.4L128.3,46.4C128.3,46.9,128.3,46.4,128.3,46.4z M127.9,46.9L127.9,46.9L127.9,46.9
			L127.9,46.9L127.9,46.9L127.9,46.9L127.9,46.9z M128.3,46.4C127.9,46.4,127.9,46.4,128.3,46.4C127.9,46.4,128.3,46,128.3,46.4
			L128.3,46.4z M127,59.8C127,59.8,127.4,59.8,127,59.8C127.4,59.4,127.4,59.4,127,59.8C127.4,59.4,127.4,59.4,127,59.8
			c0-0.4,0-0.4,0-0.4h0.4C127.4,59.4,127.4,59.8,127,59.8C127.4,60.3,127.4,59.8,127,59.8z M129.2,57.6L129.2,57.6
			C129.2,58.1,129.2,58.1,129.2,57.6C128.8,58.1,128.8,58.1,129.2,57.6z M129.2,57.6L129.2,57.6L129.2,57.6L129.2,57.6z M123.9,49.6
			c0,0.4,0,0.4,0,0.4l0,0C123.9,50,123.9,50,123.9,49.6L123.9,49.6z M122.5,62.1L122.5,62.1L122.5,62.1L122.5,62.1z M127.9,59.8
			c0,0.4,0,0.4,0,0.4C127.9,60.3,127.9,60.3,127.9,59.8L127.9,59.8z M131,46.9l-0.9-0.9C130.6,46,131,46.4,131,46.9
			C131.5,46.4,131,46.9,131,46.9z M130.1,48.2L130.1,48.2L130.1,48.2L130.1,48.2z M126.6,45.1c0,0-0.4,0-0.9-0.4
			C126.1,45.1,126.6,45.1,126.6,45.1L126.6,45.1z M123,62.1C123.4,62.1,123.4,62.1,123,62.1c0.4,0,0.4,0.4,0.4,0.4
			C123,62.5,123,62.5,123,62.1C123,62.5,123,62.1,123,62.1z M128.3,61.2C128.3,60.7,128.3,60.7,128.3,61.2
			C128.3,60.7,128.3,60.7,128.3,61.2L128.3,61.2z M131,58.9L131,58.9L131,58.9L131,58.9L131,58.9L131,58.9z M136.4,61.2l0.4-1.3
			L136.4,61.2L136.4,61.2L136.4,61.2l-0.4-0.4L136.4,61.2z M133.7,49.6C133.7,49.1,133.7,49.1,133.7,49.6
			C133.7,49.1,133.7,49.1,133.7,49.6C133.7,49.1,133.7,49.6,133.7,49.6z M133.2,49.1v0.4l0,0C132.8,49.1,132.8,49.1,133.2,49.1
			L133.2,49.1z M133.2,46.9l-0.9,0.9L133.2,46.9C132.8,46.9,133.2,46.9,133.2,46.9z M132.8,46.9C132.4,47.8,132.4,47.3,132.8,46.9
			C132.4,46.9,132.8,46.9,132.8,46.9z M131.5,45.1v0.4c0.4-0.9,0.4,0,0.4,0.4l0,0c-0.4,0-1.3,0-1.8,0v-0.4V46l0,0l0.4-0.9
			c0,0,0,0,0.4,0v0.4v-0.4C130.6,45.1,131,45.1,131.5,45.1z M129.7,43.3l0.4,0.4L129.7,43.3L129.7,43.3z M129.2,45.1L129.2,45.1
			C128.8,45.1,128.8,45.1,129.2,45.1z M122.1,45.1c0.9-1.8,0.4,0,0,0.9C122.5,45.1,121.6,47.3,122.1,45.1z M120.7,47.8L120.7,47.8
			c0.9-1.3,0.4-0.9,0.4-2.2c0.4-0.4,0.4,0.4,0,0.9c-0.4,0.4-0.4,1.3-0.9,2.2l0,0C120.7,48.2,120.7,47.8,120.7,47.8z M120.3,48.7
			L120.3,48.7C120.3,49.1,120.3,49.1,120.3,48.7L120.3,48.7C120.3,49.6,120.3,49.1,120.3,48.7z M113.6,41.1c0.9-0.9,0,1.3,0,1.8
			C113.2,43.8,114.1,41.5,113.6,41.1z M115.4,54c0.4,0,0.4,0,0.9-0.4C116.3,54.5,114.9,55.8,115.4,54z M115.8,51.8l-0.9,1.8
			c0.4-1.3,0-1.3,0-1.3c0.4-1.8,0.4-0.9,0.9-1.8C115.8,50.9,115.4,52.3,115.8,51.8z M114.1,43.8c-0.4,0.9-0.4,0.4-0.4,0
			C113.6,43.3,113.6,43.3,114.1,43.8z M116.3,55.8l0.4,0.9v0.4c0,0-0.4,0-0.9-0.4C115.8,56.3,116.3,56.3,116.3,55.8z M115.8,57.2
			L115.8,57.2L115.8,57.2L115.8,57.2C115.8,57.6,115.8,57.6,115.8,57.2L115.8,57.2L115.8,57.2z M120.3,63.4c0,0,0-0.4,0.9,0
			c0.4,0,0-0.4,0.4,0C122.5,63.9,120.7,63.4,120.3,63.4L120.3,63.4L120.3,63.4z M120.7,64.7c1.8,0.9,0.9-0.4,1.8,0
			C122.5,64.7,122.5,65.6,120.7,64.7z M124.8,66.1h-0.9v-0.4L124.8,66.1z M127,63.4c-0.4,0-0.9-0.4-0.9-0.4s0.4-0.4,0.9-0.4
			C127,63.4,127.4,63.4,127,63.4z M127.9,63.4c-0.4,0-0.9-0.4-1.3-0.4l0,0l0,0c0,0,0.4,0,0.4,0.4c0-0.4,0-0.4,0-0.9
			c0.4,0,0.9,0,0.9,0l0,0V63.4C127.9,62.5,127.9,63,127.9,63.4z M129.2,62.1c0.4,0.9,0.9-2.2,1.3-1.8c0,0,0,0,0-0.4l0,0
			c-0.4,0.9-0.4,1.8-0.4,2.7L129.2,62.1L129.2,62.1z M129.7,62.5c0-0.4,0-0.4,0.9,0V63L129.7,62.5z M136.8,62.5
			c-0.9,0.9-0.4-0.9,0-2.2v0.9v-0.9V62.5z M137.3,59.8c0-0.4,0-0.9,0.4-1.8C137.7,58.9,137.7,59.4,137.3,59.8z M136.4,53.1l0.9-0.4
			c0,0,0-0.4,0.4,0h-0.4C136.8,53.6,135.9,55.8,136.4,53.1z M140.8,53.6v-0.9C140.8,53.1,140.8,53.6,140.8,53.6V54
			C139.9,54.9,140.4,54.5,140.8,53.6z M139,55.4c0.4-0.9,0.9-0.9,0.9,0C139.5,55.4,139,55.8,139,55.4z M145.3,61.6l0.4-0.9l0,0
			L145.3,61.6z M143.5,59.8c-0.4-0.4-0.9,0-1.8,0.9c0,0.4,0,0.4-0.4,0.4c0,0,0-0.4,0.4-0.4c0-0.4,0.4-0.9,0.4-0.9v-0.4v0.4
			c0,0.4,0.4,0.4,0.4,0c0-0.9,0-0.4,0-1.3c0.9-1.8-0.4,3.6,1.3-1.3C144,57.6,144,59.4,143.5,59.8z M148.9,61.6L148.9,61.6l0.4-1.8
			L148.9,61.6z"/>
		<path class="st0" d="M108.7,54.9L108.7,54.9L108.7,54.9z"/>
		<path class="st0" d="M151.1,67.9C151.1,67,150.6,67.9,151.1,67.9C150.6,67.9,150.6,69.7,151.1,67.9z"/>
		<path class="st0" d="M151.1,66.1c0,0,0-0.4,0-0.9C150.6,65.6,150.6,66.1,151.1,66.1z"/>
		<path class="st0" d="M151.1,66.1h0.4C151.5,65.6,151.1,66.1,151.1,66.1z"/>
		<path class="st0" d="M148.4,64.7c-0.4,1.3-0.9,2.7-0.4,3.1c0-0.9,0-1.8,0.9-2.7C148.4,65.2,148,65.6,148.4,64.7z"/>
		<path class="st0" d="M148,63.9C148,63.9,147.5,63.9,148,63.9C147.5,63.9,148,63.9,148,63.9z"/>
		<path class="st0" d="M147.5,62.5c0,0.9-0.4,1.8-0.4,2.2c0.4-0.9,0.4-0.9,0.4-0.9C147.5,63.4,148,61.6,147.5,62.5z"/>
		<path class="st0" d="M138.2,67.9L138.2,67.9c0.4-0.4,0.4-0.4,0.4-0.4C138.6,67.4,138.2,67.4,138.2,67.9z"/>
		<path class="st0" d="M138.6,63.9V63l-0.9,1.8C137.7,65.2,138.2,63.9,138.6,63.9z"/>
		<path class="st0" d="M142.2,54L142.2,54L142.2,54L142.2,54z"/>
		<path class="st0" d="M135.5,67.9l0.4-2.2C136.4,65.2,135.5,67,135.5,67.9z"/>
		<polygon class="st0" points="134.6,67.4 134.6,66.5 134.1,66.5 		"/>
		<polygon class="st0" points="133.7,65.6 133.7,65.2 133.2,64.7 		"/>
		<path class="st0" d="M109.6,54.5c0.4,0.4-0.4,1.3,0.4,0.4L109.6,54.5z"/>
		<path class="st0" d="M134.1,34.4L134.1,34.4C134.1,34.8,134.6,34.8,134.1,34.4z"/>
		<path class="st0" d="M135.5,33.5c-2.2-0.4-1.3,0.9-1.3,0.9C135,34.4,135.5,34,135.5,33.5z"/>
		<path class="st0" d="M131.5,33.1l-0.9,0.4C131,33.5,131.9,34,131.5,33.1z"/>
		<polygon class="st0" points="132.8,34 132.8,34.4 133.7,34.4 		"/>
		<path class="st0" d="M134.6,46c-0.4,0-0.9,0-1.3,0C133.7,46.4,135,46.9,134.6,46z"/>
		<path class="st0" d="M115.4,59.8l-0.4-0.4C114.9,59.4,114.9,59.4,115.4,59.8z"/>
		<path class="st0" d="M113.2,60.3c-0.4-0.4-0.9-0.4-1.3-0.4C112.7,60.3,113.2,60.3,113.2,60.3z"/>
		<path class="st0" d="M132.8,46h0.4C132.8,46,132.8,46,132.8,46z"/>
		<path class="st0" d="M135,36.2c-0.4,0-0.9,0-0.9,0C134.6,36.2,135,36.6,135,36.2z"/>
		<path class="st0" d="M119,84.4h-0.4C118.5,84.4,119,84.8,119,84.4z"/>
		<path class="st0" d="M118.1,83L118.1,83L118.1,83z"/>
		<path class="st0" d="M127.4,65.2c0,0,0,0,0.4,0.4C127.9,65.6,127.9,65.6,127.4,65.2z"/>
		<path class="st0" d="M129.2,65.2L129.2,65.2L129.2,65.2z"/>
		<path class="st0" d="M136.4,37.5C136.4,37.1,137.7,37.1,136.4,37.5C135.5,36.6,136.4,37.1,136.4,37.5z"/>
		<path class="st0" d="M134.6,37.1c0,0-0.4,0-0.9,0C134.6,37.5,134.6,37.1,134.6,37.1z"/>
		<path class="st0" d="M134.6,36.6c-0.4,0,0,0.4,0,0.4C135,37.1,135,37.1,134.6,36.6z"/>
		<path class="st0" d="M133.2,40.2c1.3,0,2.2,0.4,2.7,0.4c-0.4,0-1.8,0.4-2.2-0.4C133.7,39.8,134.1,40.2,133.2,40.2z"/>
		<path class="st0" d="M132.4,40.6C132.4,40.6,132.4,41.1,132.4,40.6C132.4,41.1,132.4,40.6,132.4,40.6z"/>
		<path class="st0" d="M131,41.1c0.9,0,1.8,0.4,2.2,0.4c-0.9-0.4-0.9-0.4-0.9-0.4C131.9,41.1,130.6,40.6,131,41.1z"/>
		<path class="st0" d="M122.1,69.7c0.4,0.4-0.4,0.4,0.9,1.3C121.2,69.7,124.3,70.5,122.1,69.7z"/>
		<path class="st0" d="M117.6,82.1c0.4-0.4,0.9,0.4,0.9-0.4L117.6,82.1z"/>
	</g>
	<g>
		<path class="st0" d="M85.9,26.4l3.6-0.9c1.3-0.4,2.2-0.4,3.6-0.9C89.1,25.5,89.5,24.6,85.9,26.4z"/>
		<path class="st0" d="M41.3,35.3l-1.8-0.4C39.5,35.7,40.4,35.7,41.3,35.3z"/>
		<path class="st0" d="M32.8,46l-1.8,3.1C31.5,48.2,32.4,46.9,32.8,46z"/>
		<path class="st0" d="M19.5,70.5c0.4-0.4,0.9-0.4,0.9-0.9C20.3,69.2,19.9,69.7,19.5,70.5z"/>
		<path class="st0" d="M179.2,34c-1.8-3.1-4-5.8-6.7-8c-5.4-4.9-10.7-7.6-10.7-9.8c-0.9,0-1.8,0-2.2,0.4c-1.3-1.3-5.4-4.9-1.8-3.6
			c-4.5-1.8-8.9-3.6-13.4-4.5c0.9,0.9,2.2,1.3,3.6,2.7c1.3,0.9,2.7,2.2,4.5,3.1c2.7,2.2,5.4,4,7.1,4c0.9,1.8,0,1.3-1.3,0.9
			c-1.3-0.4-2.7-0.9-1.8,0.9c-3.1-3.6-4.5-3.6-5.8-3.6c-0.9,0-1.3,0-2.7,0c-0.9,0-2.2-0.9-4.5-1.3c2.2-0.4,0.4-1.8-1.8-3.6
			c-2.2-1.3-5.4-2.7-4.9-3.1c-1.3,0-4-0.9-6.2-1.3c-2.2-0.4-4.5-1.3-5.8-1.8c-2.7-0.4-7.1,0-12,0.4c-1.3,0-2.2,0.4-3.6,0.4
			s-2.2,0.4-3.6,0.4c-2.2,0.4-4.9,0.9-6.7,0.9c1.8,0,4,0,5.4,0.4c1.8,0.4,2.7,0.9,2.7,1.8c-0.9,0-2.2,0-3.1,0c-0.9,0-1.8,0-2.7,0.4
			c-0.9,0-1.8,0.4-2.2,0.9c-4,0-8,0-12,0.4l2.7-3.6c-4.5,1.8-5.4,1.8-5.8,1.3s-0.9-0.9-4.9,0h3.6c-0.9,0.4-1.3,0.4-2.2,0.9
			c-1.8,0.4-3.6,0.9-5.4,1.3c0.4,0,0.9,0,1.3,0c-0.9,0-1.8,0.4-3.1,0.4l4.9,0.4c-0.9,0.4-1.8,0.9-2.7,1.3c-0.9,0.4-1.8,0.4-2.2,0.4
			s-1.3,0.4-2.2,0.4l0,0l0,0c-0.9,0.4-1.8,0.9-3.6,1.8l2.2-0.4c-0.9,0.4-1.8,0.9-3.6,1.8c1.8-0.4,2.7-1.3,3.1-0.9
			c-1.3,0.4-2.2,1.3-3.1,1.3c-0.9,0.4-2.2,0.4-2.7,0.4c-7.6,4.5-0.4,2.7-1.8,4c-2.2,0-5.4,2.2-8.5,4.5l0,0c-0.9,0.4-1.3,0.9-2.2,0.9
			c-1.8,0.9-3.6,2.2-5.4,3.1c-1.8,0.9-3.1,2.2-4,2.2l0,0c-2.7,2.2-5.4,4.5-8,7.1c1.8-1.3,0.9,0.9-0.4,3.6l0.4-0.4
			c-0.9,1.8,0.4,1.3,1.3,1.3c0.9,0.4,0.9,0.9-2.2,4.9c-0.9,1.3-2.2,2.7-3.1,4c0.4-0.4,0.4-0.4,0.4,0c-0.9,0.9-2.2,1.8-3.6,2.7
			l1.3-0.4c-1.8,3.1-3.6,8.5-6.2,11.2c0.4,0.4,0.4,0.9,0,2.7c-2.2,1.3-2.7,5.4-3.6,10.7c1.3-3.6,2.7-1.8,4.5-4.9
			c-0.4,4-1.3,5.8-2.2,7.1c-1.3,1.3-2.7,2.7-2.7,6.2c0.4,2.2,0.9,1.3,0.9-0.4c0.4-1.3,0.9-3.6,1.3-4c-1.3,4.9-0.4,10.7,1.3,15.2
			c1.3,4.5,3.1,8.5,2.7,12c-0.9-1.3-1.8-2.7-2.7-3.6c0.4,4.5,1.8,6.2,1.8,5.8c-0.9-1.3-0.4-1.8-0.4-2.2c3.6,5.4,5.8,9.8,8.5,13.8
			c2.7,4.5,6.2,8.5,12.5,11.6c-0.4-0.9-1.8-2.2-1.8-2.7c1.3,0.4,2.2,1.3,3.1,2.2c0.9,0.9,1.3,1.3,1.8,2.2c1.3,1.8,3.1,3.6,8.5,4.5
			c-0.4-0.4-0.9-0.9-1.3-1.3c3.1,0.4,5.4,2.2,4.9,2.7c0.4-1.3,5.4-0.4,11.2,0.4c5.8,0.9,12.5,0.4,15.6-1.8c2.2,0.9,6.7,1.3,11.2,1.3
			c2.2,0,4.5-0.4,6.2-0.9c1.8-0.4,3.1-0.9,4.5-1.3c4.9-3.6-5.4-0.9-3.6-3.1c4-0.9,7.1,0.4,12.9-2.7c0.4,0.9-2.2,3.1-3.6,4
			c-1.3,1.3-1.3,2.2,4.9,0.4l1.3-1.8c-1.3,0.4-2.7,1.8-4.5,1.8c-4,0,1.8-1.8,2.2-2.7c4.5-1.3,8.5-3.1,12.5-4.9
			c1.8,1.3-5.8,4.5-6.2,5.4c4.9-2.2,9.8-5.8,14.3-9.8c4.5-3.6,8.9-7.6,12.9-9.8h-1.3c4.9-3.1,5.8-4.9,6.7-6.7
			c0.9-0.4,1.8-0.9,3.1-1.8c-0.9,0.4-1.8,0.4-2.7,0.9c0.4-1.3,1.3-2.2,5.4-4.5c3.1-4-2.2-0.4,1.8-5.4c0.4-0.4,0.9-0.9,1.3-0.9
			c0,0.4,0,0.4,0,0.9c0.9-0.9,1.3-1.8,2.2-2.2c1.3-0.9,2.2-1.8,3.6-2.7c0.9-0.9,2.2-1.8,3.1-2.7c0,0,0,0,0.4,0v-0.4
			c1.3-1.3,2.2-2.2,3.1-3.6c1.8-2.7,3.6-4.9,4.5-7.6c0-2.2-0.9-0.4-1.8,1.8c-0.9,1.8-2.2,3.6-3.1,3.6c0,0,0,0,0-0.4
			c0.9-1.8,2.2-3.6,1.8-4.9c0.4-0.9,0.4-1.8,0.4-2.2c0-0.4,0-0.9,0-0.9s0-0.4,0.4-0.4c2.7-4.9,4.5-9.8,4.5-14.7
			c-1.8,0.4-2.2,6.2-4,8c1.3-2.7,2.2-6.2,2.7-9.8c0.4-3.6,0.4-7.6-0.4-11.2c-1.3-7.6-4.9-14.3-8-19.6c1.8,0.9,1.3-0.4,1.3-1.8
			s0.4-2.2,3.1,0.9c-0.4,3.1,2.7,5.4,4,9.8C181.4,39.8,181,36.6,179.2,34z M181,66.1v0.4c-0.4,1.8-0.9,3.6-1.3,5.4v-0.4
			C180.1,69.7,180.5,67.9,181,66.1z M158.2,22.8c0.9,0.4,1.3,0.9,2.2,1.3c0.9,0.4,1.3,0.9,1.8,1.8c1.3,0.9,2.2,2.2,2.2,2.7
			c0.4,0.9,0,0.9-0.9,0.9c0-0.4,0-1.3-0.9-2.7c-0.9-0.9-1.8-1.8-3.1-2.7c-1.3-0.9-2.2-1.8-3.6-2.2c-0.9-0.4-1.8-1.3-2.2-1.8
			C155.1,21.5,156.9,21.9,158.2,22.8z M151.1,30.4l0.4,0.4c1.3,0.9,2.7,0.9,2.2,1.8l-2.2-1.8C151.1,30.4,151.1,30.4,151.1,30.4
			L151.1,30.4z M153.3,32.6l-0.4,0.9c-0.4-0.9-1.3-1.3-1.8-2.2C151.5,31.3,152.4,31.7,153.3,32.6z M157.3,34.8l0.4,0.4
			c0.9,0.9,1.3,1.8,0.9,2.7c-0.4-0.4-0.9-0.4-1.3-0.9C157.3,36.6,157.3,35.7,157.3,34.8z M157.8,35.7c-0.4-0.4-0.4-0.9-0.9-1.3V34
			c2.2,1.8,4,4,4.9,6.2C160.5,39.3,159.1,37.5,157.8,35.7z M165.8,41.1c-0.4-0.4-0.9-0.9-1.3-1.8C165.4,40.2,165.8,40.6,165.8,41.1z
			 M35.1,75.9c0,0.4,0,1.3,0,1.8c0,0.9,0,1.8,0,2.7c0-0.9,0-1.8,0-2.7c0-0.4,0-0.9,0-0.9C35.1,76.3,35.1,75.9,35.1,75.9z
			 M46.7,122.3c-0.4-0.4-0.9-1.3-1.8-1.8l-0.4,0.4c-0.9-0.9-1.8-1.3-2.2-1.8c-0.4-0.4-0.4-0.4-0.4-0.4c0.4,0,2.2,0.9,4,2.2
			c0.9,0.4,1.8,1.3,2.7,1.8c0.9,0.4,1.3,0.9,1.8,1.3c-0.4,0-0.4-0.4-0.9-0.4c-0.9-0.9-1.3-1.3-2.2-1.8c0,0.4,0.4,0.4,0.4,0.9
			C47.1,122.3,46.7,122.3,46.7,122.3z M50.7,121.4c1.8,0.9,2.2,1.3,1.8,1.8c0.4,0.4,0.9,0.9,1.8,1.3c-0.4,0-1.3-0.4-1.8-0.4
			c-0.4,0-0.9-0.4-0.9-0.4c-0.4,0-0.4-0.4-0.4-0.4s0.9,0,1.3-0.4L50.7,121.4z M70.8,129c0.4,0,0.4,0,0.9,0.4
			C71.2,129,70.8,129,70.8,129z M110,125.4c-0.9,0-1.8,0-2.2,0C108.7,125.4,109.6,125.4,110,125.4c2.2-0.4,5.4-1.3,6.7-2.7
			c-0.9-0.4-4.5,0.9-5.8,0.9c2.2-1.8,6.2-2.2,9.4-2.7c3.1-0.4,4.9-1.3,2.7-3.1c0.9,0,3.1-0.4,4.9-0.9c-1.8,1.3-3.6,2.7-5.4,4
			c-3.6,1.3-7.6,3.1-9.8,4.5c-0.4,0-0.9,0.4-1.8,0.4C110.5,125.9,110.5,125.9,110,125.4z M137.3,109.4c-8.9,3.6-17.8,6.7-25,8.9
			c-1.8,1.3,1.3,0,0.9,0.9c-3.1,0-7.6,1.8-11.6,3.1c-4,1.3-7.1,2.7-7.6,1.8c-2.7,0.9-3.6,2.7-4.5,3.1c-4,0-8.5,0-12.9,0
			c1.3,0,2.2,0.4,3.6,0.4l-0.4,0.4c-1.8,0-3.1-0.4-4.9-0.4l0,0c-5.8,0-11.6-0.4-17-2.2s-9.8-4.9-12-8.5c1.3,1.8,0.9,2.2,0,2.2
			c-0.4,0-1.3,0-1.3,0c-0.9-2.7-2.7-5.4-4.5-9.4c-1.8-4-3.1-8.9-3.6-13.8c-0.4,0-1.3-0.4-1.8,0.4c0-1.8,0.4-4,0.9-5.8l-0.9,0.9
			c-0.9-10.3,4.9-21,5.8-27.2c1.8-3.1,4.5-6.2,8.5-9.8c1.3-1.8,0.9-1.3,0-0.4c-0.9,0.9-2.2,1.8-2.7,1.8c0.9-2.2,5.8-5.8,7.1-6.2
			c-2.2-0.4-6.7,4.5-4,0c2.2-1.3-0.4-0.4,0-1.3c0.4-0.4,1.3-0.9,2.2-1.8c-0.9,0.4-1.3,0.9-1.8,1.3c0.4-0.4,0.9-0.9,1.8-1.8
			c1.3,0,2.2,0,3.6,0c2.7-2.7-0.4-1.8,4-5.4c5.8-3.1-4.9,6.7,3.6,0.9c2.2-1.3,3.6-4,6.2-6.7c2.2-2.7,5.8-5.4,10.7-6.7
			c1.3-0.9,2.2-1.3,2.7-1.8c0.4-0.4,0.9-0.4,1.3-0.9c2.2-0.4-5.4,0.4,0.9-2.2c0.9,1.3,3.1,0.4,4.9,0c2.2-0.4,4-0.9,4.9,0.4
			c1.8-0.9,3.6-1.8,5.4-2.2l1.3,1.3c2.2-2.2,4-1.8,6.2-1.3c0.9,0,2.2,0.4,3.6,0.9c0.4,0,1.3,0,2.2,0s1.3,0,2.2,0
			c-0.4-0.4-1.3-0.4-0.9-0.9c2.2,0.4,7.6,0.9,3.6,1.8c0.9,0,2.2,0.4,4,0.4c1.8,0.4,3.1,0.4,4.9,0.9c2.7,0.4,4.5,0.4,1.8-0.9
			c0,0.4-0.9,0.4-2.7,0c-1.3-0.4-3.1-0.9-4.5-1.3l0,0c1.3,0,3.1,0.4,5.4,0.4c-0.4-0.4-1.3-0.9-1.8-0.9c1.8,0,3.6,0,4.9,0.4l-0.4,0.4
			c0.9,0,1.3,0,1.3,0c1.8,0.4,3.6,1.3,4.9,1.8c3.6,1.8,6.2,3.6,8.9,5.4c-1.8-0.4-2.7,0-1.8,0.4c6.7,2.7,12,7.1,16.5,12.9
			c0.9,0.9,1.3,1.8,1.8,2.7c0.4,1.3,0.4,3.1,0.9,4.5c1.8,0,2.2,3.1,2.2,6.2c0,3.6-0.4,7.1,0.4,9.8c0.4-0.9,0.4-1.8,0.9-2.2
			c0-0.9,0.4-1.8,0.4-2.2c-0.4,5.4-0.9,8.5-1.8,11.2c-0.4,3.1-1.3,5.8-4.5,10.3c1.8-4,2.2-6.2,2.7-8.9c0.4-1.3,0.4-2.7,0.4-4.5
			c0-0.4,0-0.9,0-1.3c0-0.4,0-0.9,0-1.8c0-0.4,0-1.3,0-1.8c0-0.4,0-1.3-0.4-2.2c0,5.8-1.8,10.7-4,15.2c-2.7,4.5-5.4,8.5-8.5,13.8
			c0.9,0,3.1-2.2,2.2,0.4c-1.3,0.4-3.1,2.7-4.9,4.5c-1.8,1.8-3.1,3.1-3.1,1.8c-2.2,3.1-1.8,4.9-3.1,6.7c-0.9,0.4-1.8,0.9-2.7,1.3
			C140.4,108,138.6,108.5,137.3,109.4z M170.3,79.5c0,0,0,0.4,0.4,0.4c-0.4,0.9-1.3,1.3-1.8,2.2c-0.9,0.9-1.3,1.3-1.8,2.2
			c0.4-0.4,0.9-1.3,1.8-2.2C169.4,80.8,169.8,80.4,170.3,79.5z M149.8,21.5c0.4,0.4,1.3,0.4,2.2,1.3
			C151.1,21.9,150.2,21.9,149.8,21.5c-2.2-1.3-3.1-1.3-2.2-2.2c-0.9-0.9-3.1-1.3-4-2.2C148.4,17.9,147.5,19.7,149.8,21.5z M106,8.5
			c0.9-1.3,1.8-2.7,8.5-1.8c3.1,2.2,6.7,2.2,13.4,4c-3.1,0.9-1.8,1.3-3.1,2.7c-3.6-2.2-8.9-3.1-14.3-2.2c-2.7,0.4-5.4,0.4-7.6,0.9
			c-0.4-0.9,0.9-1.3,1.3-1.8C105.1,9.9,105.6,9.4,106,8.5z M72.6,15.2c-0.4,0.4-1.3,0.4-1.8,0.4C71.7,15.2,72.6,15.2,72.6,15.2z
			 M69.9,16.6C69.9,16.6,70.3,16.1,69.9,16.6c0.4,0,0.4,0.4,0.4,0.4h-0.4C69.4,17,69,17,69.9,16.6z M28.8,58.1l-0.4,0.4
			c-0.4,0.4-0.9,0.9-1.3,0.9C27.9,58.9,28.4,58.5,28.8,58.1z M29.3,125c-1.3-1.8-2.2-4-3.6-5.8c0-0.9,0.4-0.4,0.9,0
			c0.4,0.4,0.4,0.9,0.9,0.9c0.4,0.9,0.9,1.8,1.8,2.7c-0.4-0.9-0.4-1.3-0.9-2.2l0,0c1.3,2.2,3.1,4.9,4.9,7.1
			C32,128.1,30.6,126.8,29.3,125z M79.3,144.6c0-1.3-8-1.3-8.9-1.8c-1.3-1.8,1.8-0.9,4.9-1.8c-1.8,0.4,2.2,2.2,5.8,1.8L79.3,144.6z
			 M95.8,144.2c-2.7,0.9-5.4,0.9-6.7,0.4c4.9-0.4,9.8-1.8,11.2-2.7C100.2,141.9,98.4,143.3,95.8,144.2z M127.4,123.6l1.8-1.3
			c0.4-0.9,0-0.9-0.9-0.4c0.9-0.4,1.3-1.3,2.2-1.8l0,0c-4.5,4,3.6,0,0.9,2.7l2.7-1.8C131,124.5,130.6,121.4,127.4,123.6z
			 M160.9,22.8c0.9,0,1.8,0.4,2.7,0.4l1.3,2.7C163.6,24.6,162.2,23.7,160.9,22.8z"/>
		<path class="st0" d="M17.2,82.6c-0.4,0.9-0.4,2.2-0.9,3.6C16.8,84.8,16.8,83.5,17.2,82.6z"/>
		<path class="st0" d="M137.7,7.2c-0.9,0-1.3,0-1.8,0C136.8,7.6,137.7,7.6,137.7,7.2z"/>
		<path class="st0" d="M123.4,4.1C123.9,4.1,123.9,4.1,123.4,4.1c0.4,0,0.9,0,0.9,0H123.4z"/>
		<path class="st0" d="M75.2,126.8c0.4,0,0.9,0,1.8,0H75.2L75.2,126.8z"/>
		<path class="st0" d="M16.3,100.4c0,0.9,0,0.9,0,1.3c0,0.4,0,1.3,1.3,5.4c-0.9-3.6-1.3-7.1-0.9-10.7
			C16.3,98.2,16.3,99.5,16.3,100.4z"/>
	</g>
</g>
</svg>
