<?xml version="1.0" encoding="utf-8"?>
<!-- Generator: Adobe Illustrator 22.0.0, SVG Export Plug-In . SVG Version: 6.00 Build 0)  -->
<svg version="1.1" id="Capa_1" xmlns="http://www.w3.org/2000/svg" xmlns:xlink="http://www.w3.org/1999/xlink" x="0px" y="0px"
	 width="200px" height="150px" viewBox="0 0 200 150" style="enable-background:new 0 0 200 150;" xml:space="preserve">
<style type="text/css">
	.st0{fill:#F5F5F5;}
</style>
<g>
	<path class="st0" d="M44.2,142.5l0.1-0.2C44.1,142.4,44.1,142.4,44.2,142.5z"/>
	<path class="st0" d="M41.6,141.8c0.1,0.1,0.2,0.3,0.3,0.3C42,142,41.9,141.9,41.6,141.8z"/>
	<path class="st0" d="M53.7,142.6c0.1,0,0.3,0.1,0.4,0.1C54,142.6,53.8,142.6,53.7,142.6z"/>
	<path class="st0" d="M88.8,143.7c-0.1-0.1-0.2-0.1-0.4-0.2C88.5,143.6,88.5,143.8,88.8,143.7z"/>
	<path class="st0" d="M12.9,146.2c0-0.1-0.1-0.1-0.1-0.1C12.8,146.2,12.8,146.2,12.9,146.2z"/>
	<path class="st0" d="M89.5,142.9c-1.5,0.1-1.6-0.7-2.8-0.2l0.2,0.1c-0.6,0.3-1.3,0.1-1.9,0c0-0.1-0.1-0.2-0.2-0.3l0,0h0.3
		c0,0-0.1-0.1,0-0.1h0.5c-0.3-0.1-1-0.2-0.7-0.6l0.7-0.1c-0.2-0.3,0.1-0.4,0.1-0.6l-2.1-0.7c0.1,0.2,0.4,0.3,0.2,0.5
		c-0.6,0.1-0.4-0.3-1-0.1L83,141c0-0.1-0.1-0.1,0-0.1c0.2-0.1,0.3,0,0.3,0.2c-0.2,0.3-0.7,0.1-0.9-0.2c-0.7,0-0.2,0.5-0.3,0.6
		c-0.3-0.5-1.1-0.1-1.6-0.3l0.3,0.3c-0.5,0.3-1,0-1.3-0.1l0.1,0.3c-0.7-0.1-1.1,0.8-1.6-0.1l0.1,0.2c-0.3,0.1-0.8,0.2-1,0
		c0,0.1-0.1,0.2-0.2,0.3c-0.2-0.3-0.5-0.1-0.9,0c0.3,0.1,0.2,0.5,0.5,0.7c-0.2,0.1-0.4,0.1-0.5,0.1c0,0,0,0,0-0.1l0,0
		c-0.2-0.2-0.3-0.5-0.6-0.5c-0.3,0.2,0.3,0.2,0.4,0.4c-0.4-0.1-0.8,0.1-1.2,0.3c-0.4,0-0.7,0-1.1,0l-0.1-0.1l0.4-0.3
		c-0.3-0.2-0.5-0.2-0.5-0.1c0.1,0,0.1,0.1,0.2,0.1c-1,0.5-1.6-0.7-2.7-0.5c0.1,0.2,0.2,0.2,0.2,0.4c-0.5,0.2-0.5-0.9-1.3-0.5
		l0.2,0.2c-0.3,0.1-0.5-0.2-0.4-0.2c0,0.8-1.7,0-2.2,1c-0.4-0.4-1.5-0.7-1.8-0.5c-0.3,0.3-0.1,0.4,0.1,0.5c-0.3,0-0.6,0-0.9,0
		c0.2-0.4,0.9-0.7,0-0.9l-0.1,0.2c0.1,0,0.3-0.1,0.4-0.1c0.3,0.2-0.2,0.3-0.2,0.4l-1.1-0.1c-0.1-0.4,0.6-0.4,0.7-0.5
		c-0.9,0.1-2,0.8-2.8,0.5v0.1c-0.5-0.1-1.1,0-1.6,0c0,0.1-0.1,0.2,0,0.3l0,0l-0.6-0.3l0.1,0.2c-0.3,0-0.6,0-0.9,0c0,0,0-0.1,0-0.2
		c0,0.1-0.1,0.1-0.1,0.1c-0.8-0.2-1.6-0.5-2.2-0.2c0.4,0.1,0.5,0.2,0.5,0.4c-0.3-0.1-0.6-0.1-0.9-0.1v0.1c-0.5,0-1.1-0.1-1.7-0.2
		c0.1,0,0.1,0.1,0.1,0.1c-0.3,0.1-0.6-0.1-0.8-0.2v0.3c-0.1,0-0.2-0.1-0.3-0.1c0-0.3-0.5-0.6,0.1-0.8c0.2,0.5,0.5,0.1,0.8,0.2
		c-0.6-1-2.3,0.6-2.5-0.3l-0.1,0.4c-0.2,0-0.6-0.3-0.3-0.4l-1.1,0.3c0.2,0.1,0.5,0.3,0.7,0.4c-0.4-0.1-0.8-0.2-1.1-0.1
		c-0.2-0.1,0.4,0.3,0,0.4c-0.1,0-0.1-0.1-0.2-0.1c0-0.1-0.1-0.1-0.1-0.2c0.1,0,0.1-0.1,0.1-0.1c-0.1,0-0.1,0.1-0.1,0.1
		c-0.3-0.2-0.8,0.1-0.9-0.5l-0.6,0.3l-0.1-0.4c-0.5,0.7-0.8-0.3-1.6-0.1c0,0.1,0.1,0.1,0.1,0.2c-0.3-0.1-0.9-0.1-0.4-0.3
		c-0.4,0-1.9-0.2-1.2,0.2c0-0.2,0.5,0,0.8,0c0,0.3-0.4,0.2-0.7,0.4c0,0,0,0-0.1,0l0,0l-0.1,0.1c0,0-0.1-0.1-0.2-0.1l-0.1,0.2l0,0
		l-0.1-0.1l0.1,0.1c-0.8-0.3-1.5-0.1-2.1-0.5c0,0.1-0.2,0.2-0.4,0.2v-0.4h-0.9l0.4,0.6c-0.9,0.1-1.6-0.6-2.4-0.7
		c-0.2,0.7-1.5-0.3-2.2,0.4l0.6,0.2c-1.3-0.1-1.5,0.3-2.7,0.1c1-0.2,1-0.1,2.5-0.7c-1.5,0.3-2.6-0.4-3.9,0c0.1,0.2,0.4,0.3,0.1,0.4
		c-0.3-0.4-1.3,0-1.1-0.4c-0.4,0.1-0.5,0.5-0.8,0.6l-1.4-0.5v0.1c-2.4,1-4.5-0.6-6.9-0.2v0.2l-0.6-0.3c0.5,0.2-0.2,0.3-0.2,0.5
		l-1.5-0.5c0,0.2,0.1,0.6,0.4,0.6c-0.6,0.2-1.2-0.2-1.7-0.3l0.2,0.2L19,142v0.3c-0.9-0.1-1.9,0.2-2.2-0.3l0.1,0.4L16,142l0.5,0.3
		c-1,0.1-2.6-0.2-2.8-0.2l0.1,0.2c-0.2,0.1-0.3,0-0.5-0.1l0.1,0.2c-1.5-0.1-1.9,0.5-3.7,0.2c-0.5,0.1,0.3,0.1,0.3,0.2
		c-0.3,0.2-0.9,0-1-0.1c0.1,0.4,0.9,0.3,0.3,0.6c-0.4-0.2,0.3,0.4-0.4,0.3l-0.3-0.5c-0.4,0.1-0.1,0.4-0.7,0.3
		c-0.7-0.2,0.8-0.6-0.3-0.6c-0.6,0-1.2,1.2-2.2,0.9c-0.9,0.3,0.5,0.8-0.8,0.7l0.8,0.3c-0.2,0.1-0.1,0.4-0.6,0.3
		c-0.2-0.2-0.5-0.4-0.8-0.5c1.2,0.4-1.1,0.6,0.1,1.1H3.7c0.1,0,0.1,0.1,0,0.1H3.1c0.3,0.1,1.2,0.2,0.8,0.5l-0.8,0.1
		c0.2,0.3-0.1,0.4,0,0.6l2.4,0.5c-0.1-0.2-0.4-0.3-0.3-0.4c0.6-0.1,0.5,0.3,1.1,0.1L6.1,147c0,0.1,0.1,0.1,0,0.1
		c-0.2,0.1-0.3,0-0.3-0.2c0.2-0.3,0.8-0.1,1,0.1c0.8,0,0.2-0.5,0.3-0.6c0.4,0.5,1.3,0,1.8,0.2l-0.3-0.3c0.6-0.4,1.1-0.1,1.4,0
		L9.9,146c0.8,0,1.2-0.8,1.8,0.1l-0.1-0.2c0.3-0.1,0.8-0.3,1.2,0c0-0.1,0.1-0.2,0.2-0.3l0,0c0.1,0.1,0.1,0.1,0.2,0.1
		c-0.1,0.1-0.1,0.2,0,0.2c1.4-0.3,2.7,0,4.3-0.2l0.5,0.5v-0.3c0.8-0.1,0.2,0.5,0.6,0.5c-0.2,0-0.2-0.1-0.2-0.1
		c0.9,0.4,0.5-0.3,1-0.2c-0.2-0.4-0.9-0.1-0.7-0.6c0.9,0.4,2.2,0.2,2.4,1c1.6-0.3,3.7,0.2,5,0.2c0.2-0.1-0.1-0.1,0-0.2
		c0.6,0.5,1.8-0.4,1.8,0c0.3-0.1,0.4-0.4,0.4-0.5c0.4,0.2,0.8,0.3,1.2,0.3l-0.3-0.1v-0.1l0.5,0.2l0,0c1.1,0.1,2.4-0.1,3.4,0.4
		c-0.5-0.2,0-0.5-0.1-0.6c0.6,0.6,1.7,0.6,2.7,0.5c0-0.1,0.1-0.3-0.1-0.4l0.6,0.3l-0.1-0.2c1-0.2,2.2,0.5,2.8,0.2
		c-0.4-0.1-0.4-0.2-0.5-0.4c0.2,0,0.5,0,0.7,0c0.3,0.3,0.9,0.2,1.4,0.1h0.1l0,0c0.1,0,0.2-0.1,0.3-0.1s0.3,0.1,0.4,0.1V146
		c0.2,0,0.4,0.1,0.5,0.3l0.2-0.4c0.2,0.1,0.6,0.3,0.3,0.4l1.2-0.2c-0.1-0.1-0.2-0.1-0.4-0.2c0.4,0,1.1,0.3,1.6,0.2
		c0.2,0.1-0.3-0.2-0.1-0.3c0.1,0,0.2,0,0.2,0.1c0.1,0.3,0.3,0.3,0.5,0.3h0.1l0,0c0.2,0,0.3,0,0.4,0.4l0.5-0.3l0.1,0.4
		c0.4-0.8,0.7,0.3,1.4,0c0-0.1-0.1-0.1-0.1-0.2c0.2,0.1,0.8,0.1,0.4,0.3c0.4,0,1.7,0.1,1.1-0.3c0.1,0.2-0.5,0.1-0.7,0
		c0-0.3,0.4-0.3,0.6-0.5c0,0.1,0.1,0.2,0.4,0.3l-0.1-0.1c0.1,0,0-0.1,0-0.1v0.1l-0.1-0.1h0.1l0,0l0,0c0.3,0,0.5,0,0.7,0.2l-0.2-0.3
		c0.6,0.1,1.1,0,1.5,0.3c0-0.1,0.1-0.2,0.4-0.2v0.4h0.8l-0.4-0.6c0.6-0.1,1.1,0.2,1.6,0.4l0,0l0,0c0.2,0.1,0.3,0.1,0.5,0.1
		c0-0.1,0.1-0.2,0.1-0.2l0.2,0.1c-0.1,0-0.1-0.1,0-0.2c0.4,0,1.2,0.3,1.6-0.2l-0.5-0.2c1.1,0.1,1.3-0.4,2.4-0.2
		c-0.9,0.3-0.9,0.1-2.2,0.8c1.3-0.4,2.3,0.3,3.5-0.2c-0.1-0.1-0.3-0.2-0.2-0.3l0.2,0.1l0,0c0.3,0.1,0.9-0.1,0.8,0.3
		c0.2-0.1,0.3-0.3,0.4-0.4c0,0,0.1,0.1,0.2,0.1c0,0,0.2-0.1,0.3-0.2l1,0.4V146c0.1-0.1,0.3-0.1,0.4-0.2c0.2,0.1,0.5,0.2,0.6,0.3
		c0.2-0.1-0.1-0.2-0.2-0.2v0.1c-0.1,0-0.2-0.1-0.2-0.2c1.9-0.5,3.6,0.7,5.5,0.3v-0.2l0.3,0.2c-0.1,0-0.3,0.1-0.1,0.1h0.3h0.1
		c0,0,0,0-0.1,0H69c0-0.1-0.2-0.1-0.3-0.2h-0.1c0.1-0.1,0.2-0.1,0.3-0.2c0.1,0,0.2,0,0.3,0l1.1,0.4c0-0.1,0-0.3-0.1-0.4
		c0.1,0,0.3,0,0.4-0.1c0.3,0.1,0.6,0.2,0.8,0.3l-0.2-0.2l0.5,0.2v-0.3c0.7,0.1,1.7-0.2,1.9,0.3l-0.1-0.4h0.1l0.7,0.3l-0.5-0.3
		c0.2,0,0.3,0,0.5,0c0.1,0,0.2,0,0.3,0c0.7,0.1,1.5,0.3,1.6,0.3l-0.1-0.2c0.1-0.1,0.3,0,0.4,0.1l-0.1-0.3c1.3,0.1,1.7-0.4,3.2-0.1
		c0.4,0-0.2-0.1-0.2-0.2c0.2-0.2,0.7,0,0.9,0.1c-0.1-0.4-0.7-0.3-0.2-0.6c0.2,0.1,0.1-0.1,0.1-0.2c0.1,0,0.1,0,0.2,0
		c0-0.1,0-0.1,0-0.1h0.1l0.2,0.5c0.3-0.1,0.1-0.4,0.6-0.3c0.6,0.3-0.8,0.5,0.2,0.7c0.3,0,0.6-0.4,1.1-0.7c0.2,0.2,0.3,0.3,0.8,0.3
		c-0.1-0.1-0.8-0.2-0.8-0.4c0.3-0.1,0.6-0.2,0.9-0.1c0.3-0.1,0.3-0.2,0.3-0.3c0.3,0,0.6,0.1,1,0.1c-0.1-0.2-0.1-0.3,0-0.4
		c-0.3,0-0.6,0-1,0c0,0,0.2,0,0.5,0l-0.4-0.2c0,0,0,0,0.1,0c-0.1,0-0.2-0.1-0.3-0.1h-0.1c0.2-0.1,0.1-0.4,0.6-0.3l0,0
		c0,0.1,0.1,0.1,0.2,0.2h-0.1h0.1c0.1,0.1,0.3,0.2,0.4,0.2c-0.1-0.1-0.2-0.1-0.3-0.2c0.9,0.3,0.6,0.8,1.7,0.6c0.4-0.4,0-0.3-0.1-0.7
		c0.3,0.1,1.2-0.4,1.6,0l-0.8,0.1c0.5,0.1,1.1,0,1.4,0.1c0-0.1-0.1-0.2-0.2-0.2c0.4,0.1,1,0,1.2,0.2l0.1-0.5c-0.2,0.2-1,0.4-1.1,0.1
		C88.4,142.8,89.2,143,89.5,142.9z M81.3,143.5c-0.1-0.1-0.1-0.2-0.1-0.2l0.3,0.3L81.3,143.5z M69.9,145.6L69.9,145.6
		C69.8,145.6,69.8,145.6,69.9,145.6C69.8,145.6,69.9,145.6,69.9,145.6L69.9,145.6z M78.8,142.3c0-0.1,0-0.1-0.2-0.1l0.4-0.1
		c0.3,0.3,0.2,0.4-0.1,0.5c0,0-0.1,0-0.2,0c0.1,0,0.2,0,0.2,0h-0.1c-0.1,0-0.1,0-0.2,0c0-0.2-0.4-0.4-0.5-0.6
		C78.3,142.2,78.5,142.5,78.8,142.3z M78.2,142.8C78.2,142.9,78.2,142.9,78.2,142.8c-0.1,0.1-0.1,0.1-0.2,0.2v-0.1
		C78.1,142.8,78.2,142.8,78.2,142.8z M72.9,142.8L72.9,142.8c-0.3,0-0.6,0-0.9-0.1C72.2,142.4,72.6,142.8,72.9,142.8z M68.1,143
		c-0.1,0.1-0.1,0.2-0.1,0.2c-0.1-0.1-0.3-0.1-0.4-0.2l0.1-0.3C67.7,143,67.9,143,68.1,143z M66.8,142.8c-0.3,0-0.5,0.1-0.7,0.1
		c-0.1,0-0.1,0-0.2,0C66.1,142.7,66.6,142.5,66.8,142.8z M63.1,145c-0.1,0-0.1,0-0.2,0l-0.2-0.1c0.1,0,0.1-0.1,0.2-0.1
		C63,144.9,63.1,145,63.1,145z M57.8,143.4c0.1,0,0.2,0.1,0.3,0.1C58,143.5,57.9,143.4,57.8,143.4z M62.1,145.2c-0.1,0-0.2,0-0.3,0
		C62,145.1,62,145.1,62.1,145.2z M57.8,143c0.1,0,0.2-0.1,0.3-0.1L57.8,143c-0.1,0.1-0.2,0.1-0.2,0.2c-0.1,0-0.2-0.1-0.2-0.1
		L57.8,143z M55.8,142.9L55.8,142.9C55.9,142.9,55.8,142.9,55.8,142.9L55.8,142.9z M34.1,144.6l-0.3-0.1l0,0
		C34,144.5,34,144.6,34.1,144.6L34.1,144.6z M36.3,145.2L36.3,145.2L36.3,145.2L36.3,145.2C36.4,145.2,36.4,145.2,36.3,145.2z
		 M35.5,143.7c0,0,0,0.1-0.1,0.2l0,0c-0.3-0.1-0.5-0.3-0.7-0.4l0,0C34.9,143.5,35.3,143.7,35.5,143.7z M36.4,145.1
		c0,0-0.1,0-0.1-0.1v-0.1C36.4,145,36.5,145,36.4,145.1C36.5,145,36.5,145,36.4,145.1z M42.5,144L42.5,144L42.5,144L42.5,144
		L42.5,144L42.5,144L42.5,144z M51.3,142.7c0.1,0.1,0.1,0.1,0.1,0.1c-0.1,0-0.2,0-0.3,0C51.2,142.8,51.3,142.8,51.3,142.7z
		 M41.8,142.4c0.1,0,0.1,0,0.2,0H41.8c-0.2,0.1-0.3,0.2-0.4,0H41.8z M39.8,142.4c0.2,0.2,0.7,0.2,0.8,0.5l-0.7-0.2
		c0.1,0,0.1,0.1,0,0.1C39.8,142.7,39.6,142.4,39.8,142.4z M39.9,142.9c-0.1,0.1-0.1,0.1-0.2,0.1c0,0-0.1-0.1-0.1-0.2
		C39.7,142.9,39.8,142.9,39.9,142.9z M35.7,143.5L35.7,143.5c-0.1-0.1-0.1-0.1-0.1-0.2L35.7,143.5z M26.4,145.4c-0.1,0-0.2,0-0.4,0
		v-0.1c0.1,0,0.2-0.1,0.3-0.1c0-0.1,0.1-0.1,0.2-0.1c0,0-0.1,0.1-0.2,0.1C26.4,145.2,26.4,145.3,26.4,145.4
		C26.4,145.4,26.5,145.4,26.4,145.4C26.5,145.5,26.5,145.5,26.4,145.4C26.5,145.5,26.4,145.4,26.4,145.4z M22.6,144.8
		c-0.1-0.4,0.1-0.3,0.4-0.4c0,0,0,0.1,0.1,0.1c0.1,0.1,0.2,0.2,0.4,0.2c0.1,0,0.1,0.1,0.2,0.1l-0.2,0.3
		C23.4,144.8,22.7,144.8,22.6,144.8z M30.5,142.9c-0.4-0.2-0.6,0.3-0.9-0.2C30,142.2,30.3,142.7,30.5,142.9z M29.3,143.1
		c-0.6,0.1,0.3,0.4-0.1,0.6h0.3c-0.5,0.3-0.4-0.3-0.8-0.2l0.3-0.1c0.2-0.3-0.4-0.2-0.4-0.4C28.9,142.8,29.6,143,29.3,143.1z
		 M23,144.3L23,144.3C23,144.4,23,144.4,23,144.3L23,144.3z M17.8,144.8l0.7,0.2c-0.2,0-0.5-0.1-0.1,0.2c-0.2,0.1-0.4-0.1-0.7-0.1
		c0-0.1-0.1-0.1-0.2-0.2C17.7,144.9,17.8,144.9,17.8,144.8z M16.8,144.9c0,0-0.1,0-0.2,0C16.7,144.9,16.7,144.9,16.8,144.9
		c0.1,0.1,0.1,0.1,0.2,0.2l-0.2,0.1c-0.3,0-0.5-0.1-0.8-0.1c-0.1,0-0.3-0.1-0.4-0.1C16,144.8,16.4,144.6,16.8,144.9z M15.7,143
		c-0.4,0.2-0.4,0.1-0.7,0.1C15.1,143,15.5,143,15.7,143z M15.1,142.9c-0.6,0.3-0.5-0.3-0.9-0.4C14.7,142.2,14.6,142.8,15.1,142.9z
		 M11.8,145c-0.1,0.1-0.2,0.1-0.3,0.1s-0.2,0.1-0.4,0.1l0,0l0,0l0,0c0-0.1,0.1-0.1,0.1-0.2c0.1,0,0.2,0,0.2,0.1
		C11.6,145,11.7,145,11.8,145L11.8,145z M8,144.5L8,144.5L8,144.5C8,144.5,8,144.6,8,144.5c0.1,0.2,0.1,0.2,0.1,0.3l0,0H8l0,0
		c-0.2,0-0.4-0.1-0.3-0.2C7.7,144.5,7.8,144.5,8,144.5c-0.1,0-0.2,0-0.3-0.1l0,0L8,144.5z M10.6,145.8c-0.1-0.1-0.2-0.2-0.2-0.2
		c0.2,0.1,0.4,0.2,0.7,0.2H10.6z M11.4,145.7l-0.1-0.1l0,0c0.1,0.1,0.3,0.2,0.4,0.3C11.6,145.8,11.5,145.7,11.4,145.7z M14.2,145.8
		C14.3,145.8,14.3,145.8,14.2,145.8C14.3,145.8,14.2,145.8,14.2,145.8c-0.2-0.1-0.4-0.2-0.5-0.2c0,0,0-0.1-0.1-0.2l0.1-0.1
		c-0.1,0-0.1,0-0.2-0.1c0-0.1-0.1-0.1-0.2-0.1c0.4-0.2,0.6-0.1,0.7,0.1c0,0,0,0-0.1,0l0.1,0.1c0.1,0.1,0.2,0.2,0.4,0.3v0.1
		C14.5,145.8,14.4,145.8,14.2,145.8z M14.8,145.6c0.2-0.2-0.4-0.2-0.5-0.4c0.1,0,0.3,0,0.4,0c0.1,0.1,0.3,0.2,0.4,0.3
		C15,145.6,14.9,145.6,14.8,145.6z M16.4,145.8l-0.2-0.4h0.5L16.4,145.8z M17.1,145.3c0.1,0,0.3,0,0.4,0s0.1,0,0.2,0s0.1,0,0.2,0
		C17.7,145.3,17.4,145.3,17.1,145.3z M23.5,145.4c0.1-0.1,0.2-0.2,0.3-0.3c0.1,0.1,0.2,0.2,0.4,0.2C24,145.4,23.8,145.4,23.5,145.4z
		 M24.5,145.5c0.1,0,0.1,0,0.2,0c0.2,0,0.3,0.1,0.5,0.1c-0.1,0-0.1,0.2,0,0.5C24.9,146,24.3,145.7,24.5,145.5z M25.4,145.6
		c0.2,0,0.4,0,0.5,0c0.1,0.1,0.3,0.1,0.4,0.2C26.1,146,25.6,145.7,25.4,145.6z M31.9,146.4l-0.2-0.1C32.2,146.1,32,146.2,31.9,146.4
		l0.3,0.2C31.9,146.5,31.9,146.5,31.9,146.4z M33.1,145.8c-0.1,0.3-0.8,0.2-1,0.1C32.4,145.9,33.2,145.8,33.1,145.8z M33.5,145.2
		c-0.2-0.1-0.2-0.1-0.2-0.2c0,0,0.1,0,0.1-0.1C33.5,145,33.6,145.1,33.5,145.2z M36.8,145.4C36.8,145.4,36.9,145.4,36.8,145.4
		c0-0.1,0-0.1,0-0.2c0-0.1,0-0.1,0-0.2l0,0l0,0c0.2,0.2,0.4,0.3,0.7,0.6C37.1,145.9,36.9,145.7,36.8,145.4z M37.3,146.1
		c-0.1,0-0.1,0.1-0.2,0.1L37.3,146.1c0.3-0.2,0.3-0.8,0.8-0.2L37.3,146.1z M39.9,146.2L39.9,146.2L39.9,146.2L39.9,146.2z
		 M51.5,146.1c-0.1,0-0.1,0-0.2,0H51.5c0.2-0.1,0.3-0.2,0.3,0H51.5z M53.3,146c-0.2-0.2-0.7-0.2-0.7-0.5c0.2,0.1,0.5,0.2,0.8,0.3
		C53.3,145.9,53.3,145.9,53.3,146z M59.2,145.9L59.2,145.9L59.2,145.9L59.2,145.9z M74.5,144.8c0.3-0.2,0.4-0.1,0.6-0.1
		C75,144.8,74.7,144.9,74.5,144.8z M75,145c0.6-0.3,0.5,0.3,0.8,0.4C75.3,145.6,75.4,145.1,75,145z"/>
	<path class="st0" d="M88,144.2c0.2,0,0.8,0.2,0.5-0.1C88.2,144,88.2,144.2,88,144.2z"/>
	<path class="st0" d="M87.2,143.9c-0.2,0-0.4-0.1-0.5-0.2C86.9,143.9,87.1,143.9,87.2,143.9z"/>
	<path class="st0" d="M87.2,143.9c0.2,0,0.5,0,0.8-0.1C87.6,143.7,87.5,143.8,87.2,143.9z"/>
	<path class="st0" d="M64.1,146.3l-0.4-0.5C63.6,145.8,63.7,146.2,64.1,146.3z"/>
	<polygon class="st0" points="61.1,146.2 62.1,146.3 61.8,146.2 	"/>
	<path class="st0" d="M51.7,146.7c-0.1-0.1-0.2-0.2-0.3-0.3C51.4,146.4,51.5,146.6,51.7,146.7z"/>
	<path class="st0" d="M41,146.3c-0.1,0-0.2,0-0.3-0.1C40.7,146.4,40.8,146.4,41,146.3z"/>
	<path class="st0" d="M77,141.7c0,0.1,0.1,0.1,0.1,0.1C77.1,141.7,77.1,141.6,77,141.7z"/>
	<path class="st0" d="M75.7,142c0.1,0,0.2,0,0.3,0C76,142,75.9,142,75.7,142z"/>
	<path class="st0" d="M29.6,146.5L29.6,146.5h-0.1H29.6z"/>
	<path class="st0" d="M74.1,142.1l0.9,0.1C74.3,142.1,74.7,141.9,74.1,142.1z"/>
</g>
<g>
	<path class="st0" d="M47,71.3l0.3-0.1C47.2,71.1,47.1,71.2,47,71.3z"/>
	<path class="st0" d="M46,74.3c0-0.1,0-0.3,0.1-0.5C46,74,46,74.1,46,74.3z"/>
	<path class="st0" d="M46.9,69.5v-0.4C46.9,69.2,46.9,69.4,46.9,69.5z"/>
	<path class="st0" d="M46.7,66.9l-0.1,0.4l0,0C46.7,67.3,46.7,67.1,46.7,66.9z"/>
	<path class="st0" d="M45.3,20.1c-0.1,0.1-0.2,0.3-0.2,0.5C45.2,20.6,45.3,20.5,45.3,20.1z"/>
	<path class="st0" d="M44.7,130.9c-0.1,0-0.1,0.1-0.1,0.2C44.6,131.1,44.7,131,44.7,130.9z"/>
	<path class="st0" d="M46.9,69.5L46.9,69.5c-0.1-0.4-0.8,0.6-0.6-0.7l0.2-0.7c0,0.1-0.1,0-0.2-0.1l0.2-0.7c-0.7-1.1,0.4-2.1,0.1-3.3
		c0.1,0.4,0,0.9-0.2,0.7c-0.1-0.2,0-0.6,0.1-0.8L46.4,64l0.5-2.4c-0.2,0.2-0.3,1-0.4,1.1c0-0.5,0-1,0-1.5c0.1,0.2,0.3,0.6,0.4-0.1
		c-0.1-0.1-0.2-0.5-0.3-0.6c0-0.4,0.1-0.8,0.1-1.2c0.1-0.5,0.2-1.1,0.4-1.5c-0.1-0.2-0.2,0.1-0.2,0.3L47,58
		c-0.1,0.2-0.2,0.3-0.3,0.3c0-0.3,0-0.7-0.1-1c-0.1,0.1-0.2,0.2-0.2,0.3c0-0.3,0-0.6,0-0.9V57c0.1-0.5,0-1.3,0.3-1.1
		c-0.1-0.6-0.5-0.7-0.6-1.1l0.3-1.1h0.3c0.1-0.3-0.1-0.2-0.2-0.3l0.2-0.6l-0.1,0.1c-0.2-0.6-0.3-1.2-0.3-1.9c0,0.3,0.1,0.5,0.4,0.4
		c0.2-1.4,0.1-1.2,0.2-2.7v0.1c-0.2-0.7,0.2-1.6-0.2-2.1c0.2-1.2,0.3-2.4,0.1-3.6l-0.2,0.1l0.3-0.7c-0.2,0.4-0.3-0.4-0.4-0.5
		l0.5-2.2c-0.2,0-0.6,0.1-0.6,0.6c-0.2-0.8,0.2-1.7,0.2-2.4l-0.2,0.2l0.2-0.7h-0.3c0.1-1.2-0.2-2.7,0.2-3.1L46,34.6l0.3-1.3L46,34
		c-0.1-1.4,0.2-3.6,0.2-3.9L46,30.2c-0.1-0.2,0-0.4,0.1-0.7l-0.2,0.2c0-0.3,0-0.6,0-0.9c0.1-0.2,0.1-0.4,0.2-0.8
		c-0.1,0.1-0.1,0.4-0.2,0.6c-0.1-1.4-0.5-2.1-0.3-4.1c-0.1-0.6-0.1,0.2-0.2,0.3c0.1-0.2,0.1-0.6,0-1.2v-0.1v-0.1c0,0-0.1,0-0.1,0.1
		c-0.3-0.4-0.2,0.1-0.6,0.2c0-0.1,0-0.3,0-0.5L45,23c-0.1-0.5-0.4-0.1-0.4-0.9c0-0.2,0.1-0.3,0.2-0.3v0.8c0-0.2,0-0.4,0.1-0.7
		c0.2,0.2,0.3,0.6,0.3,0c0,0.1,0,0.2,0,0.3c0-0.3,0-0.8-0.1-1.2c0,0.1,0,0.3,0,0.4C45,21.3,45,21.1,44.9,21c0-0.2,0-0.3,0.1-0.4
		c-0.1,0.1-0.2,0.1-0.2,0.2l0,0c0.1-0.6,0.1-1.4,0.3-1.7L44.8,19c0.2,0.4,0.3,1.5,0,1.7l0,0c-0.1-0.1-0.2-0.3-0.2-0.4
		c0-0.4,0-1,0-1.3c0,0.4,0,0.8-0.1,1.1c-0.1-0.4-0.2-0.8-0.1-1.3c-0.3-1.3-0.8,0.7-0.7-1.1l-0.3,1.2c-0.2-0.3-0.4-0.1-0.3-0.9
		c0.2-0.3,0.4-0.7,0.4-1.2c-0.3,1.7-0.6-1.5-1.1,0.1v-0.6c0,0.1-0.1,0.1-0.1,0.1l-0.1-0.8c-0.1,0.5-0.1,1.6-0.5,1.1l-0.1-1.1
		c-0.3,0.3-0.4-0.1-0.6,0l-0.4,3.3c0.2-0.1,0.3-0.6,0.4-0.4c0.2,0.9-0.3,0.7,0,1.6l0.2-0.4c-0.1,0.1-0.1,0.2-0.1,0
		c-0.2-0.3,0-0.4,0.2-0.4c0.3,0.3,0.1,1.1-0.1,1.4c0.1,1.1,0.5,0.2,0.6,0.4c-0.5,0.6,0.1,1.8-0.1,2.5l0.3-0.4c0.4,0.8,0.1,1.5,0,2
		l0.2-0.2c0,1.1,0.8,1.7,0,2.6l0.2-0.1c0.1,0.5,0.3,1.2,0,1.6c0.1,0,0.2,0.1,0.3,0.3c-0.3,0.3-0.1,0.7,0,1.4
		c0.1-0.5,0.5-0.3,0.6-0.8c0.5,1.1-0.5,1-0.5,1.9c0.2,0.5,0.2-0.5,0.4-0.6c-0.2,1.4,1.1,2.8,0.2,3.7l-0.3-0.6
		C42.9,34.7,42.9,35,43,35c0-0.2,0.1-0.2,0.1-0.3c0.5,1.7-0.6,2.6-0.4,4.3c0.2-0.1,0.2-0.4,0.4-0.4c0.2,0.8-0.9,0.8-0.5,2l0.2-0.2
		c0.1,0.4-0.2,0.7-0.2,0.7c0.8,0,0,2.6,1,3.5c-0.4,0.6-0.7,2.4-0.5,2.9c0.4,0.7,0.5-0.4,0.8-0.4c-0.1,0.2-0.1,0.5-0.1,0.9
		c-0.1,0.3-0.1,0.5-0.1,1c-0.4,0-0.8-1.8-1.1-0.1l0.2,0.2c0-0.2-0.1-0.4-0.1-0.7c0.3-0.5,0.3,0.3,0.4,0.4L43,50.5
		c-0.4,0.1-0.3-0.9-0.4-1.1c0.1,1.4,0.7,3.1,0.4,4.5l0.2-0.1c-0.4,1.7,0.8,1,0.1,2.3c0.1,0.7,0.5-0.3,0.5,0.8c0,0.3-0.2,0.1-0.2,0.1
		c-0.1,0.7,0,0.8,0.1,1c0,0.1,0,0.2-0.1,0.3c0-0.1,0.1-0.2,0.1-0.2c0,0.1,0,0.3-0.1,0.8l0.4-0.2c-0.1,0.3-0.2,0.6-0.2,0.9
		c-0.4,1.1-0.9,2.3-0.7,3.2c0.4-0.1,0.3-0.8,0.6-1.1l0,0c-0.6,1.7-0.2,4-0.5,5.6c-0.3-0.5-0.7,0.7-1-0.3c0.5-0.2,0.2-0.7,0.2-1.3
		c-1.1,0.8,0.4,3.6-0.5,3.9l0.4,0.2c-0.1,0.2-0.4,0.8-0.5,0.4l0.2,1.7c0.3-0.6,1-1.9,0.6-2.3c0.4-0.5,0.2,0.7,0.7,0.3
		c-0.6,1.1,0.2,0.7,0.1,1.9c-0.5-0.6-0.8,1.2-1,1.1c0.1,0.4-0.2,1.3-0.4,1.6c-0.1,0.7,0.3,2.3,0.1,3.4c0.2-0.4,0.4-1.1,0.8-1
		c-0.2,0.5-0.2,1.1,0.2,1.3c0.8-1.9-0.9-0.7-0.4-2.4c0.5-0.4,0.6-0.9,0.8-1.8c0.1,0.2,0.2,0.2,0.2,0.3l0,0l0.2,0.2v-0.1l0,0
		c0.1,0.1,0.1,0.1,0.1,0.3c-0.8,1.1-0.1,2.8-0.6,4.1c-0.3,0.6-0.9,0.1-1,1.5L41.8,79c0.2,1.3-0.3,0.3-0.4,1.4l0.3-0.4
		c0,0.7,0,0.9-0.3,1.3l0.5-0.5c0,0.4,0.1,1-0.2,1c0.1,0.1,0.2,0.1,0.3,0.1c-0.1,0.1-0.1,0.2-0.1,0.6c0.1-0.2,0-0.4,0.2-0.4
		c-0.1,1.3,0.3,0.8,0.4,1c0,0.2,0,0.5,0,0.9c0,0,0,0,0,0.1l0,0v0.1c-0.5,0.5-0.6,1.8-1,2.2l0,0L41,87.6c0.1-0.3,0.3,0,0.3,0.4v-0.1
		c0.1,0.4,0.8-0.5,0.6,0.8l-0.3,0.7c0-0.1,0.1,0,0.2,0.1l-0.2,0.7c0.6,1.1-0.5,2-0.2,3.2c0-0.4,0-0.9,0.3-0.7c0.1,0.2,0,0.6-0.1,0.8
		l0.1-0.1L41,95.8c0.3-0.2,0.4-1.5,0.6-0.9c0.3,0.4-0.1,1-0.1,1.4c-0.2-0.1-0.3-0.9-0.5-0.1c0.1,0.1,0.2,0.9,0.4,0.5
		c-0.3,0.8-0.4,1.9-0.8,2.6c0.1,0.2,0.2-0.1,0.2-0.2L40.7,99c0.1-0.5,0.5,0,0.4-1c0.6,0,0.1,1.4,0.1,2.2l0.5-1.3
		c0,0.1,0.1,0.3,0.1,0.4c-0.1,0.6-0.1,1.3,0,2l0.1-0.1c-0.1,1.8-0.7,3.6-0.8,5.2c-0.2-0.7,0.1-1.2-0.4-1.2c-0.3,1.4-0.2,1.2-0.4,2.5
		v-0.1c0.2,0.7-0.4,1.7,0.1,2.2c0.3-0.3-0.2-1,0.4-1l-0.2,1.7c0.4-0.5,0.2-1.7,0.3-2.4c0-0.5-0.1,1-0.5,0.7c0.1-1.6,0.5-2,1.1-2.7
		c0.4-0.5,0.3,0.7,0.3,1c-0.7,1-1,2.5-0.9,4.1l0.4,0.9c-0.5,0.8-1.2,0.4-1.2,1.8l0.3-0.4c0.1,0.3,0.1,0.5,0.1,0.7
		c0.3-0.6,0.6-1.2,0.9-1.8c0,0,0,0.1,0.1,0.1c-0.1,0.6-0.2,1.2-0.2,1.8c-0.2,0.5-0.5,1.1-0.6,1.6c0.1-0.1,0.1-0.5,0.3-0.6
		c0,1.8-0.9,3.6-1.2,5c0.2,0.6,0.3-1.1,0.7-0.8c-0.2,0.7,0.1,1.6-0.3,1.7c0.6-0.3-0.1,1.7,0.5,0.3c0,1.3-0.2,2.7-0.5,4
		c-0.3,1.4-0.6,2.7-0.9,4c0.2-0.1,0.3-0.1,0.4,0c0.1-0.9,0.4-2.2,0.8-2.6c0.2,0.6-0.5,1.4-0.4,1.5c0.2-0.3,0.2-0.9,0.5-0.9
		c0.2,0.8-0.3,1.2-0.4,1.7l-0.1-0.3c-0.6,1.6-1.1,0.8-1.1,2.6c0.3,0.7,0.3,0,0.7,0.1c-0.2,0.4,0.1,1.8-0.4,2.2l0.1-1.1
		c-0.2,0.7-0.3,1.5-0.5,2c0.1,0,0.2-0.1,0.2-0.2c-0.2,0.6-0.3,1.4-0.6,1.6l0.4,0.2c-0.2-0.4-0.1-1.5,0.2-1.6c0.4,0.1,0,1.2,0,1.7
		c0.4-2.1,1.1-2,1-3.8l-0.2,0.3c-0.2-1.1,0.5-2.2,0.5-3.2c0.1,0.3,0.2,0.4,0.3,0.2c0-0.1,0-0.2,0-0.3l0.2-0.1
		c-0.2,2.2,0.3,2.9-0.1,5.3c0,0.7,0.1-0.4,0.2-0.4c0.2,0.4-0.1,1.2-0.2,1.4c0.4-0.2,0.4-1.2,0.6-0.4c-0.2,0.6,0.4-0.4,0.2,0.6
		l-0.5,0.4c0,0.6,0.4,0.1,0.3,1c-0.3,1-0.5-1.3-0.7,0.3c0,0.8,1,1.8,0.7,3.3c0.2,1.4,0.8-0.7,0.6,1.2l0.4-1.2
		c0.1,0.3,0.4,0.1,0.2,0.9c-0.2,0.2-0.5,0.7-0.6,1.2c0.5-1.7,0.5,1.6,1.1,0l-0.1,0.6c0-0.1,0.1-0.1,0.1,0v0.8
		c0.1-0.5,0.3-1.7,0.6-1.1v1.2c0.3-0.3,0.4,0.1,0.6,0.1l0.8-3.4c-0.2,0.1-0.3,0.6-0.5,0.4c-0.1-0.9,0.4-0.7,0.2-1.6l-0.2,0.4
		c0.1-0.1,0.1-0.2,0.1,0c0.1,0.3-0.1,0.4-0.2,0.4c-0.3-0.3,0-1.2,0.2-1.4c0-1.1-0.5-0.3-0.6-0.5c0.5-0.5,0.1-1.9,0.4-2.5l-0.3,0.4
		c-0.3-0.9,0-1.6,0.2-2.1l-0.3,0.2c0.1-1.2-0.7-1.8,0.3-2.7l-0.2,0.1c0-0.5-0.2-1.2,0.1-1.7c-0.1,0-0.2-0.1-0.2-0.3
		c0.4-0.2,0.1-0.8,0.1-1.5c-0.1,0.5-0.6,0.3-0.7,0.8c-0.4-1.1,0.6-1,0.6-1.9c-0.2-0.6-0.3,0.5-0.5,0.6c0.3-1.4-0.9-3,0.1-3.9
		l0.2,0.6c0.2-0.6,0.2-0.9,0.2-0.8c0,0.2-0.1,0.2-0.2,0.3c-0.4-1.7,0.8-2.7,0.7-4.4c-0.2,0.1-0.2,0.4-0.4,0.4
		c-0.1-0.8,0.9-0.7,0.6-2l-0.2,0.2c-0.1-0.4,0.2-0.7,0.3-0.7c-0.8-0.1,0.2-2.7-0.8-3.7c0.4-0.6,0.9-2.4,0.7-3
		c-0.4-0.8-0.5,0.7-0.9,0.4c0-0.6,0.5-0.9,0.4-1.9c0.4,0,0.8,1.9,1.1,0.1l-0.2-0.3c0,0.2,0.1,0.4,0,0.7c-0.3,0.5-0.3-0.3-0.4-0.4
		l0.2-1.9c0.5-0.1,0.3,1,0.4,1.1c0-1.5-0.6-3.3-0.2-4.7l-0.2,0.1c0.5-1.7-0.8-1.1,0-2.4c-0.1-0.7-0.5,0.2-0.5-0.9
		c0-0.3,0.2-0.1,0.2-0.1c0.2-1.4-0.4-0.6,0.1-1.9l-0.5,0.3c0.4-1.5,1.3-3,1.1-4.4c-0.4,0.1-0.4,0.9-0.7,1.2c0.7-1.7,0.2-4.2,0.6-5.8
		c0.3,0.5,0.7-0.8,1,0.3c-0.5,0.3-0.2,0.8-0.3,1.3c1.1-0.9-0.4-3.8,0.5-4L46.1,88c0.1-0.2,0.4-0.9,0.5-0.4l-0.2-1.8
		c-0.3,0.6-1,1.9-0.6,2.4c-0.4,0.5-0.2-0.7-0.7-0.3c0.6-1.2-0.2-0.7-0.1-2c0.5,0.6,0.7-1.2,1-1.2c-0.1-0.4,0.2-1.3,0.4-1.7
		c0.1-0.7-0.3-2.4-0.1-3.5c-0.2,0.4-0.4,1.1-0.7,1.1c0.2-0.6,0.2-1.2-0.2-1.3c-0.8,2,0.9,0.7,0.4,2.5c-0.5,0.4-0.6,0.9-0.7,1.9
		c-0.2-0.4-0.4-0.2-0.7-0.4c0-0.1,0.1-0.1,0.1-0.2h0.1l0.4,0.4c0.7-1.1,0-2.9,0.5-4.2c0.3-0.6,0.9-0.1,1-1.6l0.3,1.2
		c-0.2-1.4,0.3-0.3,0.4-1.4l-0.3,0.4c0-0.7,0-0.9,0.2-1.3l-0.5,0.6c-0.1-0.4-0.1-1.1,0.2-1.1C46.6,76,46.5,76,46.5,76
		c0.1-0.1,0.1-0.2,0.1-0.7c-0.1,0.3,0,0.4-0.2,0.4c0.1-0.9-0.1-0.9-0.2-0.9c0-0.5,0.1-1.2,0-1.5c0.3-0.6,0.5-1.7,0.7-2l0,0l0.3-1.4
		C47.2,70.2,47,69.9,46.9,69.5z M42.8,68.9l0.2-0.4v0.7L42.8,68.9z M45.5,96L45.5,96l-0.1,0.8l-0.1-0.1L45.5,96z M45.8,89.5
		l-0.2,0.4v-0.7L45.8,89.5z M44.7,90.1L44.7,90.1L44.7,90.1L44.7,90.1z M41.2,124.9L41.2,124.9v0.4C41.2,125.1,41.2,125,41.2,124.9z
		 M41.2,121l-0.2,0.6c0,0,0,0-0.1,0C41.1,121.4,41.1,121.3,41.2,121L41.2,121z M42.6,98c-0.1,0.2-0.1,0.3-0.2,0.3c0-0.1,0-0.2,0-0.3
		C42.5,98,42.6,98,42.6,98z M43.2,107.3C43.2,107.3,43.3,107.3,43.2,107.3C43.3,107.3,43.2,107.3,43.2,107.3z M46,60.6l-0.1,0.5
		c0-0.1,0-0.2,0-0.3L46,60.6L46,60.6C45.9,60.6,45.9,60.6,46,60.6L46,60.6L46,60.6L46,60.6z M45.9,60.1c0-0.2,0-0.5,0.1-0.7
		c0,0.2,0,0.3,0.1,0.4C46,59.9,45.9,60,45.9,60.1z M45.8,53.5c0-0.3,0.1-0.6,0.1-0.9C46.1,53,46,53.3,45.8,53.5z M45.4,32
		c0.1,0.1,0.1,0.2,0.1,0.4C45.4,32.5,45.4,32.3,45.4,32z M43.9,68.2L43.9,68.2c-0.4,0.4-0.2,1.6-0.3,1.9
		C43.5,69.5,43.4,68,43.9,68.2z M42.2,96.5L42.2,96.5L42.2,96.5L42.2,96.5z M43.3,107.2c0-0.1-0.1-0.2-0.1-0.3
		c0.1-0.1,0.2-0.2,0.2,0.1v-0.5C43.6,107,43.5,107.1,43.3,107.2z M46.4,62.4c-0.2-0.2-0.2-0.5-0.1-0.8c0.1,0.2,0.1,0.5,0.2,0.9
		C46.5,62.6,46.4,62.5,46.4,62.4z M46.2,57.4L46.2,57.4C46.2,57.5,46.2,57.5,46.2,57.4L46.2,57.4z M46.2,49.8
		c0.1-0.7,0.2-1.4,0.3-2.1h0.1C46.6,48.8,46.5,49.4,46.2,49.8z M46.5,47.7c0-0.1,0-0.2,0-0.3C46.6,47.5,46.5,47.6,46.5,47.7z
		 M45.9,30.9c0.3,0.7-0.3,0.6-0.3,1.3C45.3,31.2,45.9,31.4,45.9,30.9z M42.6,27.4c0.1-0.4,0.3-0.7,0.2-1.1c-0.1,0.1-0.1,0-0.1,0.3
		l-0.1-0.7c0.4-0.8,0.5,0,0.7,0.6c0.1,0,0.1,0.1,0.2,0.2c0,0.1,0,0.2-0.1,0.3c0,0.1,0.1,0.3,0.1,0.3l-0.1,0.1
		c-0.1-0.1-0.1-0.3-0.1-0.4c0-0.2-0.1-0.3-0.1-0.5C42.9,26.4,42.7,27.2,42.6,27.4z M43.4,22.3c0-0.4,0.2-1,0.4-0.5l-0.1,0.4
		C43.6,22.3,43.5,22.2,43.4,22.3z M43.4,35.5c0.2-0.2,0.1,0.2,0.3,0.4L43.5,37C43,36.9,43.5,36.1,43.4,35.5z M43.5,43.9
		c0.3,0,0.2-1.1,0.3-1.2h0.1c0,0.5-0.1,1-0.1,1.5L43.5,43.9z M43.5,45.2c0.1,0.6,0,1.2,0.2,1.5c0,0,0,0,0,0.1
		C43.4,46.6,43.1,45.5,43.5,45.2z M43.1,62.6L43.1,62.6l0.1-0.8l0.1,0.1L43.1,62.6z M42.7,83.7c0,0.1,0,0.2,0.1,0.3h-0.1
		C42.7,83.9,42.7,83.8,42.7,83.7z M42.1,95.8L42.1,95.8l0.1-0.7L42.1,95.8z M42,95.8L42,95.8v0.8l0.1-0.1c0,0,0,0,0,0.1L42,96.7
		v-0.1h-0.1L42,95.8z M41.6,98.9c-0.2-0.8,0.2-1.6,0.5-1.8c0,0.1,0,0.2,0,0.3l-0.2,0.5l0.1-0.2c0,0.1,0,0.1,0,0.2L41.6,98.9z
		 M41.6,109.3c-0.1,0-0.1-0.1-0.1-0.3C41.5,109.1,41.6,109.2,41.6,109.3c0.1,0,0.2,0,0.2,0c0-0.1,0.1-0.2,0.2-0.3
		c0,0.1-0.1,0.2-0.2,0.3c-0.1,0.3-0.1,0.8,0,1l0,0c0,0.2-0.1,0.4-0.1,0.6C41.7,110.3,41.7,109.7,41.6,109.3z M41.1,117.3l-0.1,0.4
		l-0.1-0.6L41.1,117.3z M40.4,125.5l0.1-0.7l0.3,0.4L40.4,125.5z M40.9,129.7c0-0.1,0-0.3,0-0.4l0,0
		C40.9,129.5,40.9,129.6,40.9,129.7z M40.9,128.5c0.1-0.9,0.2-1.9,0.3-2.9l0.1-0.2C41.2,126.4,41,127.6,40.9,128.5z M41.1,128.8
		c-0.2-0.7,0.3-0.6,0.4-1.3C41.8,128.4,41.2,128.2,41.1,128.8z M41.8,127.6c-0.1-0.1-0.1-0.6,0-1C42,127.2,41.9,127.2,41.8,127.6z
		 M42.4,138.3l0.1-0.4c0.1-0.2,0.2-0.1,0.3-0.1C42.8,138.3,42.5,138.8,42.4,138.3z M44.2,132.6c-0.1,0.4-0.4,0.7-0.3,1.2
		c0.1-0.1,0.1,0,0.2-0.3v0.7c-0.4,0.7-0.5,0-0.6-0.7c-0.1,0-0.1-0.1-0.2-0.2c0-0.1,0-0.2,0.1-0.3c0-0.2-0.1-0.3-0.1-0.3l0.1-0.1
		c0.1,0.2,0.1,0.3,0,0.4c0,0.2,0.1,0.4,0.1,0.6C43.8,133.6,44,132.8,44.2,132.6z M44,124.1c-0.3,0.2-0.1-0.2-0.2-0.4l0.3-1.2
		C44.5,122.8,43.9,123.6,44,124.1z M44.5,114.1c0-0.7,0-1.4-0.1-1.6C44.6,112.4,45,113.8,44.5,114.1z M44.4,115.5
		c-0.3,0-0.3,1.1-0.3,1.2c-0.4,0.2-0.2-0.2-0.4-0.7c0.1,0.3,0.4-0.3,0.4-0.9L44.4,115.5z M44.8,90.2L44.8,90.2
		c0.4-0.4,0.2-1.7,0.3-2C45.2,88.9,45.3,90.4,44.8,90.2z M44.6,87.5c0-0.1,0-0.2,0.1-0.3h0.1c0.1-0.2,0-0.5,0.1-0.7
		C45.1,87.2,44.8,87.2,44.6,87.5z M46,74.3L46,74.3L46,74.3L46,74.3c-0.1,0.2-0.3-0.1-0.3-0.5c0.2,0,0.3-0.1,0.4-0.2
		C46.1,73.7,46,74,46,74.3z"/>
	<path class="st0" d="M44.4,128.8c0,0.2,0,0.3,0,0.5C44.4,129.2,44.5,129,44.4,128.8z"/>
	<path class="st0" d="M46.6,85.4c0-0.1-0.1-0.2-0.1-0.2C46.5,85.3,46.5,85.4,46.6,85.4z"/>
	<path class="st0" d="M46.9,83.5L46.9,83.5C46.9,83.6,46.9,83.6,46.9,83.5L46.9,83.5z"/>
	<path class="st0" d="M45.7,20.7c-0.2,0.3,0.1,0.4,0.1,0.7C45.8,21,46,20.3,45.7,20.7z"/>
	<path class="st0" d="M45.4,22.4c0,0.2-0.1,0.4-0.1,0.6C45.3,22.7,45.4,22.5,45.4,22.4z"/>
	<path class="st0" d="M45.2,23c0,0.1,0,0.1-0.1,0.2C45.2,23.1,45.2,23,45.2,23z"/>
	<path class="st0" d="M47.2,50.1v-0.9c-0.1,0-0.1,0.3-0.2,0.4C47,49.8,47.1,50.5,47.2,50.1z"/>
	<path class="st0" d="M47.4,56.2l-0.5,0.5C46.8,56.8,47.2,56.8,47.4,56.2z"/>
	<polygon class="st0" points="47.2,60.5 47.3,59.1 47.2,59.5 	"/>
	<polygon class="st0" points="46.9,64 47,63.1 46.9,63 	"/>
	<path class="st0" d="M45.6,100.3c-0.5-0.6,0.2-1.5-0.3-1.8C45.4,98.9,45.2,100.4,45.6,100.3z"/>
	<path class="st0" d="M44.5,126.1l-0.2,1.4C44.5,126.4,44.6,127.2,44.5,126.1z"/>
	<path class="st0" d="M38.6,138.5c0-0.1,0-0.2,0.1-0.2C38.6,138.1,38.6,138.2,38.6,138.5z"/>
	<path class="st0" d="M38.6,138.5c-0.3,0.8-0.4,2.1-0.5,2.9C38.7,141.2,38.6,139.2,38.6,138.5z"/>
	<path class="st0" d="M39.3,139.2l0.3-1C39.5,138.7,39.2,138.6,39.3,139.2z"/>
	<polygon class="st0" points="39,138.5 39.1,137.9 38.8,138.4 	"/>
	<path class="st0" d="M41.4,86.3l-0.3,0.1C41.2,86.5,41.3,86.4,41.4,86.3z"/>
	<path class="st0" d="M41.3,88.1v0.4C41.4,88.3,41.4,88.2,41.3,88.1z"/>
	<path class="st0" d="M39.8,115.7c0.1-0.3,0.3-0.6,0.4-1C40.1,114.9,39.8,114.9,39.8,115.7z"/>
	<path class="st0" d="M41.5,90.5l0.1-0.3l0,0C41.5,90.2,41.5,90.3,41.5,90.5z"/>
	<path class="st0" d="M40.4,114.4c0,0.1-0.1,0.2-0.1,0.3C40.4,114.6,40.4,114.5,40.4,114.4z"/>
	<path class="st0" d="M38.7,135.5c0.1-0.1,0.2-0.3,0.3-0.4C38.8,135.1,38.7,135.1,38.7,135.5z"/>
	<path class="st0" d="M42.2,29.1c0.1,0,0.1-0.1,0.1-0.2C42.2,28.9,42.2,29,42.2,29.1z"/>
	<path class="st0" d="M46.8,42.5L46.8,42.5L46.8,42.5z"/>
	<path class="st0" d="M42.6,31.1c0-0.2,0-0.3,0-0.5C42.6,30.7,42.6,30.9,42.6,31.1z"/>
	<path class="st0" d="M42,72.8c0,0.1,0.1,0.2,0.1,0.2C42.1,72.9,42.1,72.8,42,72.8z"/>
	<path class="st0" d="M41.8,74.6L41.8,74.6C41.8,74.5,41.8,74.5,41.8,74.6L41.8,74.6z"/>
	<path class="st0" d="M38.3,134.9c0.2-0.2,0-0.4,0-0.7C38.3,134.5,37.9,135.2,38.3,134.9z"/>
	<path class="st0" d="M38.9,133.3c0-0.2,0.1-0.4,0.2-0.6C39,133,38.9,133.2,38.9,133.3z"/>
	<path class="st0" d="M39.1,132.8l0.1-0.1C39.2,132.7,39.1,132.7,39.1,132.8z"/>
	<path class="st0" d="M38.9,133.3c-0.1,0.3-0.1,0.7-0.1,1.2C39,133.9,38.9,133.6,38.9,133.3z"/>
	<path class="st0" d="M38.9,127.7c0.2-0.1,0.6-1.9,0.6-0.4c0,0,0-0.7,0.2-1.1C39.4,126.8,39.1,126.8,38.9,127.7z"/>
	<path class="st0" d="M40.1,124.7c0-0.1,0-0.3,0-0.4C40,124.4,40,124.5,40.1,124.7z"/>
	<path class="st0" d="M40.5,122.7c-0.2,0.2-0.5,0.4-0.6,0.9c0.3-0.2,0.2,0.2,0.2,0.6C40.2,123.8,40.6,123.4,40.5,122.7z"/>
	<path class="st0" d="M40.1,107.1c0-0.2,0-0.8-0.1-0.5l-0.1,0.9C40.1,107.5,40.1,107.2,40.1,107.1z"/>
	<path class="st0" d="M41.3,103.2l-0.5-0.1c-0.1,0.4,0.3,0,0.2,0.7L41.3,103.2z"/>
	<path class="st0" d="M40.2,100.8l0.6-0.5C40.8,100.2,40.4,100.2,40.2,100.8z"/>
	<polygon class="st0" points="40.7,96.7 40.4,98 40.6,97.6 	"/>
	<polygon class="st0" points="41,94.2 41.1,94.3 41.2,93.3 	"/>
	<path class="st0" d="M43.2,60.2c-0.1-0.4,0.1-1.9-0.4-1.7C43.4,59.1,42.7,59.9,43.2,60.2z"/>
	<path class="st0" d="M42.8,33.7l0.1-1.4C42.8,33.4,42.6,32.6,42.8,33.7z"/>
</g>
<g>
	<path class="st0" d="M159.4,8.4c0.1,0,0.1,0.1,0.2,0.1C159.6,8.5,159.5,8.4,159.4,8.4z"/>
	<path class="st0" d="M77.8,16.1L77.8,16.1c-0.1,0-0.1,0-0.2,0H77.8z"/>
	<path class="st0" d="M112.5,15.3l-0.1,0.2C112.7,15.4,112.6,15.3,112.5,15.3z"/>
	<path class="st0" d="M116.6,15.8c-0.1-0.1-0.3-0.2-0.5-0.3C116.1,15.6,116.2,15.7,116.6,15.8z"/>
	<path class="st0" d="M42.6,13.2c0.1,0.1,0.3,0.2,0.5,0.3C43,13.3,42.9,13.2,42.6,13.2z"/>
	<path class="st0" d="M175.4,8.7c0.2-0.1,0.3-0.3-0.4-0.4h0.7c-0.1,0-0.1-0.1-0.1-0.1l0.9-0.1c-0.1,0-0.2,0-0.3,0
		c0.2,0,0.4-0.1,0.6-0.1c0.1,0,0.2,0,0.3,0h0.1l0,0l0,0c0,0.1-0.1,0.1-0.1,0.2c-0.1,0.1-0.1,0.1-0.2,0.2V8.3V8.2h-0.1h-0.3L176,8.3
		c0.2,0,0.4,0,0.5,0s0.2,0,0.3,0h0.1c0,0,0.1,0,0,0l-0.1,0.1 M178.2,7.4L178.2,7.4c0-0.1-0.1-0.1-0.2-0.1c-0.1,0-0.3,0-0.4,0
		c-0.3,0-0.7,0.1-1.1,0.2l0.3,0.1c-0.6,0.2-1.1,0.2-1.6,0.2c0-0.1,0-0.1,0.1-0.2l1.3-0.2c-0.4-0.3,0.1-0.4,0-0.6l-3.7-0.3
		c0.2,0.2,0.7,0.2,0.5,0.4c0,0,0,0-0.1,0l-2.7-0.3c0.1,0.2,0.7,0.3,0.5,0.4c-1,0.2-0.8-0.3-1.7,0l0.4,0.2c-0.1-0.1-0.2-0.1,0-0.1
		c0.3-0.2,0.5,0,0.5,0.2c-0.3,0.3-1.2,0.1-1.5-0.1c-1.1,0.1-0.4,0.4-0.4,0.6h-0.1c-0.6-0.4-1.9,0.1-2.6-0.1L166,8
		c-0.7,0.3-1.4,0.2-1.9,0.1l-0.4-0.2v0.3c-1.4,0.3-0.3-0.5-1.2-0.3c0.3,0,0.3,0,0.4,0.1c-1.5-0.2-1,0.3-1.6,0.3c0,0,0,0-0.1-0.1
		l0.1,0.1c-0.1,0-0.1,0-0.2,0c0.1,0,0.1,0.1,0.2,0.1c-0.5,0.1-1.2,0.3-1.7,0.1c0,0.1,0,0.1-0.1,0.2c-0.1,0-0.2,0-0.4,0
		c-0.1,0-0.2,0-0.2,0c-0.4-0.1-0.7-0.2-0.8-0.4c-2.9,0.6-6.6,0.3-9.1,0.5c-0.3,0.2,0.2,0.1,0.1,0.2c-1-0.4-3.3,0.6-3.3,0.2
		c-0.5,0.2-0.6,0.5-0.8,0.6c-0.6-0.2-1.4-0.2-2.2-0.2l0.6,0.1l-0.1,0.1l-0.8-0.1l0,0c-2,0-4.3,0.3-6.1,0c0.7,0.1,0.4,0.3,0.2,0.5
		c-0.1,0-0.1,0-0.2,0c-1.1-0.4-3-0.3-4.7-0.1c0,0.1-0.1,0.3,0.1,0.4l-1.1-0.2l0.2,0.2c-1.8,0.3-3.9-0.3-5.1,0.1
		c0.8,0,0.8,0.2,0.9,0.4c-1.3,0.1-2.6,0.2-4.1,0.1c0.1,0,0.1,0.1,0.2,0.1c-0.4,0.1-0.9,0-1.3-0.1v0.3c-0.3,0-0.6,0-0.9,0
		c-0.3-0.2-0.8-0.2-1.2-0.1c0.2,0,0.3-0.1,0.5-0.1c-1-1-3.9,0.8-4.3-0.1l-0.2,0.3h-0.2c-0.3-0.1-0.7-0.3-0.3-0.4l-1.4,0.3
		c0,0-0.1-0.1-0.1-0.2l-1,0.4l-0.3-0.4c-0.8,0.8-1.3-0.2-2.6,0.1c0.1,0.1,0.2,0.1,0.2,0.2c-0.4-0.1-1.4,0-0.7-0.3
		c-0.7,0.1-3,0-2,0.4c-0.1-0.2,0.9-0.1,1.3,0c0,0.3-1.1,0.3-1.3,0.7l0,0c0,0-0.2-0.1-0.3-0.1l-0.1,0.1c-0.1,0-0.2,0-0.3,0
		c0.1,0,0.2,0,0.2,0.1l0,0c-0.8-0.2-1.6-0.1-2.4-0.1c-0.1-0.1-0.2-0.1-0.6-0.1l0.2,0.1c-0.3,0-0.6-0.1-0.8-0.2
		c0,0.1-0.3,0.2-0.7,0.2v-0.4l-1.4,0.1l0.7,0.6c-1.5,0.2-2.6-0.5-3.8-0.5c-0.3,0.7-2.4-0.2-3.5,0.4l1,0.2c-2.1-0.1-2.4,0.3-4.3,0.1
		c1.6-0.2,1.6-0.1,4-0.7c-2.4,0.3-4.1-0.3-6.3,0.1c0.1,0.2,0.7,0.3,0.2,0.4c-0.4-0.4-2.1,0-1.7-0.4c-0.7,0.1-0.8,0.5-1.2,0.6
		l-2.3-0.5l0.1,0.1c-3.9,1-7.3-0.7-11.2-0.3l0.1,0.2l-0.8-0.3c0.5,0.2-0.5,0.2-0.5,0.4l-2.5-0.5c-0.1,0.2,0.1,0.6,0.7,0.6
		c-1,0.2-1.9-0.3-2.8-0.3l0.3,0.2l-1-0.7v0.3c-1.4-0.1-3.1,0.1-3.6-0.3l0.2,0.4l-1.5-0.4l0.8,0.3c-1.6,0.1-4.1-0.3-4.5-0.3l0.1,0.2
		c-0.3,0.1-0.5,0-0.8-0.1L57,12c-2.5-0.1-3.2,0.5-5.9,0.2c-0.8,0.1,0.4,0.1,0.4,0.2c-0.4,0.2-1.4,0-1.6-0.1c0.2,0.4,1.4,0.3,0.5,0.6
		c-0.6-0.2,0.4,0.4-0.7,0.3l-0.4-0.5c-0.6,0.1-0.1,0.4-1.1,0.3c-1.1-0.2,1.4-0.6-0.4-0.6c-0.8,0-1.6,0.9-3,0.9
		c0.1,0,0.2-0.1,0.3-0.1c-0.3,0-1.1-0.4-0.7,0c0,0,0,0,0.1,0c-0.1,0-0.2,0-0.3,0s-0.2,0-0.3,0.1c-0.1,0-0.1,0-0.2,0h0.1
		c-0.1,0.1-0.2,0.1-0.1,0.2c-0.2,0-0.4-0.1-0.6-0.1c0.1,0.1,0.1,0.2,0.3,0.2c-0.2,0-0.3-0.1-0.5-0.1c0,0,0,0-0.1,0l0,0
		c-0.5-0.1-1.1-0.2-1.3-0.4l-0.2,0.4c0.3-0.1,1.1-0.1,1.5,0l-0.2,0.3c-0.4,0-1-0.1-1.4-0.1c0.9,0.1,1.4,0.3,1.9,0.4
		c-0.2,0-0.4-0.1-0.6-0.1c0.3,0,0.5,0.1,0.7,0.1c0.2,0.1,0.4,0.1,0.6,0.2c-0.1,0-0.3,0.1-0.7,0c-0.3-0.2-0.8-0.4-1.3-0.5
		c1.9,0.4-1.7,0.6,0.1,1.1h-0.7c0.1,0,0.1,0.1,0.1,0.1h-0.9c0.6,0.1,1.9,0.2,1.3,0.5l-1.3,0.1c0.3,0.3-0.1,0.4-0.1,0.6l3.8,0.6
		c-0.1-0.2-0.7-0.3-0.5-0.4c1-0.1,0.8,0.3,1.8,0.1L45,16.4c0.1,0.1,0.2,0.1,0,0.1c-0.3,0.1-0.5,0-0.5-0.2c0.3-0.3,1.3-0.1,1.6,0.1
		c1.2,0,0.3-0.5,0.5-0.6c0.6,0.5,2.1,0,2.8,0.2L49,15.8c0.9-0.4,1.8-0.1,2.3,0.1l-0.2-0.3c0.4,0,0.8-0.1,1.1-0.1c0.5,0,1,0,1.6,0.1
		c0.1,0.1,0.2,0.1,0.3,0.2L54,15.5h0.1c0.6,0,1.1,0,1.7,0l0,0l0,0c0.3,0,0.6,0,0.9,0l0.1,0.1v-0.1c0,0,0,0,0.1,0l0.8,0.5l0.1-0.3
		c0.1,0,0.1,0,0.3,0c-0.2,0-0.2,0-0.3-0.1l0,0c0.1,0,0.1,0,0.2,0c0.2,0,0.4,0.1,0.5,0.1c0.2,0.1-0.1,0.4,0.5,0.4
		c-0.3,0-0.3-0.1-0.3-0.1c1.5,0.4,0.8-0.3,1.7-0.2c-0.3-0.3-1-0.2-1.2-0.4c0.1,0,0.2-0.1,0.4,0c-0.1-0.1-0.3-0.2-0.5-0.2l0,0l0,0
		l0,0c1,0.3,2.4,0.3,3.2,0.5c0,0,0,0.1,0.1,0.1s0.2,0,0.3,0c0.2,0.1,0.4,0.2,0.4,0.4c2.8-0.3,6.3,0.2,8.6,0.3
		c0.3-0.1-0.2-0.1-0.1-0.2c0.9,0.5,3.1-0.4,3.1,0c0.4-0.1,0.6-0.4,0.8-0.6c0.6,0.2,1.3,0.3,2.1,0.3l-0.5,0l0.1-0.1l0.8,0.2l0,0
		c1.9,0.1,4.1-0.1,5.8,0.3c-0.3-0.1-0.4-0.1-0.4-0.2c0.1,0,0.2,0,0.2,0c-0.1,0-0.2-0.1-0.2-0.1c0-0.1,0.3-0.3,0.3-0.4
		c0.9,0.6,2.9,0.5,4.6,0.4c0-0.1,0.1-0.2,0-0.3l0,0l0.9,0.2l-0.3,0H89l-0.1-0.1c1.6-0.2,3.2,0.3,4.4,0.2c0.2,0,0.3,0,0.5-0.1
		c-0.7-0.1-0.7-0.2-0.8-0.4c0.5,0,0.9,0,1.4,0c0.8,0,1.6,0,2.5,0.1c0.1,0,0.2,0.1,0.3,0.1c0.1,0,0.3,0,0.5,0c-0.1,0-0.2,0-0.3,0l0,0
		c-0.1,0-0.3,0-0.4,0s-0.1-0.1-0.1-0.1c0.1,0,0.3,0,0.5,0s0.4,0.1,0.6,0.1l0,0c0.1,0,0.2,0,0.2,0v-0.3c0.6,0.1,1.3,0,2,0.1
		c0.1,0.1,0.1,0.3-0.4,0.4c-0.3-0.5-0.9-0.1-1.5-0.2c1,1,4.2-0.7,4.5,0.2l0.2-0.3c0.2,0,0.3,0,0.5,0c0.2,0.1,0.4,0.2,0.1,0.3
		l1.9-0.3c0,0.1,0.1,0.1,0.1,0.2l0.3-0.1c0.1,0.1,0.1,0.1,0.1,0.3l0.7-0.2l0.1,0.1c0.1-0.1,0.2-0.2,0.3-0.2l0.2,0.4
		c0.8-0.8,1.3,0.3,2.5,0c-0.1-0.1-0.2-0.1-0.1-0.2c0.1,0,0.1,0,0.2,0c0,0-0.1,0-0.1,0.1c0.1,0,0.3,0,0.5,0c0.3,0,0.5,0.1,0.1,0.2
		c0.7,0,3,0,1.9-0.3c0.1,0.2-0.6,0.1-1,0c0.6,0,0.9-0.1,0.4-0.3c0,0.1-0.2,0.1-0.5,0.1c0.3-0.2,1-0.2,1.2-0.5c0,0,0.2,0.1,0.3,0.1
		l0.1-0.2c1,0.2,1.9,0.1,2.7,0.2c0,0.1,0.2,0.2,0.5,0.2c-0.1-0.1-0.1-0.1-0.2-0.2c0.2,0,0.3,0.1,0.5,0.2l0.1-0.1h0.6v0.4l1.3-0.1
		l-0.7-0.6c1.5-0.2,2.5,0.4,3.7,0.5c0.3-0.7,2.4,0.1,3.4-0.5l-0.4-0.1c0.6,0,1.2,0,1.8,0c-0.4,0.1-1,0.2-2,0.6
		c2.3-0.4,4,0.2,6.2-0.4c-0.2-0.2-0.7-0.2-0.2-0.4c0.4,0.3,2-0.1,1.7,0.3c0.7-0.2,0.7-0.6,1.1-0.7l2.3,0.4l-0.1-0.1
		c3.7-1.2,7.1,0.2,10.8-0.5l-0.1-0.2l0.8,0.2c-0.5-0.2,0.4-0.3,0.5-0.5l2.5,0.3c0-0.2-0.1-0.6-0.7-0.5c0.9-0.3,1.9,0.1,2.7,0.1
		l-0.3-0.2l0.8,0.1v-0.3c1.3,0,3-0.4,3.5,0.1l-0.2-0.4l1.4,0.3l-0.8-0.2c1.6-0.2,4,0,4.4,0l-0.2-0.2c0.3-0.1,0.5,0,0.7,0l-0.2-0.2
		c2.4-0.1,3-0.7,5.7-0.6c0.7-0.1-0.4-0.1-0.4-0.2c0.4-0.2,1.3-0.1,1.5,0c-0.1-0.1-0.2-0.2-0.4-0.2c0.1,0,0.1,0,0.2,0
		c0.2,0,0.5-0.1,0.7-0.3l0.1,0.1c0.6-0.1,0.1-0.4,1-0.4c1.1,0.1-1.3,0.7,0.5,0.6c0.9-0.1,1.8-1.3,3.5-1.1c1.4-0.4-0.8-0.7,1.2-0.7
		L173,9.7c0.2-0.1,0.2-0.2,0.4-0.3c0.1,0,0.3,0,0.6,0c0.3,0.2,0.8,0.4,1.3,0.4C174,9.2,175,9,175.4,8.7 M138.2,10c0.1,0,0.2,0,0.3,0
		h0.1C138,10.2,138.1,10.1,138.2,10z M157.2,12.1L157.2,12.1L157.2,12.1L157.2,12.1z M150.8,10L150.8,10L150.8,10L150.8,10z
		 M157.7,9.5h0.3l-0.2,0.1C157.8,9.6,157.7,9.6,157.7,9.5z M162.5,8.7v0.1l0,0c0-0.1,0-0.1-0.3-0.1H162.5z M154.5,10
		c-0.3,0-0.5,0-0.8,0c-0.1,0-0.3-0.1-0.4-0.2C153.7,9.9,154.1,10,154.5,10L154.5,10z M118.6,14.7c-0.1,0-0.1-0.1-0.2-0.1
		c0.1,0,0.3,0,0.4,0C118.7,14.6,118.7,14.7,118.6,14.7z M118.2,14.6L118.2,14.6L118.2,14.6L118.2,14.6z M92.4,15.3l-1.2,0.2
		c0.1-0.1,0.2-0.1,0.2-0.2c0.1,0,0.1-0.1,0.1-0.1l0,0c0,0,0,0,0.1,0C91.8,15.1,92,15.1,92.4,15.3z M91.4,15.1
		c-0.4,0.1-0.6,0-0.8-0.1C90.9,15,91.1,15.1,91.4,15.1L91.4,15.1z M90.5,15c-0.2-0.1-0.2-0.3-0.2-0.4c0.3,0.1,0.5,0.2,0.8,0.4
		C90.9,14.9,90.7,14.9,90.5,15z M89.4,14.6L89.4,14.6c0.1-0.1,0.1-0.1,0.2-0.1C89.5,14.6,89.4,14.6,89.4,14.6z M81.9,13.1
		c0,0-0.1,0-0.2,0H81.9L81.9,13.1z M54.2,14.4L54.2,14.4C54.2,14.5,54.2,14.5,54.2,14.4c-0.1,0.1-0.2,0.1-0.3,0c0.1,0,0.1,0,0.1-0.1
		L54.2,14.4z M52,15.1L52,15.1c0.1,0,0.1,0,0.1,0.1C52.2,15.1,52.1,15.1,52,15.1C52.1,15.1,52,15.1,52,15.1z M81.6,15.8
		C81.7,15.8,81.7,15.8,81.6,15.8l0.3,0.1l0,0C81.7,15.9,81.6,15.8,81.6,15.8z M167,11.1c-0.1,0-0.2,0.1-0.2,0.1
		C166.7,11.2,166.8,11.1,167,11.1z M167.1,10.9C167.2,10.9,167.2,10.9,167.1,10.9L167.1,10.9z M162.4,8.6c-0.3,0.1-0.6,0.1-1-0.1
		C161.9,8.6,162.3,8.5,162.4,8.6z M161.2,8.7c0.1,0,0.2,0,0.2,0.1h-0.1C161.3,8.8,161.3,8.8,161.2,8.7z M151.7,9.7
		c-0.4,0-0.7-0.1-1-0.2c0,0,0-0.1-0.1-0.1C150.9,9.4,151.5,9.6,151.7,9.7z M138.3,9.8c0,0-0.1,0-0.2,0l-0.3-0.1
		C138.2,9.7,138.3,9.8,138.3,9.8z M138.1,10.3c-0.1,0-0.3,0-0.5,0.1h-1.1C136.9,10.2,137.8,10.2,138.1,10.3z M136.5,10
		C136.5,10,136.5,10.1,136.5,10c0,0.1-0.1,0-0.1,0C136.5,10,136.5,10,136.5,10z M129.5,11.6c-0.1,0-0.1,0-0.2,0
		c-0.1,0-0.2-0.1-0.2-0.1l0.1-0.1c-0.1,0-0.2,0-0.3,0c-0.2-0.1-0.4-0.2-0.7-0.3C129.2,10.8,129.5,11.3,129.5,11.6z M128.5,10.7
		c0.1-0.1,0.3-0.1,0.4-0.1L128.5,10.7c-0.4,0.2-0.6,0.6-1.1,0.4V11l-0.1,0.1c-0.1,0-0.1-0.1-0.2-0.1L128.5,10.7z M119.2,11.2
		C119.1,11.2,119.1,11.2,119.2,11.2C119.1,11.2,119.1,11.2,119.2,11.2C119.1,11.2,119.1,11.2,119.2,11.2z M118.7,11.1
		c-0.1,0-0.2,0-0.2,0s0,0,0-0.1C118.6,11.1,118.7,11.1,118.7,11.1z M118.2,10.9c0.1,0.1,0.1,0.1,0.2,0.2l-0.1,0.1h0.1
		c-0.2,0-0.4,0.1-0.6,0.1C117.8,11.1,117.8,11,118.2,10.9z M103.1,11.8h-0.4l0,0l0,0l0,0C102.9,11.8,103,11.8,103.1,11.8z
		 M102.7,11.8L102.7,11.8c-0.3,0.1-0.5,0.3-0.6,0H102.7z M99.6,12c0.3,0.2,1.2,0.2,1.3,0.5c-0.8-0.3-1.4,0.5-1.6,0
		c0.3,0,0.4,0.1,0.6,0C99.7,12.3,99.1,12,99.6,12z M84.5,12.6c-0.6-0.2-0.9,0.3-1.4-0.2C83.8,12,84.2,12.4,84.5,12.6z M82.6,12.8
		c-0.9,0.1,0.1,0.4,0,0.5c-0.1,0-0.2,0-0.4,0c-0.1-0.1-0.1-0.1-0.3-0.2c0,0,0,0,0-0.1H82c0.2-0.2-0.1-0.2-0.3-0.3
		c0-0.1-0.1-0.1-0.2-0.2C82.2,12.5,83,12.7,82.6,12.8z M60.6,12.6c-0.6,0.2-0.7,0.1-1.1,0.1C59.7,12.5,60.2,12.5,60.6,12.6z
		 M59.7,12.4c-1,0.3-0.8-0.3-1.5-0.4C59,11.8,58.9,12.3,59.7,12.4z M42.8,13.9L42.8,13.9C42.8,13.9,42.8,13.9,42.8,13.9z M82.3,16.1
		c-0.3,0-0.4,0-0.4-0.1c0.1,0,0.1,0,0.2,0L82.3,16.1z M116.1,15.2L116.1,15.2L116.1,15.2L116.1,15.2z M119.4,15L119.4,15L119.4,15
		L119.4,15z M123.7,14.8L123.7,14.8L123.7,14.8L123.7,14.8z M134.4,13.9c0.3-0.1,0.6-0.1,0.9-0.2c0.1,0,0.1,0.1,0.2,0.1
		C135,14.1,134.7,14,134.4,13.9z M158.7,12.4c0.1,0,0.1,0,0.2,0l-0.2-0.2c0.1,0,0.2,0,0.3,0c0.2,0.1,0.3,0.3,0.7,0.3
		C159.1,12.7,158.9,12.5,158.7,12.4z"/>
	<path class="st0" d="M146.6,14.1h0.1H146.6z"/>
	<path class="st0" d="M43.9,12.8c-0.3,0-1.1-0.4-0.7,0C43.4,13,43.6,12.8,43.9,12.8z"/>
	<path class="st0" d="M106.6,11.7l0.1-0.2C106.4,11.6,106.5,11.7,106.6,11.7z"/>
	<path class="st0" d="M102.4,11.2c0.1,0.1,0.3,0.2,0.5,0.3C103,11.4,102.8,11.3,102.4,11.2z"/>
	<path class="st0" d="M121.9,10.8c0.2,0,0.4,0,0.6,0C122.4,10.7,122.1,10.7,121.9,10.8z"/>
	<path class="st0" d="M56,15.7c-0.1-0.1-0.1-0.1-0.2-0.1C55.8,15.6,55.9,15.7,56,15.7z"/>
	<path class="st0" d="M71.6,11.3L71.6,11.3L71.6,11.3z"/>
	<path class="st0" d="M175.5,9.6"/>
	<path class="st0" d="M142.5,9.5L142.5,9.5c0.1,0,0.2,0,0.2,0H142.5z"/>
</g>
<g>
	<path class="st0" d="M68.4,28.6l0.2,0.2C68.6,28.7,68.5,28.6,68.4,28.6z"/>
	<path class="st0" d="M80.4,15.3c0.1,0.1,0.2,0.1,0.3,0C80.6,15.3,80.5,15.3,80.4,15.3z"/>
	<path class="st0" d="M53.1,42.9C53.1,42.9,53,42.9,53.1,42.9C53,42.9,53.1,43,53.1,42.9z"/>
	<path class="st0" d="M80.9,15.1l-0.3-0.4c0,0.2-0.2,0.5-0.4,0.4c-0.2-0.3,0.2-0.4,0.3-0.5c-0.3,0.2-0.6,0.2-0.8,0.2
		c0-0.2,0.1-0.6-0.4-0.6l0.2-0.1c0,0-0.1,0-0.1-0.1l0.2-0.2c-0.2,0-0.6,0.3-0.7-0.1l0.3-0.4c-0.3-0.1-0.2-0.3-0.4-0.5l-1.4,0.4
		c0.1,0.1,0.4,0.1,0.4,0.2c-0.2,0.3-0.4,0-0.5,0.3l0.3,0.1c-0.1,0-0.1,0-0.1-0.1c0-0.2,0.1-0.1,0.2,0c0.1,0.3-0.3,0.4-0.5,0.3
		c-0.3,0.3,0.3,0.4,0.2,0.6c-0.5-0.2-0.6,0.5-0.9,0.5l0.3,0.1c0,0.5-0.4,0.5-0.7,0.5l0.2,0.1c-0.4,0.3,0,1.1-0.9,0.6l0.1,0.1
		c-0.1,0.2-0.2,0.5-0.5,0.4c0.1,0.1,0.1,0.2,0.1,0.3c-0.3-0.2-0.3,0.1-0.5,0.4c0.2,0,0.4,0.3,0.7,0.3c0,0.1,0,0.1,0,0.1l0,0l0,0
		c-0.1,0.3-0.6-0.3-0.9,0c0,0.3,0.3,0.1,0.5,0.2c-0.2,0.1-0.3,0.2-0.3,0.4c-0.1,0-0.2-0.1-0.2-0.2c-0.1,0.2-0.3,0.4-0.5,0.6v-0.2
		c-0.3,0-0.4,0.1-0.3,0.1c0-0.1,0.1,0,0.2,0c0,0.1-0.1,0.1-0.1,0.2c-0.1,0.1-0.2,0.1-0.3,0.2c-0.4,0.1-1-0.1-1.2,0.3
		c0.1,0.1,0.3,0.1,0.3,0.2l0,0c0,0-0.1,0-0.1,0.1c-0.2,0-0.7-0.4-0.8,0l0.2,0.1c-0.1,0.2-0.3,0.1-0.3,0c0.5,0.6-0.8,0.7-0.5,1.6l0,0
		c-0.5-0.1-1.2,0.1-1.2,0.4c0,0.2,0.1,0.3,0.2,0.3c-0.1,0.1-0.2,0.1-0.4,0.2c-0.1-0.3-0.1-0.7-0.6-0.5l0.1,0.2
		c0-0.1,0.1-0.2,0.2-0.2c0.3,0.1,0.1,0.3,0.1,0.4L69,23c-0.3-0.3,0.1-0.5,0-0.6c-0.4,0.4-0.5,1.4-1.1,1.5L68,24
		c-0.5,0.1-0.3,0.4-0.3,0.6c-0.1,0-0.2,0.1-0.3,0.1c0,0,0,0-0.1,0l0,0c-0.3,0.1-0.6,0.2-0.6,0.4c0.2-0.1,0.3,0,0.4,0.1
		C67,25.3,67,25.4,67,25.4c-0.1,0.1-0.1,0.1-0.2,0.2h-0.1h0.1c-0.2,0.1-0.3,0.2-0.5,0.3c-0.5,0-0.9,0-1,0.3c0.3,0.3,0.5,0,0.8,0.1
		c-0.4,0-0.6,0.1-0.9,0.3l0,0l0,0c-0.2,0.2-0.4,0.4-0.6,0.6c0,0-0.1,0-0.1,0.1c-0.1,0.1-0.2,0.2-0.4,0.2c-0.1-0.4-0.7-0.3-0.6-0.8
		c0.4,0.3,0.3-0.1,0.5-0.2c-0.9-0.5-0.8,1.4-1.4,0.8l0.2,0.3c-0.1,0-0.5,0-0.4-0.2L62,28.2c0.2,0,0.5,0.1,0.7,0c0,0,0,0,0,0.1
		c0.1,0,0.1,0,0.1,0.1c-0.2,0-0.4,0.2-0.4-0.1c-0.1,0.1-0.4,0.3-0.5,0.4l0,0c-0.1,0.2-0.5,0.2-0.7,0.2c-0.2,0.2-0.4,0.9-0.9,1.1
		c0.1,0,0.2,0,0.4,0l-0.1,0.1l0.3,0.2c-0.1,0.1-0.2,0.2-0.1,0.3c-0.3,0.1-0.7,0-0.9,0.1l0.1-0.4c-0.2,0.5-0.3-0.1-0.7,0.1l0.3,0.1
		c-0.2,0.2-0.3,0.3-0.5,0.2l0.5,0.2c-0.1,0.1-0.2,0.4-0.4,0.2c0.1,0.1,0.1,0.2,0.2,0.2c-0.1,0-0.2,0-0.3,0.1c0.1,0,0.1-0.1,0.2,0
		l-0.1,0.1c-0.2,0.2-0.1,0.3,0,0.4c0,0.1,0,0.1,0,0.2l0,0c-0.1,0.1-0.2,0-0.3,0c0.1-0.1,0.1-0.3,0.2-0.7c-0.3,0.5-0.8,0.6-1.1,0.9
		c-0.1,0-0.1,0-0.2,0l0,0l-0.6,0.1c0.1,0,0.2,0.2,0.1,0.4l0,0c0,0.1,0.2,0.3,0.3,0.4c-0.1,0.1-0.2,0.2-0.3,0c0,0.1,0,0.2,0,0.3h-0.2
		H57c0.1,0.1,0.2,0.1,0.2,0.1s0,0,0,0.1H57v-0.3l-0.1,0.1l0,0c-0.1,0-0.1,0-0.2,0h0.1l-0.2,0.2l0.2,0.1l0,0h-0.4h0.1v0.1
		c-0.3,0-0.6,0-0.7,0.4c0,0,0-0.1,0.1-0.1c0.1,0.1,0.1,0.2,0.1,0.2h-0.1H56l-1,0.3c0.1,0,0.2,0,0.3,0c0,0.1-0.1,0.1-0.2,0.2
		c0-0.1-0.1-0.1-0.2,0c0,0,0,0.1,0,0.2c-0.3,0.2-0.6,0.3-0.8,0.5c-0.1,0-0.2,0-0.3,0c0,0.1,0.2,0.1,0.2,0.1v-0.1h0.1v0.1
		c-0.1,0.1-0.2,0.2-0.2,0.3l0.2,0.1h-0.5c0.1,0,0.2,0,0.2,0.1l0,0c0,0.1,0,0.2,0.1,0.3l0,0c0,0,0,0,0,0.1L53,36.8l0.1,0.1l0,0l0,0
		l0,0c0,0,0,0,0,0.1l0,0c0,0.1,0,0.2-0.1,0.2c-0.2,0-0.3,0-0.4,0.1l0.2,0.1l-0.3,0.1l0.2,0.2c0,0,0,0-0.1,0.1c0-0.1-0.1-0.1-0.2-0.2
		C51.9,38,52,38,51.6,38.3h0.1v0.1c-0.4,0.1-0.8,0.3-1,0.7l0.2,0.2l-0.4-0.1c0.3,0,0.1,0.3,0.2,0.4l-0.9,0.1
		c0.1,0.2,0.5,0.5,0.5,0.3v0.1c-0.1,0-0.2,0-0.3,0.2c-0.2,0-0.4,0-0.4,0.1l0.2,0.1h-0.3l0.1,0.1c0,0,0,0.1-0.1,0.1h0.1
		c-0.4,0.2-0.5,0.7-0.9,0.5l0.3,0.3h-0.5l0.4,0.1c-0.3,0.4-1.1,0.6-1.1,0.7l0.1,0.1c0,0.1-0.1,0.1-0.2,0.1l0.2,0.1
		c-0.6,0.5-0.3,1-1.1,1.5c-0.1,0.2,0.2,0,0.3,0c0,0.1,0,0.1,0,0.2c-0.3-0.1-0.5-0.2-0.8,0c0.1,0.1,0.7-0.2,0.6,0.2
		c-0.1,0-0.1,0-0.1,0h0.1c0,0,0,0,0,0.1c0,0,0,0,0-0.1c0.2,0.1,0.3-0.1,0.4,0.1c-0.2,0.1-0.4,0.2-0.7,0.3c0,0-0.1,0-0.2,0.1l0,0
		c-0.1,0-0.2,0.1-0.3,0.1c0.2,0.1,0.3,0.2,0.3,0.3l0,0c0,0.1,0,0.1,0.1,0.2c-0.5,0-0.7-0.3-1,0.2c0.1,0.4,0.2,0.2,0.5,0.5
		c-0.2,0-0.3,0.7-0.7,0.5l0.3-0.3c-0.3,0.1-0.5,0.3-0.8,0.4c0.1,0,0.2,0.1,0.2,0.1c-0.3,0.1-0.5,0.3-0.7,0.2l0.3,0.4
		c0-0.2,0.2-0.6,0.5-0.5c0.3,0.3-0.2,0.4-0.3,0.6c0.7-0.5,1.2,0,1.5-0.7h-0.2c0-0.3,0.3-0.4,0.6-0.5l-0.1,0.1c0,0.5,0.8,0.2,0.4,0.7
		c0.2-0.1,0.3-0.1,0.5-0.2c0.1,0.2,0.3,0.2,0.1,0.4c-0.2,0-0.5,0-0.6,0.1c0.3-0.2,0.4,0,0.5,0.2s0.2,0.3,0.5,0.2l-0.1,0.1H48v0.2
		c0.1-0.1,0.3-0.3,0.6-0.1v0.3c0.3,0,0.4,0.2,0.6,0.2c0.2-0.1,0.5-0.2,0.7-0.3c-0.2-0.1-0.3,0-0.4-0.1c0-0.2,0.3,0,0.2-0.3h-0.2
		c0.1,0,0.1,0,0.1,0.1c0.1,0.1-0.1,0.1-0.2,0c-0.2-0.2,0.1-0.3,0.3-0.2c0.1-0.2-0.4-0.3-0.4-0.4c0.5,0.2,0.3-0.4,0.6-0.4L49.6,47
		c-0.1-0.4,0.2-0.4,0.4-0.4l-0.2-0.1c0.1-0.1,0.1-0.3,0.1-0.4c0.2-0.1,0.4-0.1,0.5,0.2l-0.2,0.3c0.3,0.1,0.2,0.3,0.4,0.5l1.3-0.4
		c-0.1-0.1-0.4,0-0.4-0.2c0.1-0.3,0.4,0,0.5-0.3l-0.2-0.1c0.1,0,0.1,0,0.1,0.1c0,0.2-0.1,0.1-0.2,0c-0.1-0.3,0.2-0.4,0.4-0.3
		c0.3-0.3-0.3-0.4-0.3-0.5c0.5,0.2,0.5-0.5,0.8-0.5l-0.3-0.1c0-0.5,0.4-0.4,0.6-0.5l-1-0.3c0.3-0.3-0.1-1,0.8-0.6l-0.1-0.1
		c0-0.1,0.1-0.2,0.1-0.3c0.1,0,0.1,0,0.1-0.1c0,0,0.1,0,0.2,0c-0.1-0.1-0.1-0.2-0.1-0.2s0.1,0,0.1,0.1c0,0,0-0.1-0.1-0.1
		c0.3,0.2,0.2-0.1,0.4-0.4c-0.1,0-0.2,0-0.3-0.1c0.1-0.1,0.1-0.2,0.2-0.3c0.1,0,0.2,0,0.3,0c0-0.2-0.1-0.2-0.2-0.1
		c0-0.1,0-0.2,0-0.3s0-0.1,0.1-0.2c0.4,0.1,0.8,0,0.9-0.2c0.1,0,0.1-0.1,0-0.1l0,0l0,0c0-0.1-0.1-0.2-0.1-0.2c0-0.1,0.1-0.1,0.2-0.2
		c0.1,0.3,0.2,0.5,0.5,0.4l-0.1-0.2c0,0.1,0,0.2-0.1,0.2c-0.3-0.1-0.1-0.3-0.2-0.4l0.1-0.1c0.2,0,0.3,0,0.5,0
		c0.1,0.2-0.1,0.3-0.1,0.4c0.1-0.1,0.1-0.3,0.2-0.4c0.1,0,0.2-0.1,0.3-0.2c-0.1-0.1-0.2-0.1-0.2-0.1c0-0.1,0-0.1,0.1-0.1
		c0.2,0.1,0.6,0.4,0.7-0.1l-0.2-0.1c0-0.2,0.3-0.1,0.3,0c-0.5-0.6,0.7-0.6,0.3-1.6l0,0c0.1,0,0.2,0,0.3,0c0,0.1,0,0.1,0.1,0.2
		c0-0.1,0-0.1,0-0.2c0.4,0,0.7-0.2,0.7-0.4c0-0.1,0-0.1-0.1-0.2c0.1,0,0.2,0,0.2-0.1c0.1,0.2,0.2,0.4,0.5,0.3l-0.1-0.2
		c0,0.1,0,0.2-0.1,0.2c-0.3-0.1-0.1-0.3-0.2-0.4l0,0l0,0l0,0l0.6-0.4c0.3,0.3,0,0.5,0,0.6c0.2-0.3,0.3-0.8,0.5-1.2
		c0.2,0.2,0.5,0.3,0.5,0.6c-0.4-0.3-0.3,0-0.5,0.1c0.9,0.6,0.5-1.2,1.2-0.6L60,36.4c0.1,0,0.4,0.1,0.4,0.2l0.3-0.6
		c-0.3-0.1-1.1-0.3-0.9,0.1c-0.4-0.2,0-0.3-0.4-0.6l0,0c0.3,0.1,0.3,0,0.3-0.1c0,0,0,0,0.1,0c0.1-0.1-0.1-0.2-0.1-0.3s0-0.1,0.1-0.1
		c0.2,0.5,0.8,0.3,0.9,0.5c0-0.2,0.4-0.2,0.6-0.1c0.2-0.1,0.3-0.8,0.7-0.9c-0.2,0-0.5,0-0.7-0.3l0,0c0.1,0,0.2,0,0.3-0.1
		c0.1,0,0.1-0.1,0.1-0.2c-0.1-0.1-0.1-0.1-0.2-0.1l0,0c-0.2,0-0.3,0-0.3,0s0,0-0.1,0l0,0c0.2,0,0.4-0.1,0.6-0.2
		c0.2,0.2,0.4,0.3,0.7,0.2l-0.1,0.5c0.1-0.5,0.3,0.1,0.6,0l-0.3-0.1c0.1-0.2,0.2-0.2,0.5-0.1l-0.5-0.2c0-0.1,0.2-0.3,0.3-0.1l0,0
		l0,0l0,0l0,0c0.9,0.5,0.6-1.3,1.3-0.7L64,32.8c0,0,0,0,0.1,0l0,0h0.2l0.1,0.1l0.1-0.2h0.1c0,0-0.1,0-0.1-0.1l0.2-0.4
		c0,0-0.1,0-0.2,0l0,0l0,0c-0.1,0-0.1,0-0.2,0l-0.1-0.1c0.2-0.2,0.5-0.4,0.3-0.4c0,0,0.1,0,0.1,0.1c0,0,0-0.1,0.1-0.1h0.1l0,0
		c0.1-0.1,0.4-0.1,0.5,0c0.2-0.1,0.3-0.6,0.6-0.9l0.3-0.1c-0.1,0-0.2,0-0.2,0c-0.1,0-0.1,0-0.2,0l0.3-0.2l-0.3-0.2
		c0.1,0,0.2,0,0.2,0c0.1,0.2,0,0.5,0.3,0.4c0-0.1,0-0.4-0.2-0.4c0.1,0,0.2,0,0.2,0l-0.1,0.3c0.2-0.5,0.3,0.1,0.6-0.1l-0.3-0.1
		c0-0.1,0.1-0.1,0.1-0.1c0.2,0,0.3,0,0.5,0c0-0.1-0.1-0.1-0.2-0.1v0.1l-0.2-0.1h-0.1h-0.1l0,0c0.1,0,0.2,0,0.3-0.1
		c0,0,0-0.1-0.1-0.1c0,0,0.1,0,0.2,0.1c-0.1-0.1-0.1-0.2-0.2-0.2l0,0c0.1,0,0.1,0,0.2-0.1c-0.1,0-0.1,0.1-0.2,0c0,0,0,0,0.1-0.1l0,0
		c0.2-0.2,0.7-0.2,0.6-0.7L67,29.1c0.1,0,0.1-0.1,0.2-0.1s0.2,0,0.2,0l0.2,0.2c0,0.1,0,0.2-0.1,0.3c0.1-0.2,0.3-0.4,0.5-0.5h0.1l0,0
		l0.6-0.1c-0.1,0-0.1-0.1-0.1-0.2c0.2-0.1,0.4-0.3,0.6-0.6c0.1-0.1,0.2-0.1,0.1-0.3c-0.3-0.1-0.1,0.4-0.4,0H69l0,0l0,0
		c0.1,0,0.1,0,0.1,0c0.2-0.1,0.3-0.4,0.5-0.1c0-0.1,0-0.3,0-0.4c0.1,0,0.2-0.1,0.3-0.3c-0.1,0.1-0.2,0.2-0.3,0l0,0v-0.1l0.4-0.1
		c0.1,0.1,0.3,0.1,0.4-0.1h0.2h-0.1v-0.1h0.2l0,0l0,0l0,0l0.1-0.1c-0.1,0-0.1,0-0.2,0c0,0,0-0.1,0.1-0.1c0,0.1,0.1,0.2,0.2,0.1
		c0-0.1,0-0.2-0.1-0.3c0-0.1,0.1-0.1,0.1-0.2c0.3-0.1,0.6-0.2,0.9-0.1c0-0.1-0.1-0.1-0.2-0.1v0.1c-0.1,0-0.2-0.1-0.3-0.1
		c0.2-0.1,0.4-0.2,0.6-0.3c0.1,0.1,0.3,0.2,0.5,0.2L72,25.5c0.6-0.2,1.2-0.4,1.6-1l-0.2-0.2h0.5c-0.3,0-0.1-0.3-0.2-0.5h0.1
		c0,0.1-0.1,0.3,0,0.2l0.2-0.2l0,0l0.7-0.1c-0.1-0.2-0.4-0.5-0.5-0.3c0.1-0.4,0.7-0.3,0.9-0.4l-0.2-0.1l0.3-0.1L75,22.2
		c0.5-0.2,0.7-0.8,1.1-0.6l-0.3-0.3l0.6-0.1H76c0.4-0.4,1.3-0.7,1.4-0.8l-0.1-0.1c0-0.1,0.1-0.1,0.3-0.1L77.3,20
		c0.7-0.5,0.5-1.1,1.4-1.5c0.2-0.2-0.2,0-0.3-0.1c0-0.2,0.4-0.3,0.5-0.3c-0.3-0.3-0.5,0.1-0.5-0.3c0.1,0,0.1,0,0-0.1
		c0.2,0.1,0.3,0.1,0.5,0c0,0,0,0-0.1,0c0.1-0.2-0.2-0.3,0.1-0.5c0.4-0.1,0,0.7,0.5,0.4c0.2-0.2,0-0.8,0.1-1.2l0.1-0.1l0,0
		c0.1-0.1,0.1-0.1,0.2-0.1c0-0.1,0-0.1,0-0.2c0.1,0,0.1,0,0.1-0.1h-0.1c0-0.2-0.2-0.2-0.3-0.3c0.3-0.1,0.5-0.3,0.7-0.3
		c-0.1-0.1-0.2-0.1-0.2-0.1C80.4,15.2,80.6,15,80.9,15.1z M65.5,26.4L65.5,26.4l0.3-0.1v0.1H65.5z M46.8,44.4c0,0,0.1-0.1,0.2-0.1
		C46.9,44.4,46.8,44.4,46.8,44.4z M78.4,17.5L78.4,17.5L78.4,17.5z M61.2,30.2l0.2-0.1c0,0,0-0.1,0.1-0.1l-0.1,0.1
		C61.3,30.2,61.4,30.3,61.2,30.2z M78.4,16.2L78.4,16.2l0.1,0.2c0.1,0,0.1,0,0.1,0s0,0,0,0.1h-0.2c-0.1,0-0.2-0.2-0.2-0.2
		C78.2,16.2,78.3,16.2,78.4,16.2C78.3,16.2,78.3,16.2,78.4,16.2z M79.3,15.2L79.3,15.2C79.3,15.2,79.2,15.2,79.3,15.2L79.3,15.2z
		 M70.4,25.2L70.4,25.2L70.4,25.2l-0.2,0.2l0,0l0,0L70.4,25.2L70.4,25.2C70.3,25.1,70.3,25.1,70.4,25.2L70.4,25.2z M71.9,21.6
		C71.8,21.6,71.8,21.6,71.9,21.6C71.8,21.6,71.8,21.6,71.9,21.6C71.8,21.6,71.9,21.6,71.9,21.6z M65.8,29.7
		C65.7,29.7,65.7,29.7,65.8,29.7l-0.2-0.1l0,0L65.8,29.7C65.7,29.6,65.7,29.7,65.8,29.7z M50.4,43.6C50.3,43.6,50.3,43.6,50.4,43.6
		C50.3,43.6,50.3,43.6,50.4,43.6C50.3,43.6,50.3,43.6,50.4,43.6z M48.8,42.6c0-0.1,0-0.1,0-0.2l0,0C48.9,42.4,48.9,42.5,48.8,42.6
		C48.9,42.5,48.9,42.5,48.8,42.6C48.9,42.6,48.8,42.6,48.8,42.6z M64.2,31.8h0.2c-0.1,0.1-0.2,0.1-0.4,0.1
		C64,31.9,64.1,31.8,64.2,31.8z M70.2,26c0-0.1,0-0.2,0-0.2C70.3,25.9,70.3,25.9,70.2,26z M76.4,16.6c-0.1,0-0.1-0.1-0.2,0l0.2-0.2
		c0.5,0.1,0.3,0.4,0.2,0.7c0,0,0,0.1,0.1,0.1l-0.1,0.1c0,0,0,0-0.1,0v0.1l0,0h-0.1c0-0.1,0-0.1,0.1-0.1c0-0.1,0.1-0.2,0.1-0.2
		c-0.1-0.3-0.5-0.2-0.7-0.3C76.1,16.8,76.4,16.9,76.4,16.6z M71.3,21.6C71.4,21.6,71.4,21.7,71.3,21.6
		C71.4,21.7,71.4,21.7,71.3,21.6L71.3,21.6z M71.2,21.8L71.2,21.8L71.2,21.8L71.2,21.8z M70.9,21.9c-0.1,0.1-0.2,0.2-0.4,0.3
		C70.6,22,70.7,21.9,70.9,21.9z M70.1,22.8h0.2l0,0C70.2,22.8,70.2,22.8,70.1,22.8L70.1,22.8h-0.2C70,22.7,70,22.7,70.1,22.8z
		 M63.2,28.2c-0.1,0-0.1,0-0.2,0c0.1,0,0.1-0.1,0-0.2C63.2,28,63.2,28.1,63.2,28.2z M62.5,28.6c0.1,0.1,0.1,0.1,0.1,0.2
		c-0.2,0-0.3,0-0.5,0C62.1,28.7,62.3,28.7,62.5,28.6z M61.3,29.7c0.1,0,0.2,0.1,0.2,0.1C61.5,29.9,61.4,29.9,61.3,29.7
		c0,0.2,0,0.3-0.1,0.4L61,29.9c0-0.1,0-0.1,0.1-0.1C61.2,29.8,61.2,29.8,61.3,29.7C61.2,29.8,61.2,29.7,61.3,29.7
		C61.2,29.8,61.3,29.8,61.3,29.7z M60.6,30.8c0.2,0.1,0.5-0.1,0.7,0.1c-0.1,0-0.2,0.1-0.2,0.1l0,0c0,0,0,0,0,0.1c0,0,0,0,0,0.1H61
		c0,0,0,0-0.1,0c0,0,0.1,0,0.1-0.1C60.9,31,60.6,30.9,60.6,30.8z M56.1,34.3L56.1,34.3L56.1,34.3z M55.6,34.9
		c-0.1,0.1-0.1,0.2-0.1,0.3c-0.1,0-0.1,0.1-0.2,0.1c0-0.1,0-0.2,0.1-0.4C55.4,34.9,55.5,34.8,55.6,34.9z M48.3,42.3L48.3,42.3
		c0,0.2,0.2,0.1,0.3,0.1c0,0.4-0.4-0.1-0.6,0C48.1,42.2,48.2,42.2,48.3,42.3z M46.9,45.1c0,0.1,0,0.1-0.1,0.2c-0.1,0-0.2,0-0.2-0.1
		C46.7,45.2,46.8,45.2,46.9,45.1z M47.4,46L47.4,46c0.2,0,0.3,0.1,0.4,0.2C47.7,46.2,47.4,46.2,47.4,46z M49,45.3
		c0,0-0.1-0.1-0.1-0.2c0-0.1,0.1,0,0.1,0c0-0.1,0-0.1,0-0.2h0.1c0.1,0.1,0,0.1,0,0.1C49,45.2,49,45.2,49,45.3s0.1,0.1,0.2,0.1
		c0,0.1,0.1,0.1,0.1,0.1v0.1c0.1,0,0.1,0.1,0.1,0.1l0,0l-0.1,0.1C48.9,45.8,48.9,45.6,49,45.3z M52,43.5c-0.2,0-0.3-0.1-0.3-0.2
		c0.1,0,0.2,0,0.3,0s0.1,0.1,0.2,0L52,43.5z M52.3,43.1L52.3,43.1C52.3,43.1,52.4,43.1,52.3,43.1C52.4,43.1,52.3,43.1,52.3,43.1z
		 M53.3,41.1c0.1-0.2,0.3-0.3,0.2-0.4l0,0l0,0C53.7,40.8,53.7,41.3,53.3,41.1z M54.1,40.5c-0.2-0.1,0-0.1-0.1-0.2c0,0,0,0,0.1-0.1
		l0,0C54.2,40.3,54.2,40.3,54.1,40.5C54.1,40.4,54.1,40.4,54.1,40.5z M56.2,38.4L56.2,38.4L56.2,38.4C56.3,38.4,56.3,38.4,56.2,38.4
		z M56.4,38.3L56.4,38.3L56.4,38.3L56.4,38.3z M56.9,37.8L56.9,37.8C57,37.8,57,37.8,56.9,37.8C57,37.9,57,37.9,57,38
		c0,0.1-0.1,0.1-0.2,0.2c0,0-0.1,0-0.2,0C56.7,38,56.8,37.9,56.9,37.8z M57.4,37.5L57.4,37.5l0.2-0.1c0,0,0,0,0,0.1H57.4z
		 M57.4,37.4C57.4,37.3,57.5,37.3,57.4,37.4c0.1-0.1,0.1-0.1,0.2-0.1v0.1C57.6,37.4,57.5,37.4,57.4,37.4z M61.1,34.7
		c-0.1-0.1-0.2-0.1-0.3-0.1c0,0,0-0.1-0.1-0.1c0,0,0,0.1-0.1,0.1c-0.2,0-0.3,0-0.5,0.1l0,0c0,0,0,0,0.1,0l-0.1-0.2l0,0
		c0.4,0,0.8,0,1.1-0.1C61.3,34.5,61.4,34.7,61.1,34.7z M61.5,33.9L61.5,33.9L61.5,33.9C61.4,34,61.4,33.9,61.5,33.9L61.5,33.9z
		 M60.9,33.9L60.9,33.9C60.9,33.9,60.9,33.8,60.9,33.9L60.9,33.9z M63.3,33.5c-0.4-0.3-0.3,0.1-0.5,0.2c-0.1-0.1-0.1-0.2-0.2-0.2
		c0.1,0,0.1,0,0.2-0.1c-0.1,0-0.1,0.1-0.2,0c0.3-0.2,0.1-0.3,0-0.4v-0.1C62.8,33.1,63.4,33.1,63.3,33.5z M64.4,31.8
		C64.4,31.7,64.4,31.7,64.4,31.8C64.4,31.7,64.4,31.7,64.4,31.8C64.4,31.7,64.4,31.7,64.4,31.8z M67.1,30L67.1,30
		C67,30,67.1,30,67.1,30z M67.8,28.6L67.8,28.6c0.1,0,0.1,0.1,0.1,0.2C67.8,28.7,67.8,28.6,67.8,28.6z M69.3,27.6L69.3,27.6
		c-0.1,0-0.2-0.1-0.2-0.2C69.1,27.4,69.2,27.4,69.3,27.6z M71.3,25.4C71.3,25.4,71.3,25.3,71.3,25.4c0-0.1,0-0.1,0.1-0.1
		C71.3,25.3,71.3,25.3,71.3,25.4z M76,20.4c0-0.1,0-0.1,0-0.1c0.1,0,0.2-0.1,0.2-0.1C76.2,20.2,76.1,20.3,76,20.4z M76.4,20.3
		c0.1-0.4,0.4,0,0.6-0.1C76.9,20.6,76.6,20.2,76.4,20.3z M78.5,17.5L78.5,17.5l0.4,0.2C78.6,17.7,78.3,17.8,78.5,17.5z M79.7,15.6
		c-0.1-0.1-0.1-0.1,0.2-0.3h-0.2c0.1-0.1,0.2-0.1,0.3,0L79.7,15.6z"/>
	<path class="st0" d="M53.4,42.1C53.3,42.1,53.3,42.2,53.4,42.1C53.3,42.3,53.3,42.2,53.4,42.1z"/>
	<path class="st0" d="M64.7,31.8c0,0,0,0.1,0,0.2C64.7,31.9,64.7,31.8,64.7,31.8z"/>
	<path class="st0" d="M65.3,31.6L65.3,31.6L65.3,31.6L65.3,31.6z"/>
	<path class="st0" d="M80.6,16c0.1-0.1,0.5,0,0.1-0.2C80.6,15.7,80.7,15.9,80.6,16z"/>
	<path class="st0" d="M80.4,15.6c-0.2,0.1-0.2,0.2-0.3,0.3C80.2,15.8,80.3,15.7,80.4,15.6z"/>
	<polygon class="st0" points="71.2,26.1 71.7,25.8 71.5,25.8 	"/>
	<polygon class="st0" points="70.1,26.7 70.5,26.6 70.4,26.5 	"/>
	<path class="st0" d="M54,41.4l-0.4,0.3C53.9,41.5,53.8,41.8,54,41.4z"/>
	<path class="st0" d="M57.8,32.2L57.5,32C57.6,32.1,57.7,32.2,57.8,32.2z"/>
	<path class="st0" d="M57.3,32.7L57.3,32.7C57.2,32.8,57.3,32.8,57.3,32.7z"/>
	<path class="st0" d="M44.4,46.9c0.1,0,0.2,0,0.3,0C44.5,46.8,44.4,46.8,44.4,46.9z"/>
	<path class="st0" d="M75.2,16.9c0,0,0.1,0,0.1,0.1C75.3,16.9,75.2,16.9,75.2,16.9z"/>
	<path class="st0" d="M74.8,17.7c0.1,0,0.1-0.1,0.1-0.1S74.9,17.7,74.8,17.7z"/>
	<path class="st0" d="M61.9,28.6c0,0.1,0,0.1,0,0.2C61.9,28.7,61.9,28.6,61.9,28.6z"/>
	<path class="st0" d="M61.2,28.9L61.2,28.9L61.2,28.9L61.2,28.9z"/>
	<path class="st0" d="M44.4,46.2c-0.1,0.1-0.5,0.1-0.1,0.2C44.4,46.5,44.3,46.3,44.4,46.2z"/>
	<path class="st0" d="M45.3,46.2c-0.2,0-0.3,0-0.4,0.1C45.1,46.2,45.2,46.2,45.3,46.2z"/>
	<path class="st0" d="M45,46.3c-0.1,0.1-0.2,0.2-0.3,0.4C44.9,46.6,44.9,46.4,45,46.3z"/>
	<path class="st0" d="M51.7,38c0-0.1,0.2-0.3,0-0.3L51.4,38C51.5,38.1,51.6,38,51.7,38z"/>
	<path class="st0" d="M53.3,36l0.5,0.2C53.9,36.2,53.6,35.9,53.3,36z"/>
	<polygon class="st0" points="54.6,35 54.1,35.2 54.4,35.2 	"/>
	<polygon class="st0" points="55.8,34.2 55.5,34.4 55.5,34.5 	"/>
	<path class="st0" d="M66.6,25.1c0.2,0.6-0.6,0.2-0.3,0.7C66.3,25.6,66.9,25.4,66.6,25.1z"/>
	<path class="st0" d="M74.1,18.5l0.5-0.3C74.2,18.4,74.3,18.1,74.1,18.5z"/>
	<path class="st0" d="M64,32.8l0.2,0.2C64.2,32.9,64.1,32.8,64,32.8z"/>
	<path class="st0" d="M61,31C61,31,61.1,31,61,31c0,0,0-0.1-0.1-0.2L61,31z"/>
	<path class="st0" d="M60.6,35.6L60.6,35.6C60.7,35.7,60.7,35.6,60.6,35.6z"/>
	<path class="st0" d="M61.3,35.5L61.3,35.5C61.2,35.5,61.2,35.5,61.3,35.5L61.3,35.5z"/>
	<path class="st0" d="M69.1,28.2c0,0.1-0.1,0.2,0,0.2l0.2-0.2C69.2,28.1,69.1,28.2,69.1,28.2z"/>
	<path class="st0" d="M67.8,29.8l-0.5-0.3C67.2,29.5,67.5,29.9,67.8,29.8z"/>
	<polygon class="st0" points="66.6,30.6 67.1,30.4 66.9,30.4 	"/>
	<polygon class="st0" points="65.6,31.1 65.9,31 65.9,30.9 	"/>
</g>
<g>
	<path class="st0" d="M173.2,12.1l0.1-0.1C173.3,12.1,173.2,12.2,173.2,12.1z"/>
	<path class="st0" d="M173.6,11.9L173.6,11.9C173.5,11.9,173.5,11.9,173.6,11.9z"/>
	<path class="st0" d="M174.1,14.4c0.1,0,0.1,0,0.1,0C174.2,14.4,174.2,14.4,174.1,14.4z"/>
	<path class="st0" d="M173.9,14.5L173.9,14.5L173.9,14.5z"/>
	<polygon class="st0" points="173.9,16.1 173.8,16.2 173.9,16.2 	"/>
	<path class="st0" d="M173.7,11.8c0,0.1-0.2,0.2,0,0.1V11.8z"/>
	<path class="st0" d="M177.2,18h0.3C177.4,18,177.3,18,177.2,18z"/>
	<path class="st0" d="M173.8,17.8L173.8,17.8L173.8,17.8L173.8,17.8C173.7,17.8,173.7,17.8,173.8,17.8L173.8,17.8
		C173.8,17.8,173.9,17.8,173.8,17.8L173.8,17.8L173.8,17.8z"/>
	<path class="st0" d="M176.9,19.4h0.1H176.9z"/>
	<path class="st0" d="M177.3,19.2C177.2,19.2,177.2,19.2,177.3,19.2C177.2,19.2,177.2,19.3,177.3,19.2L177.3,19.2z"/>
	<polygon class="st0" points="177.5,16.8 177.4,16.8 177.4,16.9 	"/>
	<path class="st0" d="M177.6,16.6h0.3C177.8,16.5,177.7,16.6,177.6,16.6z"/>
	<path class="st0" d="M173.2,18.2c0.1,0,0.3,0,0.3,0C173.4,18.2,173.2,18.2,173.2,18.2z"/>
	<path class="st0" d="M177.5,22.7c-0.1,0-0.1,0-0.1,0H177.5z"/>
	<path class="st0" d="M178.4,23.8c-0.2-0.1,0.3-0.1,0.1-0.2h-0.2c0.1,0,0.1,0,0.1,0c0.1,0,0,0-0.2,0.1c-0.3,0-0.1-0.1,0.1-0.2
		c0-0.1-0.5,0-0.6,0c0.5-0.1,0-0.2,0.2-0.3l-0.3,0.1c-0.4-0.1-0.1-0.2,0-0.2h-0.3c0-0.1-0.8-0.2,0.1-0.3h-0.2c-0.1,0-0.3-0.1,0-0.2
		c-0.1,0-0.2,0-0.3,0c0.3,0,0.1-0.1,0-0.2c-0.1,0.1-0.5,0-0.6,0.1l0,0c0,0,0,0,0-0.1c0.2,0,0.5-0.1,0.5-0.1
		c-0.2-0.1-0.2,0.1-0.4,0.1c0.1-0.1-0.2-0.2-0.4-0.2c0.2,0,0.3-0.1,0.3-0.1h0.2c0.2-0.1,0.2-0.1,0.1-0.1h-0.1
		c-0.1,0-0.1-0.1-0.1-0.1c0.1,0,0.2,0,0.3-0.1h-0.1c0,0,0.1,0,0.1-0.1l0,0l0,0c0.2-0.1,0.3-0.1,0.3-0.2c-0.2,0-0.2,0-0.4,0
		c-0.2-0.1,0.9-0.1,0.5-0.2h-0.2c-0.1,0,0.2-0.1,0.2-0.1c-0.8,0,0-0.3-1-0.4c0.4-0.1,0.7-0.3,0.5-0.3c-0.3-0.1-0.4,0-0.6,0
		c0,0,0,0-0.2-0.1c0.1,0,0.1-0.1,0.1-0.1s0,0,0.1,0c0.4,0,0.8,0.2,1,0h-0.2c0,0,0.1,0,0.1,0.1c-0.2,0.1-0.3,0-0.4,0l0.1-0.2
		c0.4,0,0.3,0.1,0.5,0.1c-0.1-0.2-0.7-0.3-0.4-0.5h-0.2c0.1,0,0.1,0,0.1-0.1c0.2,0,0.3,0,0.4,0.1c-0.5,0-0.2,0.1-0.2,0.1
		c1,0-0.5-0.4,0.4-0.4h-0.4c0.1,0,0.3-0.1,0.4,0l-0.2-0.2c-0.3,0-0.9,0.1-0.5,0.2c-0.3,0-0.3,0-0.4-0.1c0.1-0.1-0.4-0.1,0-0.2H176
		l0,0c0.1,0,0.3,0,0.3,0s0.1,0.1,0.3,0.1c-0.3,0-0.2-0.1-0.2-0.1c0.1,0,0.1,0,0.2,0c-0.1,0,0.2-0.1,0.3-0.1c0.1-0.1-0.4-0.3-0.2-0.4
		c-0.1,0-0.3,0.1-0.5,0.1v-0.1h0.1h-0.1c0,0,0,0,0-0.1c0.1,0,0.2,0.1,0.2,0h-0.1c0.2,0,0.1-0.1,0-0.1c0.1,0,0.1,0,0.2-0.1l0.3,0.1
		c-0.2-0.1,0.1-0.1,0.3-0.1c0,0,0.1,0.1,0,0.1c1-0.1-0.5-0.4,0.4-0.4h-0.4c0.1,0,0.3-0.1,0.4,0l-0.2-0.2c-0.3,0.1-0.9,0.2-0.5,0.2
		c-0.2,0-0.3,0-0.4,0c0-0.1,0-0.2,0.1-0.2s0.2-0.1,0.3-0.1l0,0h0.1l0,0l0,0l0.2-0.1H177c0.1,0,0.2-0.1,0.3-0.1
		c0.1-0.1-0.4-0.3-0.2-0.4c-0.1,0-0.2,0-0.4,0.1c-0.1-0.1-0.1-0.1,0.1-0.1c-0.1,0-0.2-0.1-0.3-0.1c0,0,0.1-0.1,0-0.1
		c0.1,0,0.1,0,0.2,0v0.1l0.1-0.1l0.2,0.1c-0.3-0.2,0.3,0,0.4-0.1h-0.3c-0.1-0.1,0-0.1,0.2-0.1h-0.5c-0.1,0-0.1-0.1,0.2-0.1
		c-0.1,0-0.2,0-0.3,0l0,0c0.1,0,0.1,0,0.1-0.1c0,0,0,0-0.1,0c0.1-0.1,0.1-0.2,0.4-0.3c-0.1,0-0.2,0-0.3,0h0.1c-0.1,0-0.2,0-0.2,0
		l0,0c0.1,0,0.3-0.1,0.5-0.1l0,0l0.3-0.1c-0.1,0-0.2,0-0.3-0.1V16c-0.1,0-0.3,0-0.4,0l0.3-0.1h-0.2c-0.1-0.2,0.6-0.3,0.3-0.4
		c0,0,0,0-0.1,0H177l0,0h0.1l0,0l0,0c0,0,0-0.1-0.1-0.1l0,0c0,0,0,0-0.1,0l0,0c0,0,0,0,0.1,0l0,0c0,0,0,0,0.1,0c0,0,0,0-0.1,0l0,0
		l0,0h-0.1c0,0,0,0,0.1,0h-0.1h-0.1c0.1-0.1,0.3-0.1,0.5-0.2c-0.1,0-0.2,0-0.2,0h0.1c0,0-0.1,0-0.2,0c0,0,0,0,0.1,0H177h-0.1h0.2
		l0,0l0,0l0,0h0.1h-0.1c0,0,0,0,0.1-0.1c0.1,0,0.3,0,0.4,0h-0.4c0.1-0.1,0.1-0.3,0.4-0.4c0,0,0,0,0.1,0l0,0h0.1c-0.1,0-0.1,0-0.2,0
		h-0.2h0.4c-0.2,0-0.3,0-0.3,0h0.1c0.1,0,0.4-0.1,0.2-0.2c-0.1,0-0.1,0-0.1,0l0,0c0.1,0,0.1-0.1,0.3,0c0-0.1,0.2-0.3-0.3-0.2
		c0.2,0,0.1,0.1,0,0.1v-0.1c-0.1,0-0.3,0-0.4,0l0,0h0.1l0,0L178,14h-0.2c-0.1-0.1,0.1-0.2,0.2-0.3c0.1,0,0.2,0,0.3-0.1
		c-0.1,0-0.2,0-0.2,0.1c0,0,0.1,0,0.1-0.1h0.1v-0.1l0,0l0,0l0,0c0,0,0,0-0.1,0c-0.1,0.1-0.2,0.1-0.4,0.1c0,0,0,0,0-0.1
		c0.2-0.1,0.5-0.2,0.5-0.3c-0.7,0.1,0.1-0.2-0.3-0.3l0,0l0,0h-0.1l0,0h-0.2l0,0c0-0.1,0-0.1,0-0.2c0.1,0,0.1,0.1,0.6,0.2
		c-0.3-0.2,0.3-0.5-0.1-0.6c-0.1,0-0.2,0.1-0.3,0.1c0.1-0.1,0.2-0.2,0.1-0.2h0.1c-0.1,0-0.2,0-0.3,0c0.3-0.1-0.1-0.1,0.5-0.3H178
		l0.4-0.1c-0.7,0.1,0.3-0.3,0-0.3c-0.1,0-0.1,0.1-0.2,0.1c0.1-0.1,0.1-0.2,0.3-0.2c0-0.1,0-0.4-0.3-0.1c0.2-0.1,0.1,0.1,0,0.2
		c-0.3,0.1-0.2-0.1-0.6,0.1l0.1-0.1l-0.2,0.1c0.3-0.3,0-0.3,0.3-0.6c-0.1,0-0.1,0-0.2,0l0,0l0.4-0.2l-0.1-0.2l-0.3,0.2l-0.1-0.1l0,0
		c0.1-0.2,0.3-0.4,0.3-0.5c-0.6,0.4,0-0.4-0.5-0.2l-0.1,0.2c0-0.3-0.4,0-0.4-0.4c0.3,0,0.2,0.1,0.8,0c-0.4-0.1,0-0.7-0.5-0.6
		c-0.1,0.1-0.1,0.2-0.3,0.3c0.2-0.3-0.2-0.2,0.2-0.4c-0.2,0-0.5,0.3-0.5,0.3c0.1-0.2,0.1-0.4,0.2-0.6v0.1c-0.5,0.2-0.5,0-0.6-0.4
		c0-0.3-0.1-0.7-0.4-0.7L175.6,8l0.1-0.3c0,0.2-0.2,0.2-0.3,0.4c0-0.2,0-0.4,0-0.6c-0.1,0.2-0.3,0.6-0.2,0.5
		c-0.2,0.2-0.1-0.3-0.2-0.4l-0.1,0.2V7.6l-0.1,0.3c-0.1-0.2-0.4,0-0.3-0.4l-0.2,0.4c0-0.1,0-0.3,0-0.4v0.3c0,0-0.4-0.2-0.6-0.3
		c-0.2-0.1-0.4-0.2-0.4-0.2v0.2c-0.1,0.1-0.1,0-0.2-0.1v0.3c-0.2,0-0.4,0.1-0.5,0.2s-0.2,0.2-0.5,0.1c-0.1,0.1,0.1,0.1,0.1,0.2
		c0,0.2-0.2,0.1-0.3,0c0.1,0.4,0.3,0.2,0.2,0.5c-0.1-0.2,0.1,0.3,0,0.3c-0.1-0.2-0.1-0.3-0.2-0.5c-0.1,0.1,0.1,0.4,0,0.4
		c-0.3-0.1,0-0.6-0.3-0.6c-0.1,0.1,0,0.4,0,0.6c0,0.1,0,0.3,0,0.4c0,0.1,0,0.1-0.1,0.1c0,0.1-0.1,0.1-0.2,0.2v0.1v0.1
		c0,0.1,0.1,0.1,0.1,0.1c0.1,0,0.2,0,0.2,0c0.1,0,0.1,0,0.2,0.1c0,0,0,0.1,0,0.2c0.1-0.1,0.2-0.1,0.3-0.1l0,0l0,0l0,0l0,0l0,0l0,0
		l0,0l0,0l0,0l0,0l0,0l0,0l0,0l0,0l0,0l0,0l0,0l0,0l0,0l0,0l0,0l0,0l0,0l0,0l0,0l0,0l0,0l0,0l0.1,0.1c0,0.1,0.1,0.1,0.1,0.2
		c0.1,0.1,0.1,0.1,0.1,0.1c0,0.1,0.1,0.2,0.1,0.3v0.1l0,0c0,0.1,0,0.1,0.1,0.2v0.1l0,0c0,0,0,0,0,0.1v-0.1c0,0-0.1-0.8,0,0.1v-0.2
		c0-0.1,0-0.3,0,0c0-0.1,0-0.2,0-0.3c0,0.3,0,0.1,0,0c0,0,0-0.1,0-0.2v-0.1v0.1v-0.1l0,0l0,0l0,0c0-0.1,0-0.1,0-0.3
		c0,0.1,0.1-0.1,0.2-0.3c0.1-0.2,0.2-0.2,0.1,0.2l-0.2,0.2c0,0.2,0,0.2,0,0.1v-0.1c0.3-0.3,0,0.4,0,0.5c-0.1,0.1-0.1,0.3-0.2,0.5
		l0,0v0.1l0,0c0,0.1,0,0.2-0.1,0.5l-0.1,0.1c-0.1,0.3-0.1,0.4-0.2,0.6c0,0.2-0.1,0.3-0.1,0.5c0.1-0.2,0.1-0.3,0.1-0.4
		c0.1-0.1-0.1,0.3,0,0.1l0.1-0.2c0,0.1,0,0.1,0,0.1c-0.1,0.1,0,0,0.1-0.2c0.1-0.3,0.1-0.1,0,0.1l0.2-0.5c-0.2,0.4,0.1,0,0,0.2
		l0.1-0.3c0.2-0.3,0.1,0,0,0.1l0.1-0.2c0,0.1,0.5-0.6,0,0.1l0.1-0.1c0.1-0.1,0.2-0.2,0.1,0c0.1-0.1,0.1-0.2,0.2-0.2
		c-0.2,0.3,0,0.1,0,0.1c0-0.1,0.3-0.4,0.4-0.5c0.4-0.3-0.3,0.4-0.2,0.4c0.2-0.1,0.1-0.2,0.2-0.3c0,0.1,0.2,0,0.3-0.1
		c0.2-0.1,0.3-0.1,0,0.2l-0.2,0.2c-0.1,0.2-0.1,0.2,0,0.1c0,0,0,0,0.1-0.1c0.2-0.1,0.1,0,0,0.2s-0.3,0.3-0.2,0.3
		c0.1-0.1,0.2-0.1,0.3-0.2c0.2-0.1-0.7,0.5-0.4,0.4l0.2-0.1c0.1,0-0.1,0.1-0.2,0.1c0.6-0.4,0,0.1,0.9-0.3c-0.1,0.1-0.1,0.1-0.2,0.1
		c-0.1,0.1-0.2,0.1-0.3,0.2c0.4-0.3,0.1-0.1,0.1-0.2c-0.4,0.3-0.3,0.3-0.1,0.2h0.1l0,0c0,0-0.1,0.1-0.2,0.1l0.3-0.2l-0.1,0.1
		c-0.1,0-0.2,0.1-0.3,0.2h0.1c0.1,0,0.1,0,0.2,0c0.1,0,0.1-0.1,0.2-0.1l-0.1,0.1c-0.4,0.2-0.3,0.1-0.5,0.1c0.1,0,0.3,0,0.4,0l0,0
		l0,0l0,0h0.1c0,0,0,0,0,0.1l0.2-0.1c-0.2,0.1,0.1,0.1,0.2,0l0,0l0,0c-0.1,0-0.1,0-0.2,0c0.3,0-0.3,0.1-0.3,0.2l0.3-0.1
		c0.1,0,0,0-0.2,0.1l0.5-0.1l0,0l0,0c0,0-0.1,0-0.2,0.1c0.1,0,0.1,0,0.2,0c0,0.1,0,0.1,0,0.1s-0.1,0-0.3,0c0.5-0.1,0,0.1,0.3,0.1
		l0,0c-0.1,0-0.1,0-0.1,0l0,0l0,0l0,0c-0.1,0-0.2,0.1-0.3,0.1c0.1,0,0.2,0,0.3,0c-0.1,0.1-0.2,0.2-0.2,0.2c0.1,0,0.1,0,0.2,0
		c-0.2,0-0.2,0.1-0.1,0.2c-0.2,0-0.5,0.1-0.7,0.1c0.5-0.1,0.2-0.1,0.2-0.1c-1,0.2,0.5,0.2-0.4,0.3h0.4c-0.1,0-0.3,0.1-0.4,0.1
		l0.2,0.1c0.1,0,0.3-0.1,0.4-0.1c0,0,0.2,0.1,0.3,0.1c-0.1,0-0.2,0.1-0.3,0.1c0.1,0-0.1,0.1-0.3,0.1c0,0.1,0.4,0.1,0.2,0.2h0.1v0.1
		l0,0h-0.1c0,0,0,0,0.1,0h-0.1c-0.1,0-0.3,0-0.4,0.1h0.3l0,0l0,0l0,0c0.1,0,0,0.1-0.2,0.1h0.3c-0.1,0.1-0.3,0.3-0.3,0.4h-0.1
		c0.1,0,0.1,0,0.1,0l0,0c0,0,0,0,0.1,0l-0.2,0.1c0,0,0.1,0,0.2,0c0,0.1,0.4,0.2,0.1,0.2h0.1c-0.1,0.1-0.3,0.2-0.1,0.2
		c0.1,0,0.1-0.1,0.3-0.1c0,0-0.1,0-0.1,0.1v-0.1l-0.1,0.1h0.1l0,0l0,0l0,0l0,0l0,0h0.1h0.1l-0.2,0.1l0,0c-0.1,0.1-0.1,0.2-0.2,0.3
		h-0.1h0.1c0,0,0,0-0.1,0.1c-0.1,0-0.2,0-0.2,0h0.2c-0.1,0-0.1,0.1-0.2,0.1c0.3-0.1,0.5,0,0.7,0c-0.7,0-0.7,0.2-0.6,0.4
		c0.1,0,0.2,0,0.3,0l0,0l-0.2,0.1h0.2v0.1c-0.1,0-0.2,0-0.3,0l0.2,0.1c0,0,0,0-0.1,0h-0.3c0.1,0,0.1,0,0.2,0c-0.1,0-0.1,0.1-0.1,0.1
		c-0.1,0-0.3,0.1-0.2,0.1s0.1,0,0.2,0c-0.1,0-0.1,0.1-0.3,0c0,0.1-0.2,0.3,0.2,0.2c-0.2,0,0-0.1,0.1-0.1c0.3,0,0.2,0.1,0.4,0.1l0,0
		h0.1c0,0,0,0,0.1,0l0,0H174l0,0c0,0-0.1,0-0.2,0.1h0.2c-0.1,0.1-0.1,0.2-0.3,0.2l0,0l0,0c0,0-0.1,0-0.2,0c0.1,0,0.2,0,0.2,0.1h-0.4
		v0.1h0.5c-0.1,0-0.1,0.1-0.1,0.1s0.1,0,0.2,0c-0.1,0.1-0.3,0.1-0.4,0.2c0,0-0.1,0-0.2,0h0.1c-0.1,0-0.1,0-0.1,0.1h0.1h-0.2
		c0.7,0.1-0.3,0.1-0.1,0.2c0.1,0,0.1,0,0.2,0c-0.1,0-0.1,0.1-0.3,0c0,0.1-0.2,0.3,0.2,0.2c-0.2,0,0-0.1,0.1-0.1c0,0,0,0,0.1,0
		c0.1,0.2-0.3,0.3-0.2,0.5c-0.1,0-0.2,0-0.2,0c0.1,0,0.2,0,0.2,0s0,0,0.1,0.1h-0.2v0.1h0.5c0,0,0,0.1-0.2,0.1c0,0,0.1,0,0.2,0.1
		c-0.2,0.1-0.5,0.1-0.6,0.2c0.7,0.1-0.3,0.2,0.3,0.3l0.2-0.1c-0.1,0.2,0.3,0.2,0,0.4c-0.2-0.2-0.1-0.2-0.6-0.4
		c0.3,0.2-0.4,0.4,0,0.6c0.2,0,0.3,0,0.4,0c-0.4,0,0,0.2-0.4,0.1c0.1,0,0.2,0.1,0.3,0.1c0,0.1,0,0.1,0.1,0.2L173,21h0.1
		c0.2,0.1,0.3,0.1,0.3,0.2l-0.2,0.1c0.1,0,0.1,0,0.2,0c-0.1,0.2-0.9,0.4-0.6,0.7h0.2l-0.3,0.1c0.2-0.1,0.3,0,0.5,0.1l-0.5,0.2
		c0.2,0,0.6,0,0.6,0c0.2,0.1-0.2,0.2-0.3,0.2h0.2l-0.2,0.1h0.3c-0.1,0.1,0.1,0.3-0.3,0.3h0.4l-0.4,0.1l0.3-0.1
		c0.1,0.2-0.3,0.4-0.3,0.4h0.2c0.1,0,0,0-0.1,0.1h0.3c-0.1,0.2,0.5,0.3,0.2,0.5c0.1,0.1,0.1,0,0.2,0c0.2,0,0,0.1-0.1,0.1
		c0.4,0,0.3-0.1,0.6,0c-0.2,0,0.4,0,0.3,0.1h-0.5c0.1,0.1,0.4,0,0.3,0.1c-0.2,0.1-0.6-0.2-0.6,0c0,0.1,1.2,0.2,0.9,0.4
		c0.3,0.1,0.8,0,0.6,0.1l0.3-0.1c0.1,0,0.4,0,0.3,0.1c-0.2,0-0.4,0.1-0.5,0.1c0.4-0.2,0.6,0.2,1.1,0V25h0.1v0.1
		c0.1,0,0.2-0.2,0.5-0.1l0.1,0.1c0.3,0,0.4,0,0.6,0l0.6-0.3c-0.2,0-0.3,0-0.4,0c-0.1-0.1,0.3-0.1,0.1-0.2h-0.2c0.1,0,0.1,0,0.1,0
		c0.1,0,0,0-0.2,0c-0.3,0-0.1-0.1,0.1-0.1c0-0.1-0.5,0-0.6-0.1c0.5,0,0-0.2,0.2-0.2h-0.3c-0.4-0.1-0.1-0.2,0.1-0.2H177
		c0.1-0.1-0.8-0.2,0.1-0.3h-0.2c0,0-0.1,0-0.1-0.1c0.1,0,0.2,0,0.3-0.1v0.1h0.1v0.1c0.1-0.1,0.1-0.2,0.5-0.1l0.1,0.1
		C178.1,23.7,178.2,23.7,178.4,23.8l0.5-0.5C178.7,23.8,178.6,23.8,178.4,23.8z M176.7,21.9C176.7,21.9,176.7,22,176.7,21.9
		C176.6,22,176.6,22,176.7,21.9C176.6,22,176.6,21.9,176.7,21.9z M177.1,18.6c0.2,0,0.3,0,0.5,0.1c-0.1,0-0.2,0-0.2,0l0,0
		L177.1,18.6L177.1,18.6z M172.1,9.9L172.1,9.9L172.1,9.9C172.2,9.9,172.2,9.9,172.1,9.9z M172.1,9.5L172.1,9.5
		c0.1,0.1,0.1,0.2,0.1,0.2l0,0C172.2,9.7,172.2,9.6,172.1,9.5z M172.3,9.8C172.2,9.8,172.2,9.8,172.3,9.8
		C172.2,9.8,172.2,9.8,172.3,9.8C172.2,9.8,172.2,9.8,172.3,9.8C172.2,9.8,172.2,9.8,172.3,9.8C172.2,9.8,172.2,9.8,172.3,9.8
		C172.2,9.9,172.2,9.9,172.3,9.8C172.2,9.8,172.2,9.8,172.3,9.8C172.2,9.8,172.2,9.8,172.3,9.8C172.2,9.8,172.2,9.8,172.3,9.8
		C172.2,9.9,172.2,9.9,172.3,9.8C172.2,9.9,172.2,9.9,172.3,9.8C172.2,9.9,172.2,9.9,172.3,9.8C172.2,9.8,172.2,9.8,172.3,9.8
		L172.3,9.8C172.2,9.8,172.2,9.8,172.3,9.8C172.2,9.8,172.2,9.8,172.3,9.8C172.2,9.8,172.2,9.8,172.3,9.8
		C172.2,9.8,172.2,9.8,172.3,9.8C172.2,9.8,172.2,9.8,172.3,9.8C172.2,9.8,172.2,9.8,172.3,9.8C172.2,9.8,172.2,9.8,172.3,9.8
		C172.2,9.8,172.2,9.8,172.3,9.8C172.2,9.8,172.2,9.8,172.3,9.8L172.3,9.8C172.2,9.8,172.2,9.8,172.3,9.8L172.3,9.8L172.3,9.8
		L172.3,9.8C172.3,9.8,172.3,9.7,172.3,9.8C172.3,9.7,172.3,9.7,172.3,9.8C172.3,9.7,172.3,9.7,172.3,9.8
		C172.3,9.7,172.3,9.7,172.3,9.8L172.3,9.8L172.3,9.8L172.3,9.8L172.3,9.8C172.3,9.9,172.3,9.8,172.3,9.8z M172.3,10.1L172.3,10.1
		L172.3,10.1z M172.3,10.1L172.3,10.1C172.3,10.2,172.3,10.2,172.3,10.1L172.3,10.1z M172.4,9.5L172.4,9.5
		C172.4,9.6,172.4,9.6,172.4,9.5C172.4,9.6,172.4,9.6,172.4,9.5C172.4,9.6,172.4,9.6,172.4,9.5C172.4,9.6,172.4,9.6,172.4,9.5
		C172.4,9.6,172.4,9.6,172.4,9.5c0,0.1,0,0.1-0.1,0.1l0,0l0,0l0,0l0,0l0,0C172.3,9.7,172.4,9.6,172.4,9.5
		C172.4,9.6,172.4,9.6,172.4,9.5C172.4,9.6,172.4,9.6,172.4,9.5C172.4,9.6,172.4,9.6,172.4,9.5L172.4,9.5L172.4,9.5L172.4,9.5
		L172.4,9.5z M172.5,10.4C172.5,10.5,172.5,10.5,172.5,10.4L172.5,10.4z M172.7,10.6c0,0.1,0,0.1,0,0.1v0.1
		c-0.1-0.4-0.1-0.5-0.1-0.6s0-0.1,0-0.2c0,0,0,0,0,0.1V10v0.1c0,0.1,0,0.1,0,0.1v0.1c0,0.3,0.1,0.5,0.1,0.6
		C172.8,10.7,172.7,10.4,172.7,10.6z M172.9,10.5L172.9,10.5c0-0.1,0-0.3,0-0.4C173,9.8,172.9,10.3,172.9,10.5z M176.3,22.9
		L176.3,22.9C176.4,22.9,176.4,22.9,176.3,22.9C176.4,22.9,176.4,23,176.3,22.9C176.3,23,176.3,23,176.3,22.9
		C176.3,23,176.3,23,176.3,22.9L176.3,22.9C176.2,22.9,176.3,22.9,176.3,22.9z M176.4,22C176.3,22,176.3,22,176.4,22
		c-0.1,0-0.1,0-0.2,0c0,0,0,0-0.1,0l0.1-0.1C176.2,21.9,176.3,22,176.4,22C176.4,22,176.3,22,176.4,22z M174.4,14.1L174.4,14.1h0.3
		l0,0c-0.1,0-0.1,0-0.2,0C174.5,14.1,174.5,14.1,174.4,14.1z M173.7,11.2l0.1-0.1l0,0C173.8,11.1,173.8,11.1,173.7,11.2
		c0.1-0.1,0.2-0.1,0.2-0.2v0.1C173.8,11.2,173.8,11.2,173.7,11.2C173.8,11.2,173.8,11.2,173.7,11.2
		C173.7,11.3,173.7,11.3,173.7,11.2C173.7,11.3,173.7,11.3,173.7,11.2C173.7,11.3,173.7,11.3,173.7,11.2L173.7,11.2z M173.2,10.9
		v-0.1c0,0,0-0.1,0.1-0.2C173.4,10.6,173.3,10.8,173.2,10.9L173.2,10.9z M176.9,16.8L176.9,16.8C176.8,16.8,176.8,16.8,176.9,16.8
		L176.9,16.8z M175.8,23.5c0.1,0,0.2,0,0.3,0C176.1,23.5,176,23.6,175.8,23.5L175.8,23.5L175.8,23.5z M176.4,22
		c-0.1,0-0.1,0-0.2-0.1l0,0C176.6,21.9,176.5,21.9,176.4,22z M176.3,21.1c-0.2,0-0.2,0.1-0.3,0.1c-0.2,0-0.3-0.1,0.1-0.1l0,0H176.3z
		 M176.4,21c0,0,0-0.1-0.1-0.1C176.3,20.9,176.4,20.9,176.4,21c0-0.1-0.1-0.1-0.1-0.1l0,0l0,0C176.4,20.8,176.7,20.9,176.4,21z
		 M176.1,20.8c-0.1,0-0.1,0-0.2,0C175.9,20.8,176,20.7,176.1,20.8C176.1,20.7,176.1,20.8,176.1,20.8z M176.2,19.5h-0.3l0,0l0,0
		C176,19.5,176.1,19.5,176.2,19.5C176.1,19.5,176.2,19.5,176.2,19.5z M176.6,19.1c-0.1,0-0.1,0-0.1,0c0.1,0,0.1-0.1,0.1-0.1
		S176.7,19,176.6,19.1z M176.8,17.3c-0.1,0-0.1,0-0.1,0S176.7,17.3,176.8,17.3L176.8,17.3C176.9,17.3,176.9,17.3,176.8,17.3z
		 M177,16.8h0.2C177.2,16.8,177.1,16.8,177,16.8h-0.1l0,0C176.9,16.8,176.9,16.8,177,16.8L177,16.8z M177.5,15.8L177.5,15.8
		C177.4,15.8,177.4,15.8,177.5,15.8C177.4,15.8,177.4,15.8,177.5,15.8z M177.3,15.3L177.3,15.3L177.3,15.3L177.3,15.3z M177.6,14.7
		L177.6,14.7h0.1C177.7,14.7,177.6,14.7,177.6,14.7z M177.3,10.6l0.1-0.1l0,0C177.3,10.5,177.3,10.5,177.3,10.6L177.3,10.6z
		 M176,9.4C176,9.3,176,9.3,176,9.4c0-0.1,0-0.1-0.1-0.2c0,0,0-0.1,0.1-0.1C176.3,8.9,176.1,9.2,176,9.4z M173.7,8.2
		c-0.2,0.2-0.2,0.1-0.2,0C173.5,8.1,173.7,8.1,173.7,8.2z M173.6,7.9c-0.3,0.2-0.1-0.3-0.2-0.4C173.5,7.3,173.4,7.8,173.6,7.9z
		 M173.4,9.9v0.2c-0.2,0.5-0.1-0.1-0.1,0C173.3,9.9,173.3,10.1,173.4,9.9z M173.4,11.8c0-0.1,0.2-0.3,0.1-0.2
		C173.4,11.7,173.4,11.7,173.4,11.8L173.4,11.8c0.1-0.3,0.2-0.4,0.3-0.5v0.1C173.5,11.5,173.5,11.7,173.4,11.8z M174.3,11.6
		c0.2-0.2,0.1,0,0.2-0.1v0.1C174.4,11.5,174.4,11.5,174.3,11.6c0.1,0,0.1,0,0.2,0v0.1C174,11.9,174.4,11.5,174.3,11.6z M174.6,12.1
		c0.2-0.1,0.2-0.2,0.2-0.2c0.1,0,0.1-0.1,0.2-0.1c0,0,0,0,0,0.1l0,0l0,0L174.6,12.1z M174,12.6c0.1,0,0.1-0.1,0.1-0.1
		C174.1,12.6,174.1,12.6,174,12.6C174,12.7,174,12.7,174,12.6z M174.7,12.3c0.1-0.1,0.2-0.1,0.4-0.2c0,0-0.4,0.2-0.2,0.2
		c-0.1,0-0.3,0.1-0.4,0.1C174.6,12.4,174.7,12.3,174.7,12.3z M174.4,14.2C174.5,14.2,174.5,14.2,174.4,14.2c0.1,0,0.2,0,0.2,0H174.4
		c0.1,0,0.2,0,0.3,0C174.7,14.2,174.6,14.2,174.4,14.2z M174.2,16.4L174.2,16.4H174C174.1,16.4,174.1,16.4,174.2,16.4L174.2,16.4
		L174.2,16.4z M173.7,18.3L173.7,18.3C173.7,18.2,173.7,18.2,173.7,18.3L173.7,18.3C173.8,18.2,174,18.3,173.7,18.3z M173.7,19.2
		h-0.1c0,0,0,0-0.1,0C173.6,19.2,173.6,19.2,173.7,19.2z M173.1,19.6c0.1,0,0.1,0,0.2,0l0,0H173.1z M173.3,19.6L173.3,19.6
		C173.4,19.6,173.4,19.6,173.3,19.6c0.1,0,0.1,0,0.1,0C173.5,19.6,173.5,19.6,173.3,19.6C173.4,19.6,173.4,19.6,173.3,19.6z
		 M173.4,21.3L173.4,21.3L173.4,21.3L173.4,21.3z M173.2,23.6c-0.3-0.1,0.3,0,0.4-0.1C173.9,23.6,173.3,23.5,173.2,23.6z
		 M173.4,19.9h0.1c0.1,0,0.1,0,0.2,0C173.5,19.9,173.4,19.9,173.4,19.9z M173.6,19.3C173.6,19.3,173.6,19.2,173.6,19.3L173.6,19.3
		C173.7,19.3,173.7,19.3,173.6,19.3z M173.8,23.5c-0.1,0-0.1-0.1-0.1-0.1C174,23.5,173.9,23.5,173.8,23.5z M173.9,18.5
		C173.9,18.5,174,18.5,173.9,18.5c0.1,0,0.1,0,0.1,0H173.9z M175.1,24.6L175.1,24.6c0.2,0,0.3,0,0.4,0
		C175.4,24.6,175.3,24.7,175.1,24.6z M175.9,24.2c-0.1,0-0.1,0-0.2,0C175.7,24.2,175.7,24.2,175.9,24.2h-0.2H175.9
		C175.9,24.2,175.9,24.2,175.9,24.2C175.8,24.1,175.8,24.2,175.9,24.2c0.3,0,0.5,0,0.6-0.1c-0.1,0-0.4,0.1-0.2,0.1
		c0.1,0,0.1,0,0.1,0l0.1,0.1C176.1,24.3,176,24.3,175.9,24.2z M176.5,23C176.6,23,176.6,23,176.5,23c0.3-0.1,0.4-0.1,0.6-0.1
		c-0.1,0-0.4,0.1-0.2,0.1c0.1,0,0.1,0,0.1,0l0.1,0.1C176.8,23.1,176.7,23.1,176.5,23z"/>
	<path class="st0" d="M172.3,9.8L172.3,9.8L172.3,9.8L172.3,9.8L172.3,9.8L172.3,9.8L172.3,9.8L172.3,9.8z"/>
	<path class="st0" d="M177.1,22.5L177.1,22.5L177.1,22.5z"/>
	<path class="st0" d="M177.3,18h0.1C177.4,18,177.3,18,177.3,18z"/>
	<path class="st0" d="M177.6,17.8L177.6,17.8L177.6,17.8z"/>
	<polygon class="st0" points="177.8,15.5 177.9,15.3 177.8,15.4 	"/>
	<path class="st0" d="M177,22.2l-0.1,0.2C177,22.2,177.2,22.3,177,22.2z"/>
	<path class="st0" d="M174.5,13.4h-0.3C174.4,13.4,174.5,13.4,174.5,13.4z"/>
	<path class="st0" d="M177.7,11.2h0.2C177.8,11.2,177.7,11.2,177.7,11.2z"/>
	<path class="st0" d="M178.1,10.5c-0.1,0.1-0.2,0.2-0.3,0.2C177.9,10.6,178,10.5,178.1,10.5z"/>
	<path class="st0" d="M172.8,11.1L172.8,11.1L172.8,11.1L172.8,11.1z"/>
	<path class="st0" d="M172.8,11.2v0.1C172.8,11.3,172.8,11.3,172.8,11.2z"/>
	<path class="st0" d="M172,10l0.1-0.1l0,0C172,10,172,10,172,10z"/>
	<path class="st0" d="M172.1,10C172.1,10,172.1,9.9,172.1,10C172.1,9.9,172.1,9.9,172.1,10C172.1,9.9,172.1,9.9,172.1,10
		C172.1,9.9,172.1,9.9,172.1,10C172.1,9.9,172.1,9.9,172.1,10C172.1,9.9,172.1,9.9,172.1,10C172.1,9.9,172.1,9.9,172.1,10
		C172.1,9.9,172.1,10,172.1,10L172.1,10C172.1,10,172.1,9.9,172.1,10C172.1,9.9,172.1,9.9,172.1,10z"/>
	<path class="st0" d="M172.1,9.9L172.1,9.9L172.1,9.9L172.1,9.9z"/>
	<polygon class="st0" points="172.1,9.9 172.1,9.9 172.1,9.9 	"/>
	<path class="st0" d="M172.1,9.9L172.1,9.9L172.1,9.9z"/>
	<polygon class="st0" points="172.4,9.5 172.4,9.5 172.4,9.5 	"/>
	<path class="st0" d="M172.9,10.8L172.9,10.8L172.9,10.8z"/>
	<path class="st0" d="M177.5,15.1L177.5,15.1C177.5,15.1,177.5,15.2,177.5,15.1L177.5,15.1z"/>
	<path class="st0" d="M172.9,10.4L172.9,10.4L172.9,10.4L172.9,10.4z"/>
	<polygon class="st0" points="172.9,10.4 172.9,10.4 172.9,10.4 	"/>
	<polygon class="st0" points="173,10.4 173,10.4 173,10.4 173,10.4 173,10.4 173,10.4 173,10.4 173,10.4 	"/>
	<path class="st0" d="M172.9,10.4h0.1H172.9z"/>
	<path class="st0" d="M173,10.4L173,10.4L173,10.4z"/>
	<path class="st0" d="M173,10.4L173,10.4L173,10.4z"/>
	<polygon class="st0" points="173,10.4 173,10.4 173,10.4 173,10.4 173,10.4 	"/>
	<path class="st0" d="M172.9,10.5v-0.1V10.5L172.9,10.5z"/>
	<path class="st0" d="M173,10.4L173,10.4L173,10.4L173,10.4z"/>
</g>
<g>
	<path class="st0" d="M174.2,27.3l0.8,0.1c0.3,0,0.5,0.1,0.8,0.1C174.9,27.4,175.1,27.1,174.2,27.3z"/>
	<path class="st0" d="M164.1,25.8l-0.3-0.2C163.7,25.8,163.9,25.8,164.1,25.8z"/>
	<path class="st0" d="M161.5,27.4l-0.6,0.5C161.1,27.8,161.3,27.6,161.5,27.4z"/>
	<path class="st0" d="M156.9,31.6c0.1,0,0.2-0.1,0.3-0.1C157.1,31.4,157,31.4,156.9,31.6z"/>
	<path class="st0" d="M193.3,35.8c-0.1-0.7-0.4-1.5-0.8-2.2c-0.7-1.4-1.7-2.4-1.5-2.8c-0.2,0-0.4-0.1-0.5-0.1
		c-0.2-0.4-0.7-1.4-0.2-0.9c-0.8-0.7-1.6-1.4-2.4-2c0.2,0.2,0.4,0.5,0.6,0.8c0.2,0.3,0.5,0.6,0.7,1c0.5,0.6,0.8,1.3,1.2,1.4
		c0.1,0.5-0.1,0.2-0.4,0c-0.3-0.2-0.5-0.4-0.5,0c-0.4-1-0.7-1.1-1-1.2c-0.1-0.1-0.3-0.1-0.5-0.2s-0.5-0.3-0.8-0.7
		c0.5,0.1,0.2-0.4-0.1-0.9c-0.4-0.5-1-1-0.8-1.1c-0.3-0.1-0.8-0.5-1.2-0.8s-0.9-0.7-1.1-0.8c-0.5-0.3-1.5-0.6-2.6-0.8
		c-0.3-0.1-0.5-0.1-0.8-0.2s-0.5-0.1-0.8-0.2c-0.5-0.1-1.1-0.2-1.5-0.3c0.3,0.1,0.8,0.3,1.1,0.5s0.5,0.4,0.5,0.6
		c-0.2-0.1-0.4-0.2-0.6-0.3c-0.2-0.1-0.4-0.1-0.6-0.1c-0.2,0-0.4,0-0.5,0c-0.9-0.4-1.7-0.6-2.6-0.8l0.9-0.1c-1.1,0.1-1.2,0-1.3-0.1
		s-0.1-0.3-1-0.3l0.7,0.3c-0.2,0-0.4,0-0.5,0c-0.4-0.1-0.8-0.1-1.2-0.1c0.1,0,0.2,0.1,0.3,0.1c-0.2,0-0.4-0.1-0.7-0.1l1,0.4
		c-0.2,0-0.4,0.1-0.7,0.1c-0.2,0-0.4,0-0.5-0.1c-0.1,0-0.3,0-0.5,0l0,0l0,0c-0.2,0-0.5,0-0.9,0.1l0.4,0.1c-0.2,0-0.4,0-0.9,0.1
		c0.4,0,0.7-0.1,0.7,0.1c-0.3,0-0.6,0.1-0.8,0.1c-0.3,0-0.5,0-0.6-0.1c-1.9,0.4-0.3,0.6-0.7,0.7c-0.5-0.1-1.3,0-2.1,0.3l0,0
		c-0.2,0-0.4,0-0.5,0.1c-0.5,0.1-1,0.2-1.4,0.3c-0.4,0.1-0.8,0.2-1.1,0.2l0,0c-0.7,0.3-1.5,0.6-2.2,0.9c0.4-0.2,0.1,0.2-0.4,0.7
		l0.1-0.1c-0.3,0.3,0,0.3,0.2,0.4c0.1,0.1,0.1,0.3-0.8,0.9c-0.3,0.2-0.7,0.4-1,0.7c0.1-0.1,0.1,0,0.1,0c-0.3,0.1-0.6,0.2-1,0.3h0.3
		c-0.6,0.5-1.4,1.5-2.1,1.9c0.1,0.1,0.1,0.3-0.1,0.5c-0.6,0.1-0.9,0.9-1.6,2c0.5-0.6,0.7-0.2,1.3-0.7c-0.4,0.8-0.7,1.1-1,1.3
		c-0.4,0.2-0.7,0.4-1.1,1.1c-0.1,0.5,0.1,0.3,0.2,0c0.2-0.3,0.5-0.7,0.6-0.8c-0.7,1-0.9,2.2-0.9,3.3s0.1,2-0.3,2.8
		c-0.1-0.3-0.2-0.7-0.3-1c-0.2,1-0.1,1.5,0,1.4c-0.1-0.3,0-0.4,0.1-0.5c0.3,1.4,0.5,2.5,0.8,3.6s0.7,2.3,1.7,3.3
		c0-0.3-0.2-0.6-0.1-0.7c0.2,0.2,0.4,0.4,0.5,0.6c0.1,0.2,0.1,0.4,0.2,0.6c0.2,0.4,0.4,1,1.4,1.5c-0.1-0.1-0.1-0.3-0.2-0.4
		c0.6,0.4,0.9,0.9,0.8,0.9c0.2-0.3,1.2,0.4,2.3,0.9c1.2,0.6,2.6,1,3.4,0.8c0.4,0.3,1.3,0.8,2.3,1.1c0.5,0.1,0.9,0.3,1.4,0.3
		c0.4,0.1,0.8,0.1,1,0c1.3-0.3-1.1-0.6-0.6-1c1,0.1,1.4,0.6,2.9,0.4c0,0.2-0.7,0.4-1.1,0.6c-0.4,0.2-0.5,0.4,1,0.5l0.4-0.2
		c-0.3,0-0.7,0.1-1.1,0.1c-0.8-0.3,0.5-0.3,0.7-0.4c1,0.1,2,0,3-0.1c0.3,0.4-1.6,0.5-1.7,0.6c1.2-0.1,2.5-0.5,3.8-1
		c1.2-0.4,2.4-0.9,3.5-1.1l-0.3-0.1c1.3-0.3,1.6-0.6,1.9-0.9c0.2,0,0.4-0.1,0.8-0.2c-0.2,0-0.4,0-0.6,0c0.2-0.2,0.5-0.4,1.5-0.5
		c1-0.6-0.5-0.2,0.8-1c0.1,0,0.3-0.1,0.4-0.1c0,0.1,0,0.1-0.1,0.2c0.3-0.1,0.5-0.2,0.6-0.3c0.3-0.1,0.6-0.2,0.9-0.3
		c0.3-0.1,0.6-0.2,0.8-0.4c0,0,0,0,0.1,0c0,0,0-0.1,0.1-0.1c0.3-0.2,0.7-0.3,1-0.5c0.6-0.4,1.1-0.8,1.5-1.3c0.2-0.5-0.1-0.1-0.5,0.3
		c-0.4,0.3-0.8,0.6-0.9,0.5c0,0,0,0,0.1-0.1c0.4-0.3,0.7-0.6,0.8-0.9c0.1-0.2,0.2-0.3,0.3-0.5c0-0.1,0.1-0.1,0.1-0.2
		c0,0,0.1,0,0.1-0.1c0.9-0.8,1.7-1.8,2.1-2.8c-0.4,0-0.9,1.2-1.5,1.4c0.5-0.5,1-1.2,1.3-1.9c0.3-0.8,0.6-1.6,0.7-2.4
		c0.3-1.7,0-3.4-0.2-4.7c0.3,0.3,0.3,0,0.5-0.3c0.1-0.3,0.2-0.4,0.6,0.5c-0.3,0.6,0.1,1.4,0.1,2.4C193.4,37.2,193.5,36.6,193.3,35.8
		z M191.3,42.8L191.3,42.8c-0.2,0.5-0.5,0.8-0.7,1.1v-0.1C190.8,43.5,191.1,43.2,191.3,42.8z M189.7,32c0.1,0.2,0.3,0.3,0.4,0.5
		c0.1,0.2,0.2,0.3,0.3,0.5c0.2,0.3,0.3,0.6,0.3,0.8s-0.1,0.2-0.3,0.1c0.1-0.1,0.1-0.3,0-0.6c-0.1-0.2-0.2-0.5-0.4-0.8
		s-0.4-0.5-0.6-0.8c-0.2-0.2-0.3-0.4-0.4-0.5C189.2,31.4,189.5,31.7,189.7,32z M187.6,33l0.1,0.1c0.2,0.3,0.6,0.4,0.4,0.6l-0.4-0.6
		C187.7,33.1,187.6,33,187.6,33L187.6,33z M188,33.6l-0.2,0.1c-0.1-0.2-0.1-0.4-0.2-0.6C187.7,33.3,187.9,33.4,188,33.6z
		 M188.6,34.4c0,0.1,0,0.1,0.1,0.2c0.1,0.3,0.1,0.5,0,0.6c-0.1-0.1-0.1-0.2-0.2-0.2C188.5,34.8,188.6,34.6,188.6,34.4z M188.7,34.7
		c0-0.1-0.1-0.2-0.1-0.3c0,0,0,0,0-0.1c0.4,0.6,0.5,1.1,0.6,1.7C188.9,35.6,188.8,35.1,188.7,34.7z M190,36.4c0-0.1-0.1-0.3-0.1-0.4
		C190,36.2,190,36.3,190,36.4z M159.8,33.9c-0.1,0.1-0.1,0.2-0.2,0.4c0,0.2-0.1,0.3-0.2,0.6c0.1-0.2,0.1-0.4,0.2-0.6
		c0-0.1,0-0.2,0-0.2C159.7,34,159.7,34,159.8,33.9z M158.7,44.5c-0.1-0.2-0.1-0.3-0.2-0.5l-0.1,0.1c-0.1-0.2-0.2-0.4-0.3-0.5
		s-0.1-0.2-0.1-0.1c0.1,0,0.4,0.4,0.6,0.8c0.1,0.2,0.3,0.4,0.4,0.6c0.1,0.2,0.2,0.3,0.3,0.4c0,0-0.1-0.1-0.2-0.2
		C159,44.9,158.9,44.7,158.7,44.5c0.1,0.1,0.1,0.1,0.1,0.2C158.8,44.7,158.8,44.6,158.7,44.5z M159.6,44.7c0.3,0.4,0.3,0.5,0.2,0.5
		c0.1,0.1,0.2,0.3,0.2,0.4c-0.1-0.1-0.2-0.1-0.3-0.2c-0.1-0.1-0.1-0.1-0.2-0.1c-0.1-0.1-0.1-0.1-0.1-0.1s0.2,0.1,0.3,0.1L159.6,44.7
		z M163.3,47.8c0.1,0,0.1,0.1,0.1,0.1C163.3,47.9,163.3,47.8,163.3,47.8z M171.9,50c-0.2,0-0.4-0.1-0.4-0.2
		C171.6,49.9,171.8,49.9,171.9,50c0.5,0.1,1.2,0.1,1.6,0c-0.2-0.2-1-0.2-1.3-0.3c0.6-0.2,1.5,0,2.2,0.1s1.1,0.1,0.8-0.5
		c0.2,0.1,0.7,0.1,1.1,0.2c-0.5,0.2-1,0.3-1.5,0.4c-0.9,0-1.8,0.1-2.4,0.2c-0.1,0-0.3,0-0.4,0C172,50.1,171.9,50.1,171.9,50z
		 M178.8,48.6c-2.2,0.1-4.3,0-5.9,0c-0.5,0.1,0.3,0.1,0.1,0.2c-0.7-0.2-1.8-0.2-2.7-0.2s-1.7,0-1.7-0.2c-0.6,0-0.9,0.3-1.1,0.4
		c-0.8-0.3-1.8-0.6-2.7-1c0.2,0.1,0.5,0.2,0.7,0.3h-0.1c-0.3-0.1-0.7-0.3-1-0.5l0,0c-1.2-0.5-2.4-1-3.4-1.8s-1.7-1.7-1.9-2.7
		c0.2,0.5,0,0.6-0.2,0.5c-0.1-0.1-0.3-0.2-0.3-0.1c0-0.6-0.2-1.4-0.2-2.3c-0.1-1,0-2.1,0.3-3.1c-0.1,0-0.2-0.2-0.4,0
		c0.2-0.4,0.4-0.8,0.6-1.2l-0.2,0.1c0.6-2.2,2.6-4.1,3.3-5.3c0.6-0.5,1.4-1,2.5-1.4c0.4-0.2,0.3-0.2,0-0.1c-0.2,0.1-0.6,0.2-0.6,0.2
		c0.4-0.4,1.6-0.8,1.9-0.8c-0.4-0.3-1.8,0.5-0.8-0.3c0.6-0.1,0-0.1,0.1-0.3c0.2,0,0.4-0.1,0.6-0.3c-0.2,0.1-0.3,0.1-0.5,0.2
		c0.1-0.1,0.3-0.1,0.5-0.2c0.2,0.1,0.5,0.2,0.7,0.3c0.7-0.3,0-0.5,1.3-0.8c1.5-0.2-1.6,1,0.7,0.5c0.6-0.2,1.1-0.6,1.8-1
		s1.6-0.7,2.8-0.6c0.4,0,0.6-0.1,0.7-0.2c0.1,0,0.3,0,0.4,0c0.5,0.1-1.2-0.4,0.3-0.4c0.1,0.4,0.6,0.4,1.1,0.4s0.9,0.1,1,0.5
		c0.4,0,0.9-0.1,1.3-0.1l0.2,0.4c0.6-0.3,1-0.1,1.4,0.2c0.2,0.1,0.4,0.3,0.7,0.4c0.1,0.1,0.3,0.1,0.4,0.2c0.2,0.1,0.3,0.1,0.5,0.2
		c0-0.1-0.2-0.2-0.1-0.2c0.5,0.2,1.5,0.8,0.6,0.6c0.2,0.1,0.5,0.2,0.8,0.4c0.3,0.2,0.7,0.4,0.9,0.5c0.6,0.3,0.9,0.5,0.5,0
		c0,0.1-0.3,0-0.5-0.2c-0.3-0.2-0.6-0.4-0.8-0.6c0,0,0,0,0.1,0c0.3,0.1,0.6,0.3,1.1,0.5c-0.1-0.1-0.2-0.2-0.3-0.3
		c0.4,0.1,0.7,0.3,1,0.5h-0.1c0.2,0.1,0.2,0.1,0.3,0.1c0.3,0.2,0.6,0.5,0.9,0.8c0.6,0.6,1,1.3,1.5,1.8c-0.3-0.3-0.5-0.2-0.4,0
		c1.2,1.1,2,2.4,2.6,4c0.1,0.2,0.2,0.5,0.2,0.7c0,0.4-0.1,0.7-0.2,1c0.4,0.2,0.2,0.8,0,1.5s-0.7,1.4-0.7,2.1
		c0.1-0.1,0.2-0.3,0.3-0.4c0.1-0.2,0.2-0.3,0.3-0.5c-0.5,1.1-0.9,1.7-1.2,2.3c-0.4,0.6-0.8,1.2-1.7,1.9c0.6-0.8,0.9-1.1,1.3-1.6
		c0.2-0.3,0.3-0.5,0.5-0.9c0-0.1,0.1-0.2,0.1-0.3s0.1-0.2,0.1-0.4c0-0.1,0.1-0.3,0.1-0.4c0-0.1,0.1-0.3,0.1-0.5
		c-0.4,1.2-1.2,2.2-2,2.9c-0.9,0.8-1.8,1.4-2.8,2.3c0.2,0.1,0.8-0.2,0.4,0.3c-0.3,0-0.9,0.3-1.3,0.5c-0.5,0.2-0.9,0.4-0.8,0.1
		c-0.7,0.5-0.7,0.9-1.2,1.2c-0.2,0-0.4,0.1-0.6,0.1C179.5,48.6,179.2,48.6,178.8,48.6z M188.1,44.8c0,0,0,0.1,0,0.2
		c-0.2,0.1-0.3,0.2-0.5,0.3s-0.4,0.2-0.5,0.3c0.1-0.1,0.3-0.2,0.5-0.4C187.7,45.1,187.9,44.9,188.1,44.8z M188.1,31
		c0.1,0.1,0.2,0.2,0.4,0.4C188.2,31.2,188.1,31.1,188.1,31c-0.4-0.4-0.6-0.5-0.3-0.7c-0.1-0.3-0.6-0.5-0.7-0.8
		C188,30.2,187.7,30.4,188.1,31z M179.8,25.1c0.3-0.2,0.5-0.5,1.9,0.2c0.5,0.7,1.3,1,2.5,1.8c-0.7-0.1-0.5,0.2-0.9,0.3
		c-0.6-0.8-1.7-1.3-2.9-1.6c-0.6-0.1-1.1-0.3-1.7-0.4c-0.1-0.2,0.3-0.2,0.4-0.3C179.5,25.3,179.6,25.2,179.8,25.1z M172.2,24
		c-0.2,0-0.3,0-0.4-0.1C172,23.9,172.2,23.9,172.2,24z M171.6,24L171.6,24v0.1h-0.1C171.4,24,171.3,24,171.6,24z M159.8,29.7
		l-0.1,0.1c-0.1,0.1-0.3,0.1-0.4,0.1C159.5,29.8,159.6,29.8,159.8,29.7z M154.9,43.8c-0.1-0.5-0.2-1.1-0.3-1.5
		c0.1-0.2,0.1-0.1,0.2,0.1c0,0.1,0.1,0.2,0.1,0.3c0,0.2,0.1,0.5,0.1,0.7c0-0.2,0-0.3,0-0.5l0,0c0.1,0.6,0.3,1.2,0.5,1.8
		C155.2,44.7,155,44.3,154.9,43.8z M163.9,51.7c0.1-0.2-1.6-0.9-1.7-1c-0.1-0.5,0.4,0,1.1,0c-0.4-0.1,0.3,0.6,1.2,0.8L163.9,51.7z
		 M167.4,52.8c-0.6,0-1.3-0.2-1.5-0.5c1.1,0.2,2.2,0.4,2.5,0.3C168.6,52.8,168,52.9,167.4,52.8z M175.7,50.9l0.5-0.2
		c0.1-0.1,0-0.2-0.1-0.2c0.2-0.1,0.4-0.2,0.6-0.2l0,0c-1.2,0.5,0.8,0.3-0.1,0.6l0.7-0.2C176.3,51.4,176.5,50.7,175.7,50.9z
		 M190.3,32.1c0.2,0.1,0.3,0.2,0.5,0.3L191,33C190.8,32.7,190.6,32.4,190.3,32.1z"/>
	<path class="st0" d="M155.5,34c-0.1,0.2-0.3,0.4-0.4,0.7C155.2,34.4,155.3,34.2,155.5,34z"/>
	<path class="st0" d="M186.6,27.1c-0.2-0.1-0.3-0.1-0.4-0.1C186.4,27.1,186.5,27.2,186.6,27.1z"/>
	<path class="st0" d="M183.8,25.4C183.8,25.4,183.9,25.4,183.8,25.4c0.1,0.1,0.1,0.1,0.2,0.1L183.8,25.4z"/>
	<path class="st0" d="M164.4,47.7c0.1,0,0.2,0.1,0.3,0.1L164.4,47.7L164.4,47.7z"/>
	<path class="st0" d="M154,37.7c-0.1,0.2-0.1,0.2-0.1,0.3c-0.1,0.1-0.1,0.3-0.1,1.2c0.1-0.8,0.3-1.6,0.6-2.4
		C154.1,37.3,154,37.5,154,37.7z"/>
</g>
<g>
	<path class="st0" d="M173.8,94.7l0.2,0.1C174,94.6,173.9,94.7,173.8,94.7z"/>
	<path class="st0" d="M174.6,92.2c-0.1,0.1-0.3,0.2-0.4,0.3C174.4,92.5,174.5,92.4,174.6,92.2z"/>
	<path class="st0" d="M170.8,63.6c0.1,0,0.1-0.1,0.1-0.1C170.8,63.5,170.7,63.5,170.8,63.6z"/>
	<path class="st0" d="M171.2,67.6h-0.3C171.1,67.6,171.1,67.6,171.2,67.6z"/>
	<path class="st0" d="M171.3,67.9L171.3,67.9C171.3,68,171.3,68,171.3,67.9z"/>
	<path class="st0" d="M171.6,68.5L171.6,68.5C171.7,68.4,171.7,68.4,171.6,68.5C171.6,68.4,171.5,68.4,171.6,68.5z"/>
	<path class="st0" d="M175.2,63.9c0.1,0,0.3,0,0.3-0.1C175.4,63.9,175.3,63.9,175.2,63.9z"/>
	<path class="st0" d="M175.3,64.7c0.2,0,0,0.2,0,0.2c-0.3,0-0.2-0.1-0.4-0.2v-0.1h0.2c0-0.1-0.1,0-0.2,0c0-0.1,0-0.2,0-0.2l-0.1,0.1
		c0.1-0.2,0-0.4,0.4-0.5c-0.1,0-0.2-0.1-0.2-0.1h0.4v-0.3l-0.6,0.1c-0.1-0.3,0.6-0.5,0.7-0.7c-0.7-0.1,0.3-0.5-0.4-0.7l-0.2,0.2
		c0.1-0.4-0.3-0.4-0.1-0.8c0.2,0.3,0.1,0.3,0.7,0.8c-0.3-0.4,0.4-0.8,0-1.2c-0.2,0-0.3,0.1-0.4,0c0.4-0.1,0-0.4,0.4-0.3
		c-0.1-0.1-0.5-0.1-0.6-0.2l0.5-0.4h-0.1c-1-0.7,0.6-1.4,0.2-2.1h-0.2l0.3-0.2c-0.2,0.1-0.3-0.1-0.5-0.1l0.5-0.5
		c-0.2,0-0.6,0-0.6,0.1c-0.2-0.2,0.2-0.4,0.3-0.5l-0.2,0.1l0.2-0.2H175c0.1-0.3-0.2-0.6,0.3-0.7h-0.4l0.4-0.3l-0.3,0.2
		c-0.1-0.3,0.2-0.8,0.2-0.8H175c-0.1,0,0-0.1,0.1-0.1h-0.2c0.1-0.5-0.5-0.6-0.2-1.1c-0.1-0.1-0.1,0.1-0.2,0.1
		c-0.2-0.1,0-0.3,0.1-0.3c-0.4,0-0.3,0.3-0.6,0.1c0.2-0.1-0.4,0.1-0.3-0.1l0.5-0.1c-0.1-0.1-0.4,0-0.3-0.2c0.2-0.2,0.6,0.2,0.6-0.1
		c0-0.2-1.2-0.3-0.9-0.7c-0.3-0.3-0.8,0.2-0.7-0.2l-0.2,0.2c0-0.1,0-0.2,0-0.3l0.1-0.1c0,0-0.1,0-0.1,0.1c0-0.1,0-0.2,0-0.3
		c-0.1,0.1-0.2,0.2-0.2,0.4c-0.2-0.1-0.4-0.3-0.7-0.1v-0.1h-0.1v-0.2c-0.1,0.1-0.2,0.4-0.5,0.2l-0.1-0.2c-0.3,0.1-0.4,0-0.6,0
		L170,53c0.2,0,0.3-0.1,0.4-0.1c0.1,0.2-0.3,0.2-0.1,0.3l0.2-0.1c-0.1,0-0.1,0-0.1,0c-0.1-0.1,0-0.1,0.2-0.1
		c0.3,0.1,0.1,0.2-0.1,0.3c0,0.2,0.5,0,0.6,0.1c-0.5,0.1,0,0.4-0.2,0.5l0.3-0.1c0.4,0.2,0.1,0.3,0,0.4h0.3c0,0.2,0.6,0.3,0.2,0.5
		c-0.1,0-0.1,0-0.2,0.1h-0.1h0.1c0,0.1-0.1,0.1-0.1,0.2v-0.4c0,0.1-0.1,0.1-0.1,0l-0.1-0.5c-0.1,0.3-0.1,1.1-0.5,0.8l-0.1-0.8
		c-0.3,0.2-0.4,0-0.6,0l-0.4,2.3c0.2-0.1,0.3-0.4,0.4-0.3c0.2,0.6-0.3,0.5,0,1.1l0.2-0.3c-0.1,0.1-0.1,0.1-0.1,0
		c-0.2-0.2,0-0.3,0.1-0.3c0.3,0.2,0.1,0.8-0.1,1c0.1,0.7,0.5,0.1,0.6,0.3c-0.5,0.4,0.1,1.3-0.1,1.7l0.3-0.3c0.4,0.6,0.1,1.1,0,1.4
		l0.2-0.1c0,0.8,0.8,1.2-0.1,1.8l0.2-0.1c0.1,0.2,0.2,0.5,0.1,0.8c-0.2,0.1-0.1,0.2-0.1,0.3c0,0,0,0,0,0.1h0.1
		c0.1,0.1,0.1,0.1,0.1,0.2c-0.1,0.1-0.1,0.1-0.1,0.2h-0.1h0.1V64c-0.1,0-0.2,0-0.2,0l0.2,0.4c0,0,0,0,0.1,0c0,0.1,0,0.2,0.1,0.3
		c0.1-0.3,0.5-0.2,0.6-0.5c0,0.1,0,0.2,0,0.3c-0.1,0.1-0.2,0.2-0.4,0.2c0.1,0.1-0.1,0.2-0.3,0.3c0-0.1,0-0.2,0-0.3
		c0,0.1,0,0.2,0,0.3c0,0,0,0-0.1,0c0,0.2,0.4,0.5,0.2,0.7c0.1-0.1,0.2-0.1,0.4-0.2c0,0.1,0,0.1,0,0.2c0,0.3-0.2,0.2-0.4,0.3l0,0
		v-0.1V66l0,0l0,0v0.1l0,0c-0.1,0-0.3,0-0.4,0.1l0.3-0.1v0.1v0.1c0,0-0.1,0.1-0.2,0.1h0.2c0,0.1,0,0.1,0.1,0.5l0.1-0.5l0,0
		c-0.1,0.5,0.4,0.3,0.3,0.8c0.1-0.1,0.2-0.2,0.2-0.3c0.1,0,0.2,0,0.3,0c0,0.1,0,0.1,0,0.2c-0.2,0.1-0.3,0.1-0.5,0.2l-0.1-0.1
		c0,0.1-0.1,0.2-0.1,0.2c-0.1,0.1-0.2,0.1-0.3,0.1l0,0l-0.3,0.3c0.1-0.1,0.3,0,0.3,0.1l0,0c0.1,0,0.3,0,0.4,0c0,0.1,0,0.2,0,0.3l0,0
		l0,0c0,0.1,0,0.1,0,0.2l0,0l0,0c0,0.2-0.1,0.3-0.1,0.5c-0.1,0-0.1,0.1-0.2,0.1c0,0.1,0,0.1,0,0.2l-0.1,0.1h0.1l0,0
		c-0.1,0.2-0.2,0.4-0.2,0.6l0,0l-0.2,0.3l0.1-0.1c0,0.2,0,0.3,0,0.5c0.1-0.1,0.2-0.2,0.3-0.2c0,0.1,0,0.2,0,0.3
		c-0.1,0-0.3,0-0.4,0.1l0.4-0.1c-0.2,0.3-0.7,0.4-0.5,1.1l0.2-0.2c0.1,0.3-0.2,0.5-0.2,0.5c0.3,0,0.3,0.3,0.4,0.6
		c-0.1,0.7-0.2,1.4-0.2,1.9c0.1,0.2,0.1-0.1,0.2,0c-0.3,0.3-0.1,0.9-0.1,1.3c0,0.3,0,0.5,0,0.6c0,0,0,0-0.1,0
		c0.1,0.3,0.4,0.4,0.5,0.5c-0.1,0.1-0.1,0.2-0.1,0.3c-0.3-0.3-0.6-0.7-0.8,0.1l0.2,0.2c0-0.1-0.1-0.3-0.1-0.5
		c0.3-0.3,0.3,0.2,0.4,0.3l-0.2,1.3c-0.5,0.1-0.3-0.7-0.4-0.8c0,0.6,0.3,1.3,0.4,1.9c-0.1,0.8-0.2,1.6-0.5,2.3
		c0.3-0.6,0.5,0,0.6-0.1c-0.6,0.6-0.7,1.9-0.7,2.9c0.1,0,0.2,0.1,0.4,0l-0.3,0.6l0.2-0.1c0.1,1.1-0.7,2.3-0.5,3.1
		c0.1-0.5,0.2-0.5,0.5-0.5c-0.1,0.8-0.1,1.5-0.4,2.4c-0.1,0-0.2-0.1-0.3-0.3c0.5-0.2,0.2-0.5,0.2-0.9c-1,0.6,0.4,2.6-0.5,2.7
		l0.4,0.2c-0.1,0.2-0.3,0.6-0.5,0.3l0.2,1.2c0.1-0.1,0.2-0.3,0.3-0.5c0,0.4-0.5,1.2-0.4,1.8c-0.1,0.2,0.4-0.5,0.4,0.1c0,0,0,0,0,0.1
		c-0.7,0.1-0.1,0.9-0.9,0.9l0.2,0.6l-0.4,0.1c0.2,0.2,0.2,0.3,0.2,0.4h0.8v0.1h0.3l0,0l0.1-0.1h0.2v0.1l1.6,0.1v-0.1h0.4l-0.1,0.1
		l0,0h0.3v-0.1h0.8c0-0.3,0.5-0.6,0.4-1.2c-0.1,0-0.1,0.1-0.2,0.1c0.1-0.3,0.2-0.8,0.3-0.4c0-0.4,0.2-1.9-0.2-1.2
		c0.2,0,0,0.5-0.1,0.8c-0.3,0-0.2-0.7-0.6-0.8c0,0,0.1-0.1,0.2-0.2l-0.2-0.1c0.4-0.8,0.1-1.6,0.6-2.2c-0.1,0-0.2-0.2-0.2-0.5h0.4
		v-0.8l-0.6,0.4c0-0.1,0-0.2,0-0.3h0.2c-0.1,0-0.1,0-0.2,0c0.1-0.7,0.6-1.3,0.7-2c-0.7-0.2,0.3-1.5-0.3-2.2l-0.2,0.6
		c0.1-0.9-0.1-1.3-0.1-1.9v-0.1l0,0c0-0.2,0-0.4,0.1-0.6c0.2,1,0.1,1,0.6,2.5c-0.3-1.5,0.5-2.5,0.1-3.9c-0.2,0.1-0.3,0.4-0.4,0.1
		c0.4-0.3,0-1.3,0.4-1.1c-0.1-0.3-0.4-0.4-0.5-0.6c0,0,0,0,0-0.1s-0.1-0.1-0.1,0c0,0,0,0,0-0.1l0.6-1.4h-0.1
		c-0.9-2.4,0.8-4.4,0.4-6.9h-0.2l0.3-0.6c-0.2,0.5-0.3-0.2-0.5-0.3l0.5-1.5c-0.2,0-0.6,0-0.6,0.4c-0.2-0.6,0.3-1.2,0.3-1.7l-0.2,0.2
		l0.2-0.5h-0.2c0-0.1,0-0.2,0-0.4c0,0,0,0-0.1,0c0-0.2,0-0.4,0-0.6c0.1-0.2,0.3-0.3,0.1-0.5l-0.1,0.1c0-0.4,0.1-0.7,0.3-0.8
		l-0.3,0.1c0,0,0,0,0-0.1c0,0,0,0,0,0.1h-0.1l0.1-0.1l0,0l0,0l0.3-0.7l-0.3,0.5c0-0.1,0-0.2,0-0.3c0,0,0.1,0,0.2,0h-0.2l0,0
		c0-0.1,0-0.2,0-0.3c0.1-0.1,0.2-0.3,0.1-0.3c0,0,0,0-0.1,0v-0.1c0.3-0.1-0.1-0.3,0.6-0.3l-0.3-0.2h0.4c-0.7-0.2,0.3-0.3,0.1-0.5
		c-0.1,0-0.1,0-0.2,0c0.1-0.1,0.1-0.3,0.3-0.1C175.5,64.9,175.7,64.5,175.3,64.7z M174.9,63.8L174.9,63.8c0,0.1,0,0.1,0,0.2V63.8
		C174.9,63.8,174.7,63.8,174.9,63.8z M171.1,81.3c0-0.1,0-0.2,0.1-0.3l0,0l0.1-0.1L171.1,81.3z M171.3,81.1
		C171.3,81.1,171.2,81.1,171.3,81.1L171.3,81.1L171.3,81.1z M171.7,54.6C171.6,54.6,171.6,54.6,171.7,54.6L171.7,54.6
		c0.2-0.1,0.4,0,0.5,0.1l0,0c-0.3,0-0.5,0.1-0.6,0.2C171.6,54.7,171.8,54.7,171.7,54.6z M172.3,73.6c0,0,0.1,0,0.1-0.1
		c0,0,0,0,0,0.1c0,0,0,0,0,0.1c0,0-0.1,0-0.1,0.1C172.4,73.7,172.4,73.6,172.3,73.6z M172.1,73.2c0.2-0.1,0.2,0,0.3,0
		C172.3,73.2,172.2,73.2,172.1,73.2C172.1,73.3,172.1,73.2,172.1,73.2z M171.6,55.7C171.7,55.7,171.7,55.7,171.6,55.7
		c0.2,0.1,0.2-0.1,0.4-0.1c-0.1,0.1,0,0.2,0.1,0.3l-0.2,0.4h-0.1l0,0c-0.1-0.1-0.2-0.1-0.2-0.3v-0.1V56
		C171.6,55.9,171.6,55.8,171.6,55.7z M172.3,56l0.1,0.1C172.3,56.1,172.3,56.1,172.3,56z M172.1,55.3c0.3,0.2-0.1,0.2-0.4,0.3
		c0.1-0.1,0.1-0.1,0.2-0.2C172,55.4,172.1,55.4,172.1,55.3z M172.1,73.5L172.1,73.5L172.1,73.5L172.1,73.5L172.1,73.5z M172.2,74.2
		L172.2,74.2L172.2,74.2L172.2,74.2z M174.4,63.2C174.5,63.2,174.5,63.2,174.4,63.2C174.5,63.3,174.5,63.3,174.4,63.2
		C174.4,63.3,174.4,63.3,174.4,63.2z M173.6,60.1L173.6,60.1c-0.2,0,0,0,0.2-0.1v0.1C173.7,60.1,173.7,60.1,173.6,60.1z M172.2,54.7
		l0.1,0.1L172.2,54.7C172.1,54.8,172.2,54.8,172.2,54.7L172.2,54.7l-0.1-0.1C172.2,54.6,172.3,54.6,172.2,54.7
		C172.4,54.7,172.3,54.7,172.2,54.7z M174.9,63.3c-0.2,0-0.2,0.2-0.4,0.2c0-0.1,0-0.1,0-0.2C174.6,63.3,174.8,63.2,174.9,63.3z
		 M174.4,60.5c0.2-0.1-0.3-0.2,0.2-0.3C175,60.3,174.6,60.4,174.4,60.5z M174.8,55.5c0.3,0.2-0.3,0.1-0.4,0.3
		C174.1,55.6,174.7,55.6,174.8,55.5z M174.2,55.8c0.1,0,0.1,0.1,0.1,0.2C174,55.9,174.1,55.9,174.2,55.8z M174.4,59.9
		c0.1,0.1-0.1,0.3-0.2,0.2c-0.1-0.1-0.2-0.1-0.3,0c0,0,0,0,0-0.1l0,0C174.3,60.1,174.2,59.9,174.4,59.9z M172.9,53.6L172.9,53.6
		c-0.1,0.1-0.2,0.1-0.3,0.1v-0.1C172.7,53.5,172.8,53.5,172.9,53.6z M172.2,52.7h0.1c0,0.1,0,0.1,0,0.2
		C172.2,52.9,172.1,52.8,172.2,52.7z M171.5,54.5c0.1,0,0.1,0,0.2-0.1v0.1C171.6,54.5,171.6,54.5,171.5,54.5L171.5,54.5z
		 M171.1,61.4c0.3-0.3,0.4-0.3,0.5,0c0,0.2,0,0.3,0,0.5c-0.2,0.1-0.4,0.5-0.5,0.6c0.1-0.3,0.4-0.5,0.2-0.8c-0.1,0-0.1,0-0.1,0.2
		L171.1,61.4z M171.4,66L171.4,66C171.4,66.1,171.4,66.1,171.4,66L171.4,66z M171.4,66.1L171.4,66.1L171.4,66.1L171.4,66.1z
		 M171.4,66.1L171.4,66.1C171.5,66.1,171.5,66.1,171.4,66.1L171.4,66.1z M171.6,82.3c0-0.1-0.1-0.1-0.1-0.2
		C171.6,82.1,171.6,82.2,171.6,82.3z M171.6,86.6C171.6,86.6,171.7,86.6,171.6,86.6c-0.1,0.2-0.2,0.4-0.2,0.6l0,0c0-0.1,0-0.1,0-0.2
		C171.4,87,171.5,86.8,171.6,86.6z M171,87c0-0.1-0.1-0.2,0-0.3V87C171,87.1,171,87.1,171,87c0,0.2,0,0.2,0.1,0.3
		c0.1,0,0.1,0,0.2-0.1c0.1,0.1,0.1,0.1,0.2,0.2c0,0.1,0,0.1,0,0.2s-0.1,0.1-0.2,0.2L171,87z M171.3,97.6L171.3,97.6l0.4-0.1
		c0,0,0,0,0,0.1h0.1c0,0,0,0,0-0.1h0.3v0.1H171.3z M173.6,79.9c-0.1-0.6-0.5,0.3-0.6-0.1v0.3c-0.3-0.5,0.3-0.4,0.3-0.8l0.1,0.3
		c0.2,0.2,0.2-0.2,0.3-0.3h0.1C173.9,79.7,173.7,80.2,173.6,79.9z M174,92v0.4c0,0.1,0,0.1,0,0.2v-0.2C173.9,92.2,173.8,92,174,92z
		 M174,90.4l-0.1-0.1C174,90.3,174,90.3,174,90.4L174,90.4z M173.8,81.1c0.2-0.4-0.3-0.6,0.2-0.9C174.4,80.6,174,80.9,173.8,81.1z"
		/>
	<path class="st0" d="M171.4,64.7h-0.1C171.3,64.7,171.4,64.7,171.4,64.7z"/>
	<path class="st0" d="M171.1,65L171.1,65L171.1,65L171.1,65z"/>
</g>
</svg>
